<svg width="78" height="52" viewBox="0 0 78 52" fill="none" xmlns="http://www.w3.org/2000/svg">
<path fill-rule="evenodd" clip-rule="evenodd" d="M41.0063 3.22422C37.907 5.00475 35.35 6.48265 35.324 6.50851C35.2975 6.53486 38.7765 12.6039 43.2508 20.3364L51.2248 34.1173H58.886H66.5472L66.4167 33.8859C66.3449 33.7587 64.891 31.2537 63.1859 28.3193C50.4265 6.36223 46.7264 0.0114047 46.6868 2.65797e-05C46.6619 -0.00715958 44.1056 1.44374 41.0063 3.22422ZM27.6755 15.2561C24.5597 17.0349 22.0128 18.5215 22.0157 18.5596C22.0187 18.5977 24.0323 22.1069 26.4904 26.3577L30.9597 34.0866V35.7351V37.3837H32.6017H34.2438V35.7507V34.1177L40.2643 34.1039L46.2848 34.09L45.8586 33.3551C38.5144 20.6903 33.4498 12.0152 33.4018 12.0182C33.3682 12.0203 30.7914 13.4774 27.6755 15.2561ZM14.2519 26.9749C11.1287 28.7623 8.57321 30.2451 8.57304 30.2698C8.57288 30.2947 9.05926 31.1695 9.6538 32.2141L10.7348 34.1132L18.3855 34.1152L26.0361 34.1173L25.939 33.9337C25.6985 33.4792 19.9822 23.7201 19.9578 23.7225C19.9427 23.7239 17.3751 25.1875 14.2519 26.9749ZM26.0882 36.9255V39.6792L25.8008 39.5096C24.6606 38.8364 23.7454 38.5513 22.5258 38.4891C19.1485 38.317 16.2014 40.5895 15.4873 43.9166C15.3507 44.5529 15.3514 45.9357 15.4886 46.5842C15.8976 48.5161 17.0738 50.137 18.781 51.1208C19.9079 51.7703 21.4457 52.0967 22.8044 51.9748C23.852 51.8809 24.9408 51.5152 25.8235 50.961C25.9378 50.8892 26.0441 50.8305 26.0597 50.8305C26.0754 50.8305 26.0882 51.0388 26.0882 51.2933V51.756H27.7029H29.3176V42.9639V34.1717H27.7029H26.0882V36.9255ZM46.3404 36.9241V39.6764L46.1078 39.5345C44.7088 38.6815 43.1477 38.3316 41.6012 38.5244C36.9569 39.1035 34.2627 44.0485 36.3186 48.2202C37.3855 50.3851 39.4136 51.7588 41.8578 51.9719C43.1423 52.0839 44.3203 51.8592 45.492 51.2788C45.7629 51.1446 46.05 50.9888 46.1299 50.9327C46.2098 50.8765 46.2899 50.8305 46.3078 50.8305C46.3257 50.8305 46.3404 51.0388 46.3404 51.2933V51.756H47.9551H49.5698V42.9639V34.1717H47.9551H46.3404V36.9241ZM5.84359 38.5368C5.31304 38.6029 4.28302 38.9165 3.79713 39.1598C2.2896 39.915 1.11104 41.1712 0.502812 42.6715C-0.176896 44.348 -0.167043 46.2457 0.529742 47.8751C1.44602 50.0176 3.2535 51.4521 5.59657 51.8965C5.91957 51.9578 6.3482 51.9878 6.87596 51.9861C7.68528 51.9835 8.08699 51.9248 8.87382 51.6944C9.26129 51.5809 10.2077 51.1383 10.4892 50.9389C10.5734 50.8793 10.6569 50.8305 10.6748 50.8305C10.6928 50.8305 10.7075 51.0388 10.7075 51.2933V51.756H12.3495H13.9916V45.1959V38.6358H12.3515H10.7114L10.6957 39.1476L10.6801 39.6593L10.2422 39.4024C8.9297 38.6325 7.43542 38.3384 5.84359 38.5368ZM56.7402 38.5538C56.4843 38.592 56.0286 38.7022 55.7276 38.7987C53.4107 39.5414 51.7535 41.3365 51.1536 43.7533C50.9827 44.4419 50.9657 45.8678 51.1199 46.5842C51.5367 48.5201 52.6778 50.1047 54.3714 51.0991C56.2876 52.2241 58.8395 52.2988 60.8454 51.2885C61.1012 51.1596 61.3845 51.004 61.4748 50.9427C61.5651 50.8814 61.6575 50.8311 61.6801 50.8309C61.7026 50.8307 61.7211 51.0388 61.7211 51.2933V51.756H63.3358H64.9505V45.1959V38.6358H63.3358H61.7211V39.153C61.7211 39.4375 61.7128 39.6702 61.7025 39.6702C61.6922 39.6702 61.4808 39.5488 61.2326 39.4004C59.9417 38.6288 58.3053 38.3204 56.7402 38.5538ZM70.7799 38.5577C68.3264 38.9293 66.765 40.3135 66.5465 42.3106C66.3969 43.6789 66.8382 44.8619 67.7295 45.4814C68.4616 45.9901 69.2134 46.2545 70.7799 46.5543C71.3519 46.6638 72.1323 46.813 72.5142 46.8858C73.4267 47.0597 73.8772 47.2117 74.1376 47.4334C74.6677 47.8846 74.6627 48.6061 74.1265 49.0744C73.4183 49.6928 71.437 49.7 70.4776 49.0876C69.988 48.7752 69.7074 48.3712 69.5886 47.8079L69.5257 47.5097H67.8657H66.2057L66.2405 47.7955C66.3032 48.3105 66.4302 48.7268 66.6764 49.2245C67.3406 50.567 68.7441 51.4918 70.6509 51.8434C71.2785 51.9591 72.7913 52.0033 73.4654 51.9256C75.0192 51.7464 76.3093 51.1741 77.0717 50.3255C77.4279 49.9292 77.7711 49.273 77.9039 48.7346C78.0205 48.2621 78.0338 47.1751 77.9283 46.7475C77.7391 45.9807 77.3278 45.372 76.6991 44.9287C75.9195 44.379 75.3339 44.1868 73.0247 43.7219C70.6744 43.2489 70.2385 43.0997 69.9465 42.6687C69.809 42.4658 69.7789 42.0775 69.8801 41.8105C69.9517 41.6216 70.2343 41.3217 70.4434 41.2128C71.3249 40.7538 72.8757 40.8665 73.6384 41.4451C73.8716 41.6221 74.1277 42.0696 74.2037 42.4331L74.2634 42.7189H75.904H77.5447L77.5113 42.5147C77.4258 41.9922 77.3618 41.7502 77.2083 41.3688C76.4581 39.5054 74.5236 38.457 71.8746 38.4782C71.5435 38.4809 71.0508 38.5166 70.7799 38.5577ZM30.9597 45.1959V51.756H32.6017H34.2438V45.1959V38.6358H32.6017H30.9597V45.1959ZM8.05278 41.6317C9.3036 42.0132 10.2857 43.0295 10.629 44.2977C10.7557 44.7658 10.7584 45.6711 10.6345 46.1486C10.584 46.3433 10.4408 46.7107 10.3164 46.9652C9.8763 47.8649 8.88153 48.6509 7.86121 48.9052C7.38451 49.024 6.46692 49.0212 6.00019 48.8996C4.74428 48.5722 3.70069 47.5687 3.30944 46.312C3.12345 45.7145 3.13248 44.7186 3.32936 44.1252C3.78476 42.7526 4.89902 41.7765 6.30124 41.5217C6.73332 41.4432 7.61659 41.4987 8.05278 41.6317ZM23.0663 41.5507C23.3052 41.5983 23.7122 41.7411 24.0043 41.8797C24.444 42.0885 24.5902 42.1948 24.9923 42.5987C25.754 43.3638 26.0915 44.1665 26.0958 45.2231C26.1002 46.2822 25.7511 47.1411 25.0225 47.8642C24.3342 48.5473 23.6665 48.8732 22.7356 48.9804C21.167 49.161 19.6376 48.3443 18.9498 46.9587C18.6188 46.2918 18.5161 45.8038 18.55 45.0598C18.5968 44.0362 18.925 43.3004 19.6589 42.5738C20.0276 42.2088 20.1996 42.0852 20.6212 41.8826C21.4499 41.4845 22.2132 41.3809 23.0663 41.5507ZM43.7195 41.6472C44.289 41.8246 44.7109 42.0745 45.1562 42.4977C45.9808 43.2819 46.364 44.1702 46.3551 45.2776C46.347 46.2895 45.9859 47.1555 45.2747 47.8689C44.7681 48.377 44.2855 48.668 43.6317 48.8598C42.8254 49.0962 41.6318 49.0124 40.9575 48.6721C39.9014 48.1392 39.0916 47.1217 38.8626 46.0398C38.7366 45.4446 38.7835 44.6204 38.9759 44.0532C39.4218 42.7381 40.5541 41.7729 41.9486 41.5192C42.3865 41.4396 43.2547 41.5023 43.7195 41.6472ZM58.6993 41.5507C58.9388 41.5984 59.3455 41.7412 59.6401 41.8811C60.6251 42.3487 61.4146 43.3452 61.6384 44.4034C61.7391 44.8797 61.7424 45.6258 61.6457 46.067C61.3693 47.328 60.3563 48.4453 59.1486 48.8209C57.1956 49.4283 55.1861 48.5002 54.4233 46.6386C54.2192 46.1403 54.1703 45.8731 54.1697 45.2504C54.1691 44.5751 54.2684 44.1444 54.5637 43.5414C54.7463 43.1685 54.8889 42.9762 55.2615 42.6001C55.6618 42.196 55.8051 42.0917 56.2487 41.8808C57.0835 41.4839 57.8471 41.3811 58.6993 41.5507Z" fill="white"/>
</svg>
