<svg width="92" height="31" viewBox="0 0 92 31" fill="none" xmlns="http://www.w3.org/2000/svg">
<path fill-rule="evenodd" clip-rule="evenodd" d="M22.4853 0.0557203C21.2821 0.169426 19.5808 0.559026 18.297 1.01485C15.5103 2.00425 12.5298 3.69252 10.1063 5.65427L9.55372 6.10164L9.68641 6.30444C9.75939 6.416 9.83299 6.50058 9.85001 6.49245C9.86702 6.48431 10.1844 6.27438 10.5552 6.02592C11.5819 5.33818 12.5705 4.76734 13.7712 4.16885C15.8387 3.13831 17.6383 2.51075 19.425 2.19729C20.3111 2.04187 21.7011 2.0287 22.3297 2.1698C24.0389 2.55352 25.0546 3.57661 25.1863 5.04728C25.3067 6.39133 24.5559 8.53579 23.221 10.6605C22.4793 11.8411 21.4347 13.1963 21.6018 12.7611C21.7719 12.318 21.7583 11.4404 21.5735 10.9355C20.6588 8.4362 16.8742 8.33115 12.0581 10.6714C8.46077 12.4193 4.9 15.3222 2.70476 18.2967C0.967688 20.6503 -0.00145073 23.2177 1.63003e-06 25.4619C0.00181708 28.3043 1.65087 30.3042 4.44303 30.8501C6.51352 31.2548 8.93445 30.8377 11.5408 29.6271C15.4222 27.8242 19.7646 24.1643 23.3496 19.6742C26.8791 15.2537 29.2047 10.7169 29.7514 7.18601C29.8751 6.3864 29.8662 5.15484 29.7317 4.48373C29.0837 1.24981 26.5075 -0.324383 22.4853 0.0557203ZM36.5943 7.24945C36.5415 7.39889 35.6344 10.8563 35.6344 10.9082C35.6344 10.9469 36.5049 10.9641 38.4742 10.9644C40.173 10.9646 41.4496 10.9865 41.6513 11.0189C42.0919 11.0897 42.411 11.2881 42.5679 11.5887C42.7433 11.9246 42.7278 12.392 42.5141 13.2202L42.3448 13.8761L40.0399 13.9069C37.9201 13.9351 37.6956 13.9468 37.2433 14.0521C34.1106 14.7809 31.5481 16.8552 30.762 19.2983C30.3219 20.6659 30.3989 22.0809 30.9744 23.1998C31.6792 24.5702 32.8406 25.3501 34.6348 25.6575C35.214 25.7568 35.453 25.7614 39.2907 25.7484L43.336 25.7347L44.1542 22.6389C44.6041 20.9362 45.3671 18.0546 45.8496 16.2355C46.3322 14.4163 46.7664 12.7162 46.8145 12.4575C46.9358 11.805 46.8979 10.721 46.7357 10.2031C46.3085 8.83991 45.2494 7.83094 43.752 7.36053L43.2852 7.21388L39.9518 7.19777C37.2637 7.18481 36.6137 7.19478 36.5943 7.24945ZM53.5158 7.2431C51.2628 7.57677 49.3435 8.92109 48.4771 10.7723C48.0532 11.678 47.8546 12.5038 47.8566 13.3514C47.8585 14.1086 47.945 14.4773 48.2692 15.1092C48.815 16.1731 49.7699 16.9894 51.74 18.0765C53.645 19.1276 54.2258 19.6551 54.2212 20.3301C54.2191 20.6564 54.0366 21.1459 53.8271 21.3872C53.7399 21.4877 53.5528 21.6293 53.4113 21.7018C52.8918 21.9681 52.7072 21.9811 49.4203 21.9821L46.3743 21.983L46.2962 22.2584C46.1421 22.8022 45.3859 25.6797 45.3859 25.7227C45.3859 25.7469 47.049 25.7576 49.0816 25.7464C52.5841 25.7272 52.8033 25.7204 53.272 25.6174C55.4573 25.1372 56.8889 23.9446 57.7278 21.9055C58.4814 20.0739 58.5408 18.6574 57.917 17.3917C57.3947 16.332 56.5201 15.6 54.324 14.3847C53.0845 13.6988 52.6038 13.3794 52.2757 13.0238C51.9808 12.7042 51.8882 12.4384 51.9678 12.1394C52.0513 11.8256 52.3113 11.463 52.5834 11.2806C53.0546 10.9649 53.0654 10.964 56.1754 10.964H59.0101L59.4914 9.14309C59.7561 8.14162 59.9843 7.29159 59.9985 7.25412C60.0195 7.19871 59.445 7.18722 56.9196 7.19242C55.212 7.19593 53.6802 7.21876 53.5158 7.2431ZM62.8472 7.46149C62.8042 7.61297 62.4536 8.9648 62.0682 10.4655C61.6827 11.9662 60.6425 16.01 59.7566 19.4518C58.8708 22.8936 58.1459 25.7212 58.1459 25.7353C58.1459 25.7494 59.0562 25.7609 60.1689 25.7609C61.2815 25.7609 62.1918 25.752 62.1918 25.7412C62.1918 25.7304 62.8346 23.2217 63.6202 20.1661C66.0701 10.6377 66.9042 7.40214 66.9425 7.27784C66.9691 7.19147 66.8507 7.18601 64.948 7.18601H62.9253L62.8472 7.46149ZM76.5598 7.22107C73.0347 7.57514 70.4073 8.89365 68.3286 11.3516C66.8367 13.1156 65.77 15.4767 65.4338 17.759C65.3341 18.4356 65.3336 19.7703 65.4328 20.3826C65.8209 22.7791 67.2621 24.5471 69.4692 25.3346C70.4981 25.7017 70.686 25.7221 73.2661 25.7468L75.6004 25.7692L76.0978 23.8891L76.5952 22.0092L74.5416 21.9798C72.2506 21.9471 72.2034 21.9407 71.4506 21.5649C70.3732 21.027 69.7378 20.1577 69.5265 18.9327C69.3819 18.0943 69.508 17.011 69.8707 15.975C70.6032 13.8829 72.3422 12.1609 74.5006 11.3903C75.4434 11.0538 75.8035 11.0051 77.55 10.9783L79.1367 10.954L79.4551 9.73901C79.6303 9.07079 79.8535 8.22296 79.9513 7.85503L80.129 7.18601L78.4352 7.19441C77.5035 7.19903 76.6596 7.21099 76.5598 7.22107ZM85.5556 7.2409C83.1826 7.55447 81.1756 9.03469 80.3496 11.0805C79.2707 13.7524 79.8871 15.6189 82.3951 17.2745C82.6804 17.4628 83.343 17.8568 83.8674 18.1499C85.0069 18.7868 85.3648 19.0228 85.7319 19.3794C86.2401 19.8731 86.3413 20.2836 86.1064 20.8985C85.9619 21.2768 85.745 21.5327 85.4342 21.6918C84.9249 21.9525 84.9657 21.9495 81.5708 21.9802L78.3605 22.0092L77.9031 23.7367C77.6516 24.6868 77.4311 25.5323 77.413 25.6155L77.3802 25.7667L81.0806 25.7464C84.592 25.7271 84.8065 25.7205 85.2777 25.617C87.9116 25.0384 89.4869 23.3769 90.2153 20.4088C90.3696 19.7801 90.3672 18.7175 90.2102 18.1339C90.0183 17.4209 89.729 16.9406 89.1123 16.311C88.4636 15.6487 87.859 15.2301 86.3113 14.3719C84.724 13.4916 84.1952 13.0925 84.0055 12.6316C83.8971 12.368 83.9048 12.2433 84.0484 11.9347C84.2105 11.5866 84.502 11.2949 84.8555 11.1272L85.1442 10.9902L88.0798 10.9755L91.0153 10.9607L91.4925 9.15049C91.7549 8.1549 91.9827 7.3056 91.9989 7.2632C92.0244 7.19577 91.6391 7.18685 88.9493 7.19268C87.2559 7.19635 85.7288 7.21802 85.5556 7.2409ZM18.8141 11.0425C19.4883 11.2033 19.8802 11.4938 20.1195 12.0099C20.2369 12.2631 20.2544 12.3683 20.2514 12.8005C20.2472 13.4034 20.1473 13.8059 19.8357 14.4743C19.3883 15.4339 18.7271 16.2676 17.455 17.4758C15.3691 19.457 13.2563 20.9088 11.5001 21.5678C10.6889 21.8721 10.2966 21.9503 9.5697 21.9521C8.82692 21.9539 8.56057 21.8841 8.07839 21.5609C7.61057 21.2475 7.26149 20.5213 7.26149 19.8616C7.26149 17.8998 9.82153 14.7686 13.1031 12.7166C14.6068 11.7764 16.0319 11.2101 17.428 10.998C17.7557 10.9482 18.5219 10.9728 18.8141 11.0425ZM41.32 17.7197C41.3052 17.7701 41.2003 18.1657 41.0869 18.5986C40.9736 19.0314 40.7496 19.8815 40.5891 20.4875C40.4286 21.0936 40.2743 21.678 40.2461 21.7862L40.1949 21.983H38.2871C36.6871 21.983 36.3341 21.9694 36.0991 21.8987C35.2934 21.6568 34.8646 20.9506 35.0045 20.0964C35.1423 19.2549 35.7914 18.4153 36.6229 18.003C37.3495 17.6426 37.4069 17.6352 39.4892 17.6313C41.2352 17.628 41.3454 17.6333 41.32 17.7197Z" fill="white"/>
</svg>
