<svg width="45" height="67" viewBox="0 0 45 67" fill="none" xmlns="http://www.w3.org/2000/svg">
<path fill-rule="evenodd" clip-rule="evenodd" d="M20.5194 0.0231943C20.4918 0.0513003 19.8939 0.149775 19.1907 0.242005C16.2249 0.630908 13.8588 1.46618 11.8782 2.82349C10.0266 4.09253 8.14099 6.35672 6.9851 8.69931C6.72645 9.22364 6.46535 9.68364 6.40511 9.72164C6.24076 9.825 5.99755 9.57194 5.99755 9.29765C5.99755 9.16482 5.95736 9.03096 5.90837 9.00014C5.78994 8.92561 5.69329 9.55696 5.69186 10.4139C5.69084 11.0627 5.66496 11.1404 5.2888 11.6247C5.06769 11.9094 4.41191 12.4968 3.83141 12.9302C2.13389 14.1973 2.27789 13.9536 2.355 15.43C2.39131 16.1257 2.44869 17.1469 2.48244 17.6992C2.55413 18.8736 2.40461 19.4823 1.88772 20.1206C1.5493 20.5386 0.503866 21.1189 0.0891494 21.119C-0.103123 21.1191 -0.0105665 21.2494 0.626082 21.8747C1.27889 22.5158 1.39528 22.6822 1.39528 22.9744C1.39528 23.3308 0.932184 24.4103 0.372343 25.3591L0.0511039 25.9036L0.612377 26.1563C1.44017 26.5288 1.55073 26.7597 1.53876 28.0895C1.53232 28.8075 1.4504 29.5463 1.3017 30.2276C0.83748 32.3549 0.765275 32.995 0.762207 35.016C0.758934 37.1381 0.930957 39.1476 1.35478 41.9384C1.61833 43.6738 2.25682 47.0225 2.61375 48.5414C2.73781 49.0693 2.77719 49.4494 2.72288 49.5948C2.60731 49.904 2.19597 50.2171 1.61946 50.4344C1.35559 50.5339 1.12333 50.6275 1.10339 50.6424C1.08355 50.6572 1.37411 50.9617 1.74924 51.3188C2.51516 52.048 2.72482 52.3868 2.72482 52.8955C2.72482 53.2988 2.63175 53.4342 2.03448 53.9002C1.79547 54.0866 1.59982 54.2776 1.59982 54.3247C1.59982 54.3718 1.79547 54.5273 2.03448 54.6704C3.20325 55.3701 5.22959 57.3861 6.96986 59.5803C8.99568 62.1346 10.0038 63.1919 10.6892 63.4809C10.9759 63.6018 11.0307 63.5902 11.3105 63.3507C11.7434 62.9799 12.2769 62.8261 12.9026 62.8919C13.6375 62.9691 14.1381 63.2552 14.9605 64.0685C16.031 65.1272 17.0478 65.8583 17.9179 66.195C18.1564 66.2872 18.1876 66.2578 18.4201 65.7226C18.5576 65.4064 18.7348 65.1519 18.8177 65.1519C18.8999 65.1519 19.1659 65.3935 19.4089 65.6889C19.6914 66.0322 20.0359 66.3111 20.3644 66.4622C21.079 66.7909 23.0143 67.066 24.0487 66.986C25.8933 66.8434 26.7503 66.7232 27.0512 66.5648C27.234 66.4686 27.7591 65.8716 28.2885 65.158C28.7944 64.4761 29.3118 63.8445 29.4382 63.7544C29.7573 63.5268 30.2599 63.5496 30.5804 63.8062L30.8498 64.0219V63.7656C30.8498 63.4106 31.029 63.2299 32.459 62.1432C35.0374 60.1837 37.9537 57.6193 39.6128 55.853C42.6755 52.5922 44.3108 49.9503 44.8184 47.4429L45 46.5454L44.7638 45.9856C44.6338 45.6775 44.1235 44.5356 43.6299 43.4478C42.5332 41.0312 42.2558 40.1575 42.3356 39.3709C42.4071 38.666 42.8758 37.6257 43.3755 37.0626L43.7536 36.6368L43.5404 36.0566C43.2761 35.3378 43.2583 34.1648 43.4914 32.83C43.6693 31.811 43.7144 29.5804 43.5886 28.0257C43.5159 27.1267 43.5243 27.0601 43.7383 26.8424C43.9205 26.6569 43.9375 26.594 43.825 26.5214C43.7481 26.4719 43.658 26.4305 43.6248 26.4296C43.5222 26.4269 43.3271 25.9112 43.3271 25.6424C43.3271 25.2148 43.6643 24.9707 44.255 24.9707H44.7738L44.5622 24.6968C44.3008 24.3586 44.1814 23.8982 44.0935 22.8888C43.9107 20.7898 42.9319 17.8455 41.0909 13.8569C38.2069 7.60838 36.3457 4.88324 33.7395 3.0932C31.0205 1.22571 26.9782 0.122919 22.4626 0.0166362C21.4215 -0.00793048 20.5471 -0.00491169 20.5194 0.0231943ZM22.9951 12.43C25.5275 12.8809 27.3051 13.9135 28.0728 15.3798C29.0101 17.1695 28.5007 18.2339 26.446 18.7799C24.843 19.2057 24.1165 19.2661 19.5998 19.3486C15.6155 19.4213 15.0522 19.4529 14.2049 19.6499C11.1927 20.3506 10.5566 20.4166 9.60052 20.1276C8.67362 19.8475 8.14528 19.2203 8.14528 18.4002C8.14528 17.8815 8.3981 17.3946 9.67907 15.4459C10.1683 14.7016 10.6459 13.9403 10.7402 13.7543C10.9622 13.3168 11.1669 13.3275 11.6436 13.8013C12.1783 14.3327 12.308 14.1919 12.1543 13.2473C12.0917 12.8632 12.0643 12.5096 12.0932 12.4619C12.1898 12.3029 12.5879 12.374 13.1566 12.6518C14.1534 13.1387 16.0702 13.0823 18.8328 12.4847C19.9795 12.2367 21.7766 12.2131 22.9951 12.43ZM18.4372 22.2474C20.1282 22.8422 21.6832 24.4202 23.0771 26.9557C23.274 27.3138 23.6997 27.9047 24.0231 28.2687C24.3465 28.6327 24.6112 29.0021 24.6112 29.0898C24.6112 29.3362 24.3063 29.8955 24.0632 30.0952C23.5841 30.4885 23.0412 30.1821 22.3614 29.1346C22.0538 28.6606 21.8641 28.51 21.5746 28.51C21.352 28.51 21.3385 28.549 21.3385 29.1913C21.3385 29.776 21.3029 29.9089 21.0874 30.1282C20.8731 30.3463 20.7003 30.3979 20.239 30.3809C20.1969 30.3793 20.1347 30.661 20.1011 31.0067C19.9583 32.4724 18.7607 33.2421 16.4217 33.3718C14.7208 33.4661 13.2424 33.186 12.4332 32.6161C11.865 32.2159 11.6225 31.6837 11.623 30.838C11.6233 30.1163 11.9452 27.3163 12.1331 26.3997C12.5016 24.6027 14.3598 22.7848 16.419 22.2067C17.0889 22.0186 17.8294 22.0336 18.4372 22.2474ZM9.03915 23.9905C9.3883 24.2204 10.0897 25.1654 10.3696 25.783C10.8118 26.7588 10.6622 28.0644 10.0868 28.2503C9.52913 28.4304 8.21145 27.2901 7.89901 26.3568C7.58789 25.4274 7.74079 23.9714 8.1687 23.789C8.34747 23.7129 8.76372 23.8092 9.03915 23.9905ZM18.7817 26.7478C16.7935 27.7904 15.591 27.8245 15.1038 26.8523C14.916 26.4777 14.8492 26.428 14.532 26.428C14.0711 26.428 13.9908 26.6369 14.2884 27.0623C14.6623 27.5967 15.4897 27.9196 16.6179 27.9714C17.8876 28.0296 18.7451 27.8033 19.3037 27.2625C19.6684 26.9094 19.8159 26.5106 19.6254 26.393C19.5833 26.3669 19.2035 26.5266 18.7817 26.7478ZM18.1936 34.4389C18.4988 34.7864 18.5383 35.0205 18.3593 35.4204C18.1757 35.8306 17.7326 35.9529 16.4294 35.9529C14.965 35.9529 14.5355 35.866 14.3164 35.5256C14.1582 35.28 14.1603 35.2475 14.3494 34.984C14.7705 34.3972 15.9676 34.0081 17.1453 34.0752C17.8472 34.1151 17.9362 34.146 18.1936 34.4389Z" fill="white"/>
</svg>
