<svg width="140" height="17" viewBox="0 0 140 17" fill="none" xmlns="http://www.w3.org/2000/svg">
<path fill-rule="evenodd" clip-rule="evenodd" d="M126.495 0.328869C126.658 0.509798 128.333 2.4223 130.218 4.57907L133.645 8.5004L130.218 12.4213C128.334 14.5778 126.658 16.4903 126.496 16.6711L126.2 17H129.419H132.637L136.319 12.7914C138.343 10.4767 140 8.54554 140 8.5C140 8.45446 138.343 6.52335 136.319 4.20861L132.637 0H129.419H126.2L126.495 0.328869ZM5.73677 1.36364C3.30272 1.93051 1.4031 3.53934 0.498514 5.80004C-0.660983 8.69783 0.256247 12.1528 2.68816 14.0477C4.11326 15.1581 5.46815 15.6268 7.24426 15.624C8.88099 15.6215 9.95588 15.2983 11.3059 14.4029C11.9034 14.0067 13.2256 12.7278 13.2256 12.5462C13.2256 12.4693 10.261 10.3214 10.1549 10.3214C10.1225 10.3214 9.90258 10.5285 9.66625 10.7814C9.42991 11.0344 8.96337 11.3759 8.62949 11.5403C7.85124 11.9234 6.82401 11.9568 5.97603 11.6267C5.20361 11.326 4.38091 10.4701 4.08953 9.66369C3.77598 8.79629 3.83316 7.65617 4.22812 6.90109C4.75623 5.89161 5.78316 5.15657 6.87069 5.00964C7.87117 4.87455 9.25611 5.47774 9.87097 6.31641L10.1318 6.6723L11.5085 5.69885C13.4579 4.32043 13.3516 4.47586 12.8029 3.8077C11.9337 2.74904 10.5568 1.85927 9.1894 1.47242C8.35824 1.23726 6.52708 1.17958 5.73677 1.36364ZM20.3253 1.35929C16.9616 2.10061 14.6555 4.98424 14.6555 8.4494C14.6555 11.7294 16.7901 14.5565 19.9363 15.4432C20.7887 15.6834 22.5734 15.6877 23.4375 15.4515C25.9232 14.7722 27.8941 12.7594 28.563 10.217C28.8372 9.17504 28.7908 7.36313 28.4633 6.3244C27.5316 3.36893 24.9609 1.35949 21.9787 1.25557C21.35 1.23371 20.7144 1.27358 20.3253 1.35929ZM95.2259 1.37022C93.1224 1.84511 91.7612 3.37177 91.6401 5.39193C91.5649 6.6474 91.8273 7.49346 92.5215 8.23316C93.3181 9.08215 94.4768 9.59458 97.1142 10.2641C98.8058 10.6934 99.3602 11.1513 98.9995 11.8209C98.7883 12.2128 98.3766 12.3844 97.5473 12.4261C96.2557 12.491 94.7276 12.0017 93.5186 11.1362C93.2813 10.9663 93.0655 10.8274 93.0392 10.8274C92.9217 10.8274 90.9286 13.3676 90.9792 13.4528C91.1083 13.6702 92.5122 14.5621 93.1807 14.8515C94.4907 15.4185 95.325 15.598 96.9152 15.655C98.1804 15.7002 98.4888 15.6787 99.2382 15.4922C101.335 14.9702 102.605 13.6897 102.894 11.8035C103.098 10.479 102.761 9.38056 101.889 8.52246C101.064 7.71112 100.19 7.31941 97.905 6.73827C95.8556 6.21704 95.4678 5.9836 95.5229 5.3043C95.572 4.70151 95.9177 4.50166 96.8987 4.50874C97.7934 4.51532 98.3991 4.69139 99.4439 5.24855C99.8183 5.4483 100.156 5.61263 100.194 5.61385C100.31 5.61759 102.309 3.1106 102.258 3.02529C102.232 2.98158 101.895 2.74105 101.508 2.4908C100.736 1.99102 99.4055 1.48689 98.4227 1.32195C97.5589 1.17695 95.976 1.20093 95.2259 1.37022ZM31.4126 8.39881V15.1786H33.2107H35.0087L35.0343 11.4928L35.0597 7.80705L37.5884 11.4882L40.1171 15.1693L42.1352 15.1739L44.1533 15.1786V8.39881V1.61905H42.4026H40.652V5.42361V9.22827L37.8559 5.42462L35.0597 1.62097L33.2362 1.61996L31.4126 1.61905V8.39881ZM46.8026 1.79401C46.8285 1.89257 47.7832 4.94508 48.9242 8.57741L50.9987 15.1815L53.8698 15.1548L56.741 15.128L58.8573 8.39881C60.0212 4.69777 60.9747 1.65821 60.9761 1.64435C60.9776 1.63048 60.0706 1.61915 58.9606 1.61925L56.9426 1.61945L55.491 6.47639C53.84 12.0011 53.8703 11.9416 53.4442 10.4985C53.3087 10.0394 52.6572 7.86503 51.9966 5.66667L50.7953 1.66964L48.7754 1.64222C46.8827 1.61662 46.7584 1.62613 46.8026 1.79401ZM63.4101 8.39881V15.1786H68.662H73.9139V13.3571V11.5357H70.4126H66.9114V10.7782V10.0207L70.0479 9.99398L73.1845 9.96726L73.2112 8.32292L73.238 6.67857H70.0747H66.9114V5.97024V5.2619H70.4126H73.9139V3.44048V1.61905H68.662H63.4101V8.39881ZM77.5124 8.39881V15.1786H79.263H81.0137V12.7464V10.3141L81.9534 10.3431L82.893 10.372L84.0431 12.7753L85.1931 15.1786H87.1396C88.2101 15.1786 89.086 15.1555 89.086 15.1273C89.086 15.099 88.495 13.8468 87.7726 12.3445C87.0503 10.8423 86.4986 9.6131 86.5464 9.6131C86.7189 9.6131 87.6127 8.69267 87.8973 8.22193C88.3804 7.42303 88.5305 6.78604 88.484 5.73204C88.4495 4.95378 88.3943 4.7009 88.1362 4.14274C87.7931 3.40051 86.9553 2.49111 86.2885 2.13714C85.3859 1.65811 84.9979 1.61905 81.1391 1.61905H77.5124V8.39881ZM105.717 8.39881V15.1786H110.92H116.123V13.3571V11.5357H112.671H109.218V10.7768V10.0179H112.33H115.443V8.34821V6.67857H112.33H109.218V5.97024V5.2619H112.671H116.123V3.44048V1.61905H110.92H105.717V8.39881ZM125.026 5.13542C124.492 5.92855 124.01 6.57738 123.952 6.57738C123.895 6.57738 123.139 6.33027 122.272 6.02812C121.404 5.72607 120.694 5.49677 120.694 5.51852C120.694 5.54028 121.157 6.21896 121.723 7.02677L122.752 8.49535L121.791 9.88904C121.263 10.6556 120.8 11.3367 120.761 11.4025C120.723 11.4684 121.401 11.2748 122.27 10.9725C123.138 10.67 123.896 10.4226 123.954 10.4226C124.012 10.4226 124.494 11.0678 125.027 11.8564L125.995 13.2901L126.021 11.4672L126.048 9.64436L127.699 9.10057C128.607 8.80135 129.35 8.52975 129.35 8.49686C129.35 8.46398 128.617 8.18945 127.721 7.88668L126.092 7.33631L126.044 5.51488L125.995 3.69345L125.026 5.13542ZM22.889 5.26524C23.6328 5.55485 24.2417 6.14904 24.6253 6.96008C24.9064 7.55407 24.945 7.73389 24.945 8.4494C24.945 9.16513 24.9064 9.34474 24.6249 9.93984C24.2763 10.6765 23.7886 11.1799 23.0617 11.5537C22.6881 11.7458 22.4526 11.7858 21.6869 11.7867C20.8735 11.7876 20.7043 11.7556 20.2722 11.5187C17.5945 10.0507 17.9319 6.0688 20.8116 5.15414C21.3034 4.9979 22.3454 5.05365 22.889 5.26524ZM84.6122 5.46429C84.7191 5.5756 84.806 5.79184 84.8052 5.94494C84.8017 6.59286 84.5469 6.67857 82.6248 6.67857H81.0137V5.97024V5.2619H82.7157C84.288 5.2619 84.4324 5.27729 84.6122 5.46429Z" fill="white"/>
</svg>
