<svg width="92" height="38" viewBox="0 0 92 38" fill="none" xmlns="http://www.w3.org/2000/svg">
<path fill-rule="evenodd" clip-rule="evenodd" d="M2.18097 0.134029C1.27975 0.442616 0.641492 1.00607 0.238133 1.84914L0 2.34681V19.0019V35.6569L0.280342 36.2185C0.623058 36.9052 1.12355 37.3917 1.82659 37.7214L2.33242 37.9587L7.42614 37.9794L12.5199 38L12.304 37.7863C11.9488 37.4345 11.9009 37.099 12.0346 35.897C12.1862 34.5331 12.182 34.3311 11.9958 34.0186C11.8739 33.814 11.8577 33.7256 11.921 33.6086C12.0309 33.4052 11.8709 32.9516 11.3359 31.9497C10.9293 31.1882 10.9158 31.1453 11.0066 30.8968C11.0917 30.6636 11.0813 30.5923 10.9015 30.1819C10.7224 29.773 10.6429 29.6864 10.1287 29.3417C9.34527 28.8164 8.83131 28.389 7.60393 27.2419C6.17867 25.91 5.0515 24.4721 3.79869 22.3878C3.57704 22.019 3.35952 21.6926 3.31543 21.6626C3.27134 21.6325 3.13177 21.6073 3.00514 21.6067C2.69478 21.6052 2.56958 21.4877 2.40842 21.0468C2.33355 20.8419 2.04192 20.2168 1.7603 19.6577C1.47876 19.0986 1.17915 18.4376 1.09443 18.1887C0.892491 17.5951 0.894899 16.8317 1.10166 15.8702C1.24183 15.2182 1.30051 15.0784 1.55309 14.7943C1.73073 14.5944 1.84337 14.3927 1.84337 14.2743C1.84337 14.0835 1.83577 14.0809 1.28742 14.0809C0.865104 14.0809 0.695439 14.0495 0.581752 13.9505C0.417429 13.8073 0.166655 13.1088 0.173954 12.8143C0.181854 12.4921 0.608161 11.322 1.05614 10.393C1.29322 9.9013 1.66197 9.07702 1.8755 8.56131C2.57823 6.86401 3.307 5.81383 3.96249 5.55419C4.13464 5.48595 4.56629 5.39431 4.92164 5.35043C5.277 5.30662 5.59985 5.24151 5.6392 5.20567C5.67855 5.16991 5.87101 5.14063 6.06694 5.14063C6.79473 5.14063 6.98373 4.95035 7.10103 4.09932C7.16739 3.61751 7.16115 3.52402 7.05453 3.40735C6.97989 3.32577 6.91835 3.09585 6.89856 2.82526C6.86643 2.38518 6.86952 2.37669 7.092 2.29354C7.31095 2.21166 7.31907 2.1914 7.3521 1.64463C7.39619 0.914511 7.59648 0.516298 8.06883 0.219632L8.4187 0L5.48842 0.00245856C2.90771 0.00454462 2.51315 0.0202645 2.18097 0.134029ZM9.89196 0.158317C10.2032 0.346136 10.7416 0.865712 10.8617 1.09399C11.0045 1.36547 10.9598 2.01036 10.7656 2.47778C10.6676 2.71373 10.6176 2.92524 10.6545 2.94782C10.7848 3.02753 10.7188 3.31258 10.48 3.70282C10.3472 3.91999 10.2032 4.09775 10.1603 4.09783C10.1172 4.09798 9.98052 4.2858 9.85637 4.51519C9.73223 4.74458 9.52058 5.02836 9.38613 5.14592C8.99421 5.48841 9.0489 5.66781 9.63532 5.96246C9.90686 6.09895 10.162 6.27172 10.2024 6.34637C10.2427 6.4211 10.5438 6.66815 10.8714 6.89552C11.199 7.12283 11.5536 7.41063 11.6593 7.53505C12.226 8.20177 12.5033 9.07925 12.5728 10.4254C12.5973 10.8993 12.6985 11.7434 12.7976 12.3012C12.9444 13.1272 13.0402 13.445 13.3142 14.0147C13.6324 14.6761 13.7448 15.0615 13.9727 16.2729L14.0698 16.7886L14.399 16.8969C14.5834 16.9575 14.7433 17.0618 14.7623 17.1337C14.781 17.2045 14.908 17.3151 15.0444 17.3796C15.2286 17.4665 15.352 17.6184 15.5224 17.968L15.7522 18.4392L15.7387 10.4303L15.7251 2.42131L15.5502 2.00552C15.171 1.10389 14.43 0.425629 13.5199 0.14729C13.0999 0.0189235 12.8197 -3.85089e-09 11.3345 0.000298004L9.63066 0.000521511L9.89196 0.158317ZM19.9947 19.016L20.0137 37.2882H23.6628H27.3119L27.3499 26.0012C27.3709 19.7933 27.3964 14.7477 27.4067 14.7886C27.417 14.8296 27.4725 15.1505 27.5301 15.5018C27.6209 16.0562 28.272 18.445 30.0565 24.7719C30.2992 25.6324 30.9428 27.9289 31.4868 29.8753C33.2749 36.2736 33.4543 36.9138 33.5121 37.102L33.5693 37.2882L37.6824 37.3075L41.7955 37.3267V19.0359V0.745019H38.1464H34.4973V11.5105C34.4973 18.6379 34.4719 22.2761 34.4221 22.2761C34.3807 22.2761 34.3466 22.251 34.3464 22.2202C34.3437 21.8794 34.074 20.5699 33.867 19.892C33.7229 19.4208 33.1758 17.5601 32.651 15.7572C31.2266 10.8635 29.8546 6.15811 29.0232 3.31534L28.2824 0.78227L24.1291 0.763049L19.9758 0.743753L19.9947 19.016ZM44.7646 0.838147C44.745 0.889404 44.7376 9.11158 44.7482 19.1097L44.7675 37.2882L50.8619 37.3091C54.3775 37.3211 57.3909 37.2986 57.9833 37.2561C60.8022 37.0536 62.7333 36.2794 64.1965 34.7653C64.8905 34.047 65.2432 33.5366 65.686 32.6093C66.6962 30.4944 67.092 26.9786 66.6547 24.0037C66.2728 21.4048 65.1456 19.6156 63.314 18.7007C62.8652 18.4765 61.7383 18.104 61.5088 18.104C61.2966 18.104 61.2415 17.9516 61.4356 17.9014C61.8488 17.7944 62.9463 17.1951 63.4269 16.8142C64.6191 15.8691 65.3215 14.5494 65.6947 12.5536C65.8109 11.9325 65.8337 11.4369 65.8321 9.5735C65.8303 7.53684 65.8152 7.27034 65.6608 6.57092C65.4433 5.58489 65.1252 4.72633 64.7322 4.0646C64.3098 3.35355 63.2881 2.3626 62.5613 1.95933C61.4419 1.33805 59.9275 0.957424 58.0436 0.823693C56.3874 0.706129 44.8105 0.71872 44.7646 0.838147ZM73.8174 0.949452C73.7684 1.18734 73.1831 4.30971 72.4172 8.41872C72.1232 9.99629 71.7008 12.2593 71.4784 13.4476C71.2562 14.6359 70.8333 16.8989 70.5388 18.4765C70.2444 20.0541 69.8 22.4344 69.5514 23.7661C69.3027 25.0978 68.8961 27.277 68.6477 28.6087C67.7164 33.6025 67.2187 36.2561 67.1485 36.6027C67.1086 36.7994 67.076 37.0427 67.076 37.1435V37.3267L71.2688 37.3074L75.4616 37.2882L75.5154 37.102C75.545 36.9995 75.7423 35.2729 75.9537 33.2651C76.1652 31.2573 76.3541 29.5391 76.3734 29.4469L76.4086 29.2793H79.3603H82.312L82.7051 33.2319C82.9213 35.4058 83.118 37.2162 83.1421 37.255C83.169 37.298 84.9041 37.3255 87.5931 37.3255H92L91.9582 37.0833C91.8871 36.6724 90.6445 30.0914 90.2102 27.8265C89.9886 26.6708 87.4917 13.4831 86.7543 9.5735C86.6151 8.83593 86.2792 7.05906 86.0078 5.62489C85.7364 4.19073 85.4191 2.51444 85.3028 1.8998L85.0913 0.78227L79.4755 0.763198L73.8598 0.744051L73.8174 0.949452ZM79.8311 9.38724C80.3081 13.5751 81.1813 21.0227 81.3722 22.53C81.4132 22.8541 81.4468 23.2145 81.4468 23.3309V23.5426H79.3777H77.3086L77.3087 23.375C77.3087 23.2827 77.459 22.0339 77.6426 20.5998C78.2775 15.6409 78.8104 11.5036 79.0389 9.75975C79.1651 8.79681 79.3085 7.64017 79.3575 7.18943C79.468 6.17479 79.4622 6.14767 79.8311 9.38724ZM57.2573 7.21231C58.3293 7.70067 58.7271 8.75442 58.7218 11.0919C58.7166 13.4017 58.3367 14.3795 57.2361 14.9164L56.7343 15.1611L55.096 15.1861L53.4577 15.211V11.101V6.99096L55.1694 7.01592C56.7672 7.03924 56.9061 7.05235 57.2573 7.21231ZM9.85194 10.8425C9.60613 10.9872 9.34776 11.1728 9.27778 11.2549C9.13182 11.4264 8.2385 13.652 8.23918 13.8426C8.23948 13.9122 8.33473 14.0226 8.45083 14.088C8.74351 14.2528 8.83869 14.4846 9.3759 16.341C9.75653 17.6562 9.83019 17.9942 9.76044 18.1049C9.6925 18.2125 9.71425 18.398 9.86209 18.9738C10.0657 19.7663 10.3067 21.1816 10.38 22.0153C10.468 23.0149 10.6934 23.6484 11.3609 24.7719C11.7248 25.3844 11.8801 25.935 12.1907 27.7133C12.4466 29.1787 12.4693 29.2577 12.7644 29.7062C13.2354 30.422 13.2947 30.6511 13.1573 31.2241C12.9289 32.1761 12.9183 32.3857 13.0595 33.1636C13.1338 33.5733 13.2346 33.9562 13.2835 34.0145C13.3323 34.0728 13.3562 34.229 13.3366 34.3616C13.314 34.5136 13.3817 34.8372 13.5199 35.2376C13.9364 36.4449 13.8725 37.2919 13.3308 37.7445L13.0917 37.9443L13.3926 37.8894C14.1089 37.7585 14.8968 37.1648 15.3335 36.4267C15.7721 35.6855 15.7627 35.8738 15.7626 27.8667L15.7625 20.5253L15.605 20.8404C15.3744 21.3018 14.6503 21.9333 14.1289 22.1277C13.5306 22.3508 12.4331 22.3159 11.9255 22.0578C10.2217 21.1913 9.75533 19.1609 10.9231 17.6937C11.1665 17.3879 11.8013 16.9467 12.1894 16.8137L12.4539 16.723L11.8079 15.3833C11.1178 13.9521 10.9896 13.5322 10.6436 11.5664C10.5405 10.9805 10.4351 10.5793 10.3844 10.5793C10.3374 10.5793 10.0978 10.6977 9.85194 10.8425ZM56.8586 21.2422C57.9704 21.4755 58.5814 22.2073 58.9349 23.7289C59.1205 24.5278 59.1149 28.0349 58.9267 28.8997C58.7564 29.6819 58.5167 30.1571 58.1252 30.4889C57.5831 30.9484 57.254 31.0125 55.2446 31.0497L53.4577 31.0828V26.1207V21.1585H54.9588C55.7844 21.1585 56.6392 21.1962 56.8586 21.2422ZM3.09189 32.37C3.29489 33.0864 3.48637 33.6731 3.51745 33.6737C3.54852 33.6743 3.57388 33.0882 3.57388 32.3711V31.0673H4.02637H4.47886L4.45899 33.4327L4.43913 35.7982L3.93518 35.8202L3.43122 35.8421L3.32649 35.4849C3.26886 35.2884 3.08933 34.6467 2.92757 34.0588L2.63338 32.9898L2.59576 34.394L2.55814 35.7982H2.10671H1.65527L1.63541 33.4327L1.61554 31.0673H2.16915H2.72269L3.09189 32.37ZM7.01842 31.1812C7.41929 31.3401 7.59046 31.655 7.58504 32.2236C7.58023 32.7248 7.42727 33.0996 7.17236 33.2347C7.01465 33.3183 7.01669 33.3231 7.25121 33.4208C7.58986 33.5618 7.73522 33.9391 7.69851 34.5822C7.66781 35.1201 7.54788 35.3551 7.15641 35.6445C6.97026 35.7822 6.8416 35.7982 5.91962 35.7982H4.89057L4.8707 33.4327L4.85084 31.0673H5.79088C6.45894 31.0673 6.81407 31.1002 7.01842 31.1812ZM10.1197 31.1392C10.1197 31.1788 10.3059 32.1918 10.5335 33.3903C10.7611 34.5889 10.9473 35.6293 10.9473 35.7024C10.9473 35.8175 10.8759 35.8354 10.4183 35.8354C9.82808 35.8354 9.85359 35.8602 9.78068 35.2171L9.73178 34.785L9.34264 34.8073C8.98999 34.8276 8.95162 34.8472 8.93371 35.0159C8.9228 35.1183 8.89534 35.3447 8.87262 35.5188L8.83139 35.8354H8.30938C7.93431 35.8354 7.78729 35.8085 7.78729 35.7397C7.78729 35.6202 8.60477 31.2879 8.65141 31.1604C8.69295 31.0468 10.1197 31.0262 10.1197 31.1392ZM5.98154 32.4083V32.9298H6.22983C6.56427 32.9298 6.6587 32.815 6.6587 32.4083C6.6587 32.0017 6.56427 31.8868 6.22983 31.8868H5.98154V32.4083ZM9.34655 32.1103C9.32135 32.1718 9.26326 32.5406 9.21759 32.9298C9.17185 33.3191 9.11647 33.7298 9.09442 33.8425C9.05613 34.0386 9.06741 34.0474 9.35663 34.0474C9.65503 34.0474 9.65834 34.0443 9.62163 33.8052C9.60109 33.672 9.5412 33.2111 9.48845 32.7808C9.43564 32.3506 9.37183 32.0489 9.34655 32.1103ZM5.98154 34.3826V35.0159H6.23954C6.60302 35.0159 6.73394 34.8553 6.73394 34.4097C6.73394 33.8815 6.64312 33.7494 6.27986 33.7494H5.98154V34.3826Z" fill="white"/>
</svg>
