<svg width="98" height="54" viewBox="0 0 98 54" fill="none" xmlns="http://www.w3.org/2000/svg">
<path fill-rule="evenodd" clip-rule="evenodd" d="M33.0786 1.40518C32.6393 2.17366 32.2943 2.81687 32.3119 2.83454C32.3483 2.8711 48.3438 3.89375 48.3673 3.86098C48.3842 3.83735 47.4559 0.327455 47.3805 0.129913C47.3372 0.0164225 46.7215 0.00526721 40.6051 0.00650669L33.8773 0.00790108L33.0786 1.40518ZM57.9076 0.101947C57.7629 0.284693 55.4987 4.27629 55.4987 4.34856C55.4987 4.38823 55.6114 4.42076 55.7492 4.42069C56.1588 4.42061 66.0151 5.12556 66.0465 5.15725C66.0624 5.17321 65.993 5.33651 65.8923 5.52011L65.7091 5.85391L60.6618 6.17688C57.8857 6.35443 55.2851 6.52873 54.8827 6.56421L54.1512 6.62859L52.469 9.56097C51.5439 11.1738 50.7993 12.5057 50.8143 12.5208C50.8293 12.536 53.2099 12.7032 56.1046 12.8926C58.9991 13.0819 61.3849 13.2544 61.4063 13.2758C61.4276 13.2973 61.3573 13.4547 61.25 13.6256C61.0635 13.9223 61.0331 13.9384 60.5699 13.9833C60.3033 14.0092 52.2979 14.5335 42.7802 15.1483C33.2626 15.7632 25.2546 16.294 24.9847 16.3278L24.494 16.3895L23.7346 17.7065C23.317 18.4308 22.9741 19.067 22.9728 19.1202C22.9713 19.1786 23.07 19.2167 23.2208 19.2161C23.5635 19.2148 56.7652 21.3195 56.7916 21.3442C56.8032 21.3551 56.7261 21.517 56.6205 21.7042L56.4281 22.0443L47.0201 22.5951C41.8456 22.898 37.5978 23.1602 37.5805 23.1776C37.5483 23.2098 38.9181 28.4468 38.9746 28.5079C38.9917 28.5263 41.954 28.7215 45.5576 28.9416C49.1611 29.1618 52.1291 29.3616 52.153 29.3856C52.1769 29.4097 52.1164 29.5693 52.0184 29.7404C51.8012 30.1195 52.5689 30.0284 45.3239 30.5353C42.2079 30.7534 39.6444 30.945 39.6272 30.961C39.6101 30.9771 39.8529 32.0027 40.1668 33.2402L40.7376 35.4901L53.1862 35.4648C67.1939 35.4363 66.0525 35.4836 68.6496 34.8252C71.4439 34.1169 74.1405 32.8757 76.1565 31.37C77.0861 30.6758 78.3978 29.3756 79.0446 28.5071C80.627 26.3827 81.3867 23.7162 80.9742 21.7348C80.7155 20.4924 79.8595 19.2741 78.7144 18.5186C78.1139 18.1225 77.2055 17.7264 76.6648 17.625C76.3708 17.5698 76.3891 17.5596 77.4356 17.1926C80.786 16.0178 83.515 14.0025 85.2011 11.4579C86.4139 9.62775 86.8999 8.1076 86.9061 6.12505C86.91 4.90772 86.8263 4.4932 86.3906 3.56862C86.1388 3.0344 85.962 2.79247 85.454 2.28661C84.9187 1.75363 84.6989 1.59924 83.9415 1.2236C82.5682 0.542505 81.3238 0.240924 79.2398 0.0838968C77.6128 -0.0386569 58.0057 -0.0220788 57.9076 0.101947ZM39.0659 7.54968C33.6526 7.89697 29.208 8.19785 29.1889 8.2183C29.0833 8.33164 27.6089 10.9676 27.636 10.9948C27.6669 11.0259 50.5902 12.5566 50.6158 12.5293C50.6226 12.5221 50.3026 11.2786 49.9047 9.76603C49.5068 8.25347 49.1805 6.98974 49.1796 6.95783C49.1787 6.92591 49.1173 6.90391 49.0431 6.90894C48.969 6.91406 44.4792 7.20239 39.0659 7.54968ZM74.1202 7.25112C74.8624 7.71159 75.2536 8.7127 75.0876 9.72729C74.7913 11.5394 73.2697 12.9521 70.9921 13.5297C70.6081 13.6271 69.9709 13.6658 68.2651 13.6955C67.0273 13.717 66.0562 13.7046 66.0777 13.6674C66.0989 13.6307 66.9051 12.2237 67.8694 10.5407C68.8337 8.85772 69.6918 7.36577 69.7763 7.22524L69.9301 6.96976L71.8356 6.99284L73.741 7.01593L74.1202 7.25112ZM66.7628 20.6469C67.9274 21.0641 68.4898 22.3989 68.0752 23.7611C67.6135 25.2774 66.4006 26.4232 64.5555 27.086C63.3713 27.5114 62.6431 27.5921 60.2211 27.5668L58.1217 27.5448L60.1217 24.0588L62.1216 20.5727L63.3387 20.5262C65.1752 20.4559 66.345 20.4971 66.7628 20.6469ZM28.5202 23.8314C23.9627 24.186 20.1472 24.4787 20.0412 24.4818C19.8741 24.4869 19.7426 24.673 19.0498 25.8849C18.6105 26.6534 18.2638 27.295 18.2794 27.3106C18.3003 27.3316 30.6225 28.0416 34.1029 28.2223L34.4828 28.242L35.7824 25.9955C36.4972 24.7599 37.1507 23.6182 37.2348 23.4584L37.3877 23.1679L37.097 23.1774C36.9372 23.1826 33.0776 23.4769 28.5202 23.8314ZM23.4494 32.0662L15.1797 32.6577L14.6199 33.626C14.312 34.1586 13.9464 34.7948 13.8075 35.0398L13.555 35.4853H21.9446H30.3341L31.4698 33.524C32.0944 32.4454 32.6055 31.539 32.6055 31.5099C32.6055 31.4187 31.9296 31.4597 23.4494 32.0662ZM34.9179 47.5702V53.6901H35.92H36.922V53.1626V52.6349L37.3267 53.0121C38.2458 53.8685 39.6042 54.1894 41.0272 53.8864C43.1116 53.4425 44.6523 51.2118 44.5336 48.8097C44.4225 46.5599 42.9195 44.7054 40.8532 44.2687C39.6729 44.0192 38.3521 44.3125 37.4505 45.0244C37.296 45.1464 37.1486 45.2462 37.1229 45.2462C37.0973 45.2462 37.0762 44.3921 37.0762 43.3482V41.4503H35.9971H34.9179V47.5702ZM55.9612 47.5702V53.6901H57.0789H58.1965V47.5702V41.4503H57.0789H55.9612V47.5702ZM13.2195 44.1413C11.092 44.2686 9.27252 45.9213 8.82992 48.1286C8.6783 48.8848 8.67884 49.3609 8.83223 50.1069C9.37612 52.7535 11.9143 54.4393 14.5199 53.8846C14.8112 53.8225 15.3142 53.6413 15.6376 53.4817C16.4169 53.0972 17.3524 52.1733 17.7111 51.434C17.848 51.1519 17.96 50.8991 17.96 50.8724C17.96 50.8457 17.4536 50.8238 16.8348 50.8238H15.7097L15.3725 51.2006C14.8917 51.7382 14.4011 51.9394 13.5663 51.9418C13.0171 51.9435 12.8402 51.9105 12.4721 51.7386C12.2305 51.6257 11.8829 51.3825 11.6994 51.198C11.3606 50.8572 10.9968 50.2314 11.0691 50.1138C11.091 50.0782 12.6999 50.0492 14.6445 50.0492H18.1801L18.2345 49.612C18.4226 48.0995 17.8721 46.5388 16.7634 45.4408C15.8456 44.532 14.5614 44.0611 13.2195 44.1413ZM92.668 44.1766C90.3441 44.4204 88.4896 46.6143 88.4896 49.1195C88.4896 50.5092 88.9542 51.6204 89.9468 52.6056C91.1422 53.7919 92.7932 54.2546 94.3779 53.8472C95.8007 53.4815 97.0412 52.4479 97.5836 51.1762L97.7339 50.8238L96.5611 50.8286L95.3884 50.8333L95.1548 51.1565C95.0057 51.3629 94.7571 51.564 94.4666 51.7134C94.064 51.9203 93.936 51.947 93.3512 51.9454C92.5666 51.9435 92.0319 51.7353 91.4669 51.2118C91.1457 50.9143 90.802 50.3607 90.802 50.1409C90.802 50.0715 91.6672 50.0492 94.3463 50.0492H97.8906L97.9488 49.8361C97.9808 49.7189 98.0037 49.2919 97.9995 48.8871C97.978 46.7631 96.4379 44.7588 94.4634 44.2851C93.8423 44.1361 93.342 44.1058 92.668 44.1766ZM3.70176 44.2807C3.22201 44.4161 2.7374 44.6831 2.3479 45.0269L2.0812 45.2622V44.8669V44.4715H1.0406H0V49.0808V53.6901H1.11344H2.22696L2.2524 50.727C2.27483 48.1162 2.29402 47.7224 2.41404 47.4156C2.89009 46.1982 4.41531 45.8062 5.28301 46.6782C5.87292 47.271 5.88779 47.3661 5.91747 50.727L5.94368 53.6901H7.06313H8.18259L8.15168 50.4946C8.1257 47.8063 8.10034 47.2282 7.9922 46.8523C7.62722 45.5845 6.90589 44.7975 5.73633 44.3912C5.1186 44.1765 4.24002 44.1288 3.70176 44.2807ZM48.7926 44.2667C47.6807 44.5352 46.8646 45.0545 46.1627 45.94C45.0154 47.3873 44.8328 49.7517 45.7267 51.5863C46.0302 52.2092 46.9434 53.1665 47.5342 53.4811C48.0491 53.7552 49.0063 54 49.5634 54C50.507 54 51.7423 53.5288 52.4574 52.8962L52.8008 52.5924V53.1413V53.6901H53.8029H54.805V49.0808V44.4715H53.8029H52.8008V45.0637V45.656L52.3962 45.2738C51.8967 44.8022 51.5599 44.5919 50.9779 44.3881C50.4046 44.1873 49.3612 44.1293 48.7926 44.2667ZM62.4586 44.2784C61.1119 44.5726 60.0053 45.4614 59.3611 46.7663C58.662 48.1823 58.698 50.2043 59.4472 51.6207C59.7524 52.1976 60.452 52.9677 60.9803 53.3084C62.5372 54.3126 64.6041 54.1741 66.0781 52.9668L66.5213 52.6038V53.1469V53.6901H67.5234H68.5255V49.0808V44.4715H67.5234H66.5213V45.0602V45.6491L66.0862 45.2494C65.0899 44.3342 63.7928 43.987 62.4586 44.2784ZM73.3993 44.2766C72.8581 44.4299 72.5671 44.5837 72.1333 44.946L71.7714 45.2482L71.7479 44.8792L71.7244 44.5102L70.703 44.4886L69.6817 44.467V49.0786V53.6901H70.7952H71.9087L71.9322 50.6883C71.9581 47.3643 71.9597 47.3534 72.4798 46.8081C72.9529 46.312 73.571 46.1136 74.2008 46.2555C74.6857 46.3646 75.036 46.6405 75.2616 47.0908C75.5807 47.7275 75.617 48.1249 75.617 50.9826V53.6901H76.7413H77.8655L77.8317 50.4946C77.8028 47.7639 77.7786 47.232 77.6646 46.8384C77.3007 45.5811 76.6579 44.8674 75.4919 44.4264C74.8404 44.18 73.9626 44.1172 73.3993 44.2766ZM82.5928 44.2764C81.8569 44.4395 81.3018 44.6801 80.7296 45.084C79.246 46.131 78.5032 47.8112 78.7086 49.6554C78.9361 51.6998 80.3754 53.3147 82.4439 53.8464C84.1949 54.2965 86.0334 53.6925 87.2301 52.2739C87.5438 51.9021 87.9574 51.1908 88.0621 50.8432L88.1146 50.6689H86.8925H85.6706L85.4338 50.9784C84.9586 51.5998 84.2548 51.9858 83.5971 51.9858C82.8485 51.9858 81.8366 51.4824 81.4478 50.9165C81.0087 50.2772 80.8998 49.9106 80.903 49.0808C80.9053 48.4675 80.9417 48.215 81.0775 47.8687C81.3174 47.2568 81.766 46.7746 82.3755 46.473C82.8254 46.2504 82.9525 46.2229 83.5083 46.2274C83.9151 46.2309 84.2375 46.2781 84.4287 46.3624C84.7815 46.5179 85.3747 47.0516 85.5298 47.3531L85.6415 47.5702H86.8729C87.5501 47.5702 88.1042 47.5535 88.1042 47.533C88.1042 47.4044 87.8001 46.7614 87.5468 46.3547C86.5592 44.7683 84.4208 43.8713 82.5928 44.2764ZM17.8397 44.605C17.8648 44.6807 18.6049 46.7471 19.4846 49.197L21.0839 53.6514L21.7766 53.6724L22.4693 53.6934L23.3172 50.7481C23.7835 49.1281 24.1835 47.8027 24.2061 47.8027C24.2286 47.8026 24.6275 49.1285 25.0925 50.7489L25.9379 53.6952L26.6268 53.6733L27.3157 53.6514L28.9545 49.1583C29.8558 46.6871 30.5951 44.6216 30.5974 44.5683C30.6004 44.495 30.3233 44.4715 29.4573 44.4715H28.3132L27.6897 46.5437C27.3468 47.6835 26.9707 48.939 26.854 49.3339C26.7374 49.7287 26.6169 50.025 26.5863 49.9924C26.5557 49.9597 26.2079 48.7042 25.8135 47.2022L25.0964 44.4715H24.2343C23.6156 44.4715 23.3618 44.4988 23.3354 44.5683C23.3152 44.6216 22.9762 45.8766 22.582 47.3572C22.1879 48.8378 21.8452 50.0299 21.8205 50.0062C21.7958 49.9827 21.4101 48.7364 20.9635 47.2368L20.1514 44.5102L18.9728 44.4888C17.8727 44.4689 17.7972 44.4766 17.8397 44.605ZM14.4127 46.3062C15.126 46.5376 15.8272 47.3315 15.991 48.0931L16.0452 48.3449H13.5339C11.0603 48.3449 11.0227 48.3425 11.0227 48.1874C11.0227 47.9682 11.3609 47.3197 11.6445 46.995C12.2809 46.2666 13.4186 45.9834 14.4127 46.3062ZM40.7885 46.4587C41.3698 46.7209 41.9351 47.327 42.1684 47.9384C42.4068 48.5627 42.4067 49.5991 42.1683 50.2236C41.6676 51.5355 40.3997 52.2134 39.0776 51.8762C38.1447 51.6383 37.4677 51.0056 37.1384 50.0639C36.9146 49.4242 36.9626 48.3939 37.2443 47.7874C37.8803 46.4182 39.4193 45.8412 40.7885 46.4587ZM50.6539 46.2811C51.4995 46.4812 52.1032 46.9817 52.4847 47.799C52.6627 48.1804 52.6851 48.3243 52.6848 49.0808C52.6845 49.8406 52.6623 49.9806 52.4798 50.3726C52.0134 51.3742 51.1613 51.9369 50.103 51.9421C49.3203 51.9459 48.8224 51.7627 48.2926 51.276C47.525 50.5711 47.1957 49.5549 47.405 48.5369C47.6886 47.1572 48.7167 46.2349 50.0259 46.1855C50.1319 46.1815 50.4145 46.2245 50.6539 46.2811ZM64.8044 46.4214C65.3982 46.6446 65.9829 47.2409 66.2123 47.857C66.7796 49.3812 66.2326 51.0446 64.9572 51.6727C63.026 52.6239 60.8996 51.1135 61.0674 48.9097C61.123 48.1801 61.3718 47.5735 61.8161 47.085C62.5987 46.2243 63.6561 45.9895 64.8044 46.4214ZM94.2161 46.3313C94.4437 46.4169 94.7721 46.6093 94.946 46.7589C95.28 47.0462 95.7352 47.8564 95.7352 48.1636V48.3449H93.2301C91.2773 48.3449 90.7249 48.3235 90.725 48.248C90.7252 48.0116 91.2 47.192 91.5124 46.889C92.204 46.2181 93.3089 45.9902 94.2161 46.3313Z" fill="white"/>
</svg>
