<svg width="98" height="35" viewBox="0 0 98 35" fill="none" xmlns="http://www.w3.org/2000/svg">
<path fill-rule="evenodd" clip-rule="evenodd" d="M13.1743 1.01897C10.8507 3.59268 10.0909 4.46064 8.86888 5.93773C5.58179 9.91073 3.43471 13.1876 1.99794 16.4242C-0.278423 21.552 -0.619078 26.079 1.02464 29.3602C1.8834 31.0744 3.38745 32.6269 5.10778 33.5747C6.27519 34.2179 7.96211 34.7249 9.62309 34.9318C10.5102 35.0423 13.0181 35.0138 14.1133 34.8807C17.4085 34.4804 20.8219 33.5607 24.6992 32.0284C26.2584 31.4123 26.8294 31.1682 54.1741 19.4335C88.317 4.78143 98.1756 0.539679 97.9976 0.577771C97.8261 0.614555 97.1725 0.788611 63.2298 9.83751C40.6175 15.8658 31.8409 18.2033 27.7094 19.2979C25.7408 19.8194 24.4323 20.0706 22.5419 20.29C22.2044 20.3291 21.3954 20.3529 20.4598 20.3511C18.7728 20.3479 18.0975 20.2771 16.9374 19.9822C15.3292 19.5733 14.2015 18.9559 13.0696 17.8645C11.4893 16.3408 10.6698 14.5291 10.4745 12.1271C10.3268 10.311 10.7101 7.87932 11.5057 5.58549C12.0891 3.9032 13.1354 1.67157 14.0476 0.163539C14.1021 0.0735675 14.1348 0 14.1204 0C14.106 0 13.6802 0.458564 13.1743 1.01897Z" fill="white"/>
</svg>
