<svg width="127" height="23" viewBox="0 0 127 23" fill="none" xmlns="http://www.w3.org/2000/svg">
<path fill-rule="evenodd" clip-rule="evenodd" d="M108.616 0.83927V1.67854L110.097 1.72247L111.578 1.7664L111.619 5.7216L111.659 9.6768H112.644H113.629V5.6832V1.6896H114.997H116.364V0.8448V0H112.49H108.616V0.83927ZM117.499 0.18816C117.457 0.297677 117.441 2.46021 117.464 4.99369L117.504 9.6L118.453 9.64577L119.403 9.69139L119.413 6.11297C119.42 3.81988 119.474 2.64468 119.563 2.8416C119.682 3.10441 121.074 9.31491 121.074 9.58218C121.074 9.63425 121.542 9.6768 122.112 9.6768H123.151L123.572 7.7952C123.803 6.76039 124.174 5.15328 124.395 4.224L124.797 2.5344L124.838 6.1056L124.878 9.6768H125.939H127V4.8384V0H125.487H123.973L123.82 0.576C123.696 1.03926 123.123 3.66244 122.493 6.6432C122.444 6.87544 122.357 7.0656 122.299 7.0656C122.242 7.0656 121.82 5.49319 121.361 3.5712L120.528 0.0768L119.051 0.0328704C117.949 -2.28882e-09 117.555 0.0393216 117.499 0.18816ZM6.41836 4.21263C4.98376 4.54349 3.83952 5.16956 2.72278 6.23447C1.15827 7.72669 0.490204 9.2931 0.10018 12.3845C-0.0608744 13.6601 -0.0450729 13.9552 0.275668 15.6572C0.742573 18.134 1.32419 19.3619 2.67993 20.7323C3.81855 21.8832 4.48906 22.2849 5.88005 22.6492C9.22663 23.526 12.4953 22.719 14.5376 20.5119C16.2085 18.706 16.9097 16.5696 16.8835 13.3632C16.8571 10.125 16.0956 8.0001 14.3141 6.19361C13.3153 5.18093 12.8819 4.90445 11.5405 4.42352C10.4222 4.02278 7.7232 3.91158 6.41836 4.21263ZM22.3644 4.45839C21.4947 4.63611 20.874 4.98447 20.5284 5.48889C20.0767 6.14768 20.0045 6.42739 19.9027 7.9104L19.8079 9.2928L18.9342 9.33888L18.0606 9.38496V10.5981V11.8111L18.8268 11.8576L19.593 11.904L19.6245 17.1264L19.6559 22.3488L21.4412 22.3921L23.2265 22.4353V17.1313V11.8272H24.366H25.5055V10.5984V9.3696H24.366H23.2265V8.63093C23.2265 7.56495 23.4544 7.33225 24.579 7.25007L25.5165 7.18141L25.473 5.7795L25.4296 4.3776L24.2141 4.35318C23.5455 4.33981 22.7132 4.38712 22.3644 4.45839ZM30.6567 4.45639C29.7461 4.61215 29.094 4.96205 28.733 5.48889C28.2813 6.14768 28.2091 6.42739 28.1073 7.9104L28.0125 9.2928L27.1389 9.33888L26.2652 9.38496V10.5981V11.8111L27.0629 11.8576L27.8606 11.904L27.9005 17.1648L27.9405 22.4256H29.6858H31.4311V17.1264V11.8272H32.5707H33.7102V10.5984V9.3696H32.5707H31.4311V8.61281C31.4311 7.62485 31.8793 7.2192 32.971 7.2192H33.7102V5.76V4.3008L32.5327 4.31892C31.8851 4.32875 31.0408 4.39065 30.6567 4.45639ZM42.6496 4.53074C42.6034 4.57759 42.6855 5.04607 42.8321 5.57184C43.2643 7.12181 45.6634 15.5028 46.5793 18.6624C47.0447 20.2675 47.4583 21.7362 47.4987 21.9264C47.5697 22.2609 47.6289 22.272 49.357 22.272H51.1423L51.8687 18.4704C53.8901 7.89196 53.7373 8.49776 53.9913 10.0608C54.199 11.3392 56.3662 21.7481 56.4858 22.0416C56.6033 22.3301 56.7162 22.344 58.3369 22.272L60.0627 22.1952L61.3744 17.5872C62.0957 15.0528 63.1848 11.2512 63.7943 9.1392C64.4041 7.0272 64.9349 5.10689 64.9741 4.87188L65.0452 4.44472L63.1769 4.48788L61.3083 4.5312L61.1787 4.992C60.7896 6.37486 58.6497 15.5634 58.5557 16.2547C58.4947 16.7028 58.4062 17.0301 58.3589 16.9823C58.3115 16.9344 57.9833 15.4612 57.6295 13.7085C56.5604 8.41328 55.8986 5.16495 55.8136 4.79539C55.7343 4.45087 55.7027 4.44595 53.8106 4.48819L51.888 4.5312L51.4775 6.528C51.2517 7.62624 50.8485 9.5616 50.5815 10.8288C50.3146 12.096 49.9581 13.8931 49.7892 14.8224C49.447 16.7055 49.3823 16.9699 49.2865 16.8731C49.2501 16.8364 48.9819 15.6687 48.6903 14.2783C48.3988 12.888 47.8469 10.368 47.4639 8.6784C47.0809 6.9888 46.7153 5.36448 46.6516 5.0688L46.5357 4.5312L44.6348 4.4885C43.5892 4.46484 42.6959 4.48389 42.6496 4.53074ZM81.8745 6.06213V7.68H83.6271H85.3797L85.3364 6.1056L85.2931 4.5312L83.5838 4.48773L81.8745 4.44426V6.06213ZM67.0859 4.71045C67.0301 4.76667 66.9846 8.77562 66.9846 13.6192V22.4256H68.7319C70.03 22.4256 70.4784 22.3763 70.4762 22.2336C70.4396 19.8247 70.6332 13.9211 70.7622 13.508C71.1428 12.2909 72.6377 11.5539 73.849 11.9865C74.1949 12.1101 74.621 12.4063 74.7955 12.6445C75.099 13.0585 75.1152 13.2881 75.1574 17.7517L75.2018 22.4256H77.0397H78.8773L78.8009 17.3952C78.7257 12.4396 78.719 12.3522 78.3454 11.52C77.8917 10.5095 77.4554 10.0158 76.5326 9.46913C74.6688 8.36474 72.0231 8.76518 71.002 10.3059C70.8398 10.5508 70.6531 10.7514 70.5873 10.7515C70.5214 10.7518 70.4729 9.45607 70.4794 7.872C70.486 6.28807 70.4886 4.90567 70.4852 4.8C70.4808 4.65853 70.0454 4.608 68.8332 4.608C67.9278 4.608 67.1415 4.65408 67.0859 4.71045ZM89.0155 7.5264V9.3696H88.1039H87.1923V10.6197V11.8699L88.0957 11.7871L88.9991 11.7042L89.0453 16.2586C89.0965 21.3129 89.1245 21.4685 90.0791 22.0339C90.5228 22.2966 90.9318 22.3577 92.5481 22.4026L94.4853 22.4565V21.2122V19.968L93.6876 19.9657C92.3665 19.9617 92.4341 20.187 92.4341 15.7881V11.904L93.4597 11.8585L94.4853 11.8132V10.5984V9.38357L93.4597 9.33826L92.4341 9.2928L92.3913 7.488L92.3486 5.6832H90.682H89.0155V7.5264ZM10.0182 7.46465C11.1336 7.79627 12.082 8.78622 12.6607 10.223C13.0122 11.0954 13.1039 11.5933 13.1647 12.9586C13.2825 15.6025 12.7406 17.3677 11.4388 18.5808C10.5129 19.4436 9.8438 19.7101 8.56448 19.7252C7.11697 19.742 6.24941 19.384 5.38625 18.4136C3.14638 15.895 3.27203 10.5978 5.62631 8.2881C6.65569 7.27818 8.33354 6.96361 10.0182 7.46465ZM100.671 8.90741C99.6008 9.10049 98.1421 9.84852 97.435 10.5674C96.0133 12.0127 95.4642 13.8097 95.5841 16.6244C95.6801 18.8767 96.0374 19.8675 97.164 21.0063C99.7056 23.5757 104.297 23.6774 106.782 21.2194C107.629 20.381 108.312 19.3117 108.312 18.8221C108.312 18.6238 108.048 18.5856 106.678 18.5857L105.045 18.5859L104.463 19.1923C103.752 19.933 103.046 20.1889 102.045 20.0689C100.5 19.884 99.3984 18.7564 99.3589 17.3205L99.3473 16.9003L104.095 16.8597L108.843 16.8192L108.814 15.6094C108.763 13.4497 107.901 11.3411 106.616 10.2291C105.396 9.17314 102.621 8.55613 100.671 8.90741ZM81.8745 15.6621V22.272H83.6234H85.3722L85.3327 15.7056L85.2931 9.1392L83.5838 9.09573L81.8745 9.05226V15.6621ZM103.526 11.9639C104.474 12.4066 105.121 13.2892 105.121 14.1412C105.121 14.4247 104.987 14.4384 102.224 14.4384H99.3268L99.4262 14.0928C99.4809 13.9028 99.7076 13.4415 99.9301 13.068C100.677 11.8149 102.202 11.3464 103.526 11.9639ZM34.6546 15.4752L34.6978 17.1264L38.0784 17.1677L41.459 17.209V15.5165V13.824H38.0352H34.6115L34.6546 15.4752Z" fill="white"/>
</svg>
