<svg width="98" height="49" viewBox="0 0 98 49" fill="none" xmlns="http://www.w3.org/2000/svg">
<path fill-rule="evenodd" clip-rule="evenodd" d="M95.797 0.125959C94.6887 0.539591 93.1521 1.64434 92.1388 2.75586C90.8912 4.1244 89.9943 5.70919 88.7696 8.70874C87.7388 11.2335 87.1868 12.1915 86.0811 13.3754C85.3098 14.201 84.2356 14.944 83.3347 15.2751C81.9119 15.7978 79.6963 15.5457 77.5176 14.6134C75.3446 13.6835 73.6899 12.5379 70.5143 9.76469C64.6459 4.63969 60.7646 2.38609 56.7087 1.74858C56.3101 1.68598 56.2056 1.58667 55.795 0.880773C55.5399 0.442375 55.2815 0.0836964 55.2207 0.0836964C55.16 0.0836964 54.8655 0.333207 54.5666 0.638163C54.2676 0.94312 53.9751 1.19263 53.9164 1.19263C53.8579 1.19263 53.6332 0.968133 53.417 0.69361C53.1962 0.413296 52.9392 0.211101 52.8305 0.23217C52.724 0.252747 52.4358 0.629785 52.1902 1.07003C51.8489 1.68118 51.5726 1.98847 51.0204 2.37056C50.3858 2.80946 50.2795 2.94265 50.1514 3.45781C50.0431 3.89387 49.862 4.17924 49.4469 4.56798C48.7492 5.22139 48.7293 5.52597 49.3478 6.07736C51.5371 8.02896 51.3187 7.88197 51.9047 7.79904C53.4747 7.57676 53.469 7.57664 54.0344 7.86903C54.698 8.2123 54.9224 8.78784 54.6299 9.39652C54.477 9.71491 54.4015 9.75237 53.9701 9.72366C53.7023 9.70579 52.849 9.68164 52.074 9.67006C50.8683 9.65195 50.563 9.68904 49.9584 9.9277C48.7554 10.4024 48.1531 11.0852 48.1531 11.9739C48.1531 12.9215 48.992 13.7605 49.9392 13.7605C50.5233 13.7605 50.7764 13.5351 50.8939 12.9097C50.9862 12.4185 51.1723 12.1588 51.4322 12.1588C51.5345 12.1588 52.341 12.4874 53.2245 12.889C55.7371 14.0313 56.2318 14.1762 57.649 14.1845C59.0642 14.1929 59.8292 13.9314 60.5362 13.1979C60.7606 12.9652 61.041 12.7748 61.1596 12.7748C61.2782 12.7748 62.0535 13.4264 62.8824 14.2226C63.7112 15.0189 64.6648 15.8722 65.0013 16.119C67.1801 17.7162 69.5777 18.4346 73.5328 18.675C75.5764 18.7992 76.2829 19.0149 77.432 19.8656C78.5441 20.6889 79.0579 21.4823 80.0654 23.9324C80.7289 25.5459 81.3229 26.6013 82.3027 27.9076C83.5598 29.5838 84.6342 30.7269 85.8915 31.7261C86.5317 32.2349 87.083 32.6746 87.1167 32.7034C87.1504 32.7321 87.214 33.5412 87.258 34.5014C87.3454 36.4089 87.573 37.3131 88.1612 38.0885C88.5965 38.6624 89.4058 39.0451 90.0808 38.9962L90.6088 38.958L90.6742 37.6026C90.7102 36.8572 90.8084 36.0867 90.8924 35.8906C91.0277 35.5744 91.0094 35.4694 90.7315 34.9664C90.0968 33.818 89.9073 33.3011 89.8508 32.5647C89.7666 31.4663 89.6356 31.228 88.7734 30.6043C88.1703 30.168 87.8918 29.8548 87.5327 29.2091L87.0697 28.3765L87.038 26.7056C86.9646 22.8564 86.3182 19.8187 85.2756 18.4234C85.0078 18.0649 84.7887 17.7085 84.7887 17.6312C84.7887 17.5541 85.1706 17.2053 85.6375 16.8562C86.5383 16.1826 87.3532 15.3324 87.7776 14.6234C87.9197 14.3865 88.4019 13.3495 88.8495 12.3192C90.9036 7.59118 91.7353 6.60916 95.2035 4.8165C96.0224 4.39326 96.8238 3.87711 97.117 3.58423C97.7226 2.979 98.0825 2.02347 97.9838 1.28295C97.8496 0.276774 96.8335 -0.260936 95.797 0.125959ZM0 37.1068V49H3.24697H6.49393V45.9812V42.9625L10.0779 42.9605C13.5596 42.9585 13.6755 42.9505 14.1427 42.6833C14.4425 42.5116 14.7309 42.2035 14.9085 41.865L15.1934 41.3219L15.1907 34.1025C15.1881 27.3283 15.1739 26.8518 14.9599 26.3779C14.8345 26.1001 14.5462 25.7397 14.3194 25.577L13.9068 25.2811L6.95341 25.2474L0 25.2136V37.1068ZM17.4276 36.4847C17.4599 47.6446 17.4624 47.7531 17.7128 48.0901C17.8517 48.2772 18.1176 48.5446 18.3037 48.6843C18.6353 48.9333 18.7697 48.9384 24.9955 48.9384C31.2214 48.9384 31.3558 48.9333 31.6873 48.6843C31.8735 48.5446 32.1393 48.2772 32.2783 48.0901C32.5286 47.7531 32.5312 47.6446 32.5634 36.4847L32.596 25.2195H29.3471H26.0983V35.2697C26.0983 42.2332 26.0576 45.3962 25.9659 45.5685C25.893 45.7054 25.6449 45.8965 25.4146 45.9933C25.0514 46.1458 24.9396 46.1458 24.5765 45.9933C24.3461 45.8965 24.098 45.7054 24.0251 45.5685C23.9335 45.3962 23.8928 42.2332 23.8928 35.2697V25.2195H20.644H17.395L17.4276 36.4847ZM35.8392 25.5173C35.5696 25.6811 35.2388 25.9999 35.104 26.2257C34.8645 26.6273 34.8582 26.8864 34.8257 37.8182L34.7927 49H38.0421H41.2916V38.9059V28.8116L41.6088 28.4326C42.0263 27.9337 42.7422 27.8992 43.1963 28.356L43.4971 28.6583V38.8292V49H46.7441H49.991V38.9499C49.991 28.6031 49.992 28.5808 50.4705 28.2114C50.8305 27.9335 51.5649 28.0201 51.8961 28.3795L52.1965 28.7055V38.8528V49H55.4435H58.6905V37.9057C58.6905 27.097 58.6842 26.7993 58.4482 26.3339C58.3149 26.0713 58.0255 25.7269 57.805 25.5687L57.4039 25.2811L46.8666 25.2503L36.3293 25.2195L35.8392 25.5173ZM61.9951 25.4756C61.7574 25.6153 61.4266 25.9296 61.26 26.174L60.9572 26.6184L60.924 37.8091L60.8909 49H64.1403H67.3899V45.9812V42.9625H68.4926H69.5954V45.9812V49H72.8423H76.0893V37.8985C76.0893 25.543 76.1403 26.2925 75.2546 25.6131L74.822 25.2811L68.6248 25.2513C62.5594 25.2221 62.4183 25.2269 61.9951 25.4756ZM8.3822 28.4326L8.69942 28.8116V34.0825V39.3533L8.39898 39.6793C8.13298 39.9679 8.00641 40.0053 7.29624 40.0053H6.49393V34.0294V28.0535H7.27945C8.00616 28.0535 8.08875 28.0818 8.3822 28.4326ZM69.2724 28.3783L69.5954 28.7032V34.3542V40.0053H68.4926H67.3899V34.3895V28.7738L67.748 28.4136C68.2224 27.9365 68.8193 27.9227 69.2724 28.3783Z" fill="white"/>
</svg>
