<svg width="112" height="22" viewBox="0 0 112 22" fill="none" xmlns="http://www.w3.org/2000/svg">
<path fill-rule="evenodd" clip-rule="evenodd" d="M97.7324 0.0690881C97.7018 0.107114 95.1045 4.49857 91.9608 9.82797L86.2449 19.5178L86.4824 19.928L86.7198 20.3383L86.8636 20.2462C86.9427 20.1957 88.5783 19.125 90.4985 17.867L93.9896 15.5797L96.0711 12.0525L98.1527 8.52519L98.4148 4.38698C98.559 2.11094 98.6763 0.192783 98.6754 0.124359C98.674 0.00602448 98.6524 0 98.231 0C97.9439 0 97.7685 0.024319 97.7324 0.0690881ZM99.5712 0.0414529C99.5699 0.0642796 99.6748 1.97316 99.8043 4.28346L100.04 8.48402L102.118 12.049L104.195 15.6139L107.794 17.9905C109.773 19.2977 111.421 20.3731 111.457 20.3803C111.492 20.3875 111.629 20.2074 111.761 19.9801L112 19.5669L106.279 9.78359L100.557 0.000331623L100.066 0.000165811C99.795 5.52705e-05 99.5725 0.0186261 99.5712 0.0414529ZM0.0373331 7.19898C0.0168673 8.45295 0.000112449 12.1837 5.62245e-05 15.4895L0 21.5002H1.65823H3.31646L3.33091 17.8243L3.34536 14.1484L6.69071 17.8209L10.0361 21.4934L12.1342 21.4968L14.2323 21.5002L13.5117 20.7126C11.0108 17.979 8.06613 14.74 8.05444 14.7098C8.04685 14.6903 8.41371 14.6725 8.86969 14.6703C10.0985 14.6644 10.9593 14.4211 11.8463 13.829C13.2115 12.9176 13.9283 11.2083 13.721 9.359C13.4609 7.04068 12.0807 5.65677 9.51616 5.14303C8.55669 4.9508 7.78006 4.92001 3.8746 4.91957L0.0744974 4.91907L0.0373331 7.19898ZM42.2245 11.4824C42.2244 15.0619 42.2077 18.7926 42.1873 19.773L42.1502 21.5555H42.4841C42.6744 21.5555 42.8657 21.523 42.9289 21.4801C43.1076 21.3587 44.2046 20.7817 44.2569 20.7817C44.2831 20.7817 44.4257 20.8672 44.5738 20.9718C44.9986 21.2718 45.8567 21.6531 46.4695 21.8143C46.991 21.9513 47.1173 21.9623 48.2125 21.966C49.7149 21.9711 50.4162 21.8393 51.39 21.3687C52.7621 20.7058 53.6189 19.6939 54.0631 18.2116C54.2027 17.7458 54.2159 17.6035 54.2703 15.9732C54.3625 13.2096 54.2466 12.2347 53.6951 11.137C52.9249 9.60407 51.428 8.59577 49.5492 8.34457C48.8235 8.24757 47.5611 8.30057 46.9756 8.45262C46.5014 8.57577 45.9272 8.81802 45.6507 9.01157L45.4856 9.12714V7.05074V4.97434H43.8551H42.2246L42.2245 11.4824ZM69.7557 9.21635C69.7352 11.5191 69.7184 15.2498 69.7184 17.5069L69.7184 21.6108H71.3489H72.9794L72.9865 19.3032C72.9904 18.0341 73.0094 16.7238 73.0287 16.3916L73.0637 15.7876L75.7284 18.6992L78.3931 21.6108H80.4459C82.3965 21.6108 82.4944 21.6059 82.412 21.514C82.3644 21.4608 80.9813 19.9506 79.3386 18.158C77.6958 16.3654 76.3584 14.8791 76.3665 14.8551C76.3746 14.8312 77.6842 13.3654 79.2767 11.5978C80.8691 9.83024 82.1805 8.36303 82.1908 8.33733C82.2011 8.31163 81.3012 8.29057 80.1909 8.29057H78.1723L77.3609 9.18993C76.9147 9.68455 75.7653 10.9666 74.8067 12.0389L73.0637 13.9886L73.0493 9.50912L73.0349 5.02961H71.414H69.7931L69.7557 9.21635ZM7.73087 7.79291C8.13287 7.82099 8.61359 7.88328 8.79913 7.93126C10.375 8.33871 11.001 9.37553 10.588 10.8939C10.4725 11.3188 10.1683 11.6943 9.76074 11.9152C9.05917 12.2954 8.28209 12.3756 5.27104 12.3786L3.31724 12.3806V10.0592V7.73787L5.1586 7.7398C6.17137 7.74091 7.32886 7.76478 7.73087 7.79291ZM20.044 8.2164C18.3581 8.34988 17.0405 8.89556 16.0995 9.85019C15.4464 10.5128 15.0802 11.1737 14.8285 12.1444C14.7076 12.6103 14.7027 12.7248 14.7027 15.0612C14.7027 17.425 14.7063 17.5063 14.8319 17.9629C15.0089 18.6066 15.3906 19.3456 15.812 19.8604C16.716 20.9648 18.1806 21.6987 19.8669 21.8924C20.5535 21.9712 21.9049 21.9275 22.6301 21.8029C24.4795 21.4852 25.7567 20.5674 26.3462 19.1326C26.4915 18.779 26.6504 18.1084 26.6504 17.8488V17.6865H25.1671H23.6838L23.623 17.9241C23.4913 18.4384 23.0682 18.8247 22.4158 19.0264C22.0639 19.1351 21.8923 19.1511 21.0842 19.1503C20.0776 19.1492 19.7093 19.0842 19.1288 18.8048C18.3603 18.4349 17.8831 17.5057 17.8803 16.3739L17.8794 15.9732H22.3211H26.7629L26.7619 14.7434C26.7608 13.3607 26.7027 12.6662 26.5345 12.025C26.054 10.1939 24.6054 8.88318 22.5295 8.40133C21.7955 8.23093 20.798 8.15676 20.044 8.2164ZM33.0345 8.32456C30.829 8.71593 29.3236 9.84881 28.7083 11.5801C28.39 12.4757 28.3652 12.727 28.3652 15.0612C28.3652 16.9412 28.3784 17.2767 28.468 17.6857C28.6901 18.6987 29.0817 19.4453 29.7642 20.1566C30.6742 21.1051 31.8544 21.6767 33.3452 21.891C33.945 21.9773 35.9095 21.925 36.4881 21.8075C37.1038 21.6824 37.5785 21.5182 38.1483 21.2331C38.5487 21.0328 38.7547 20.8814 39.1351 20.5077C39.5349 20.115 39.6598 19.9472 39.8772 19.5105C40.1509 18.9604 40.2831 18.5364 40.3467 18.0044L40.3846 17.6865H38.887C37.4985 17.6865 37.3892 17.6936 37.388 17.7833C37.3859 17.9506 37.1653 18.3699 36.9784 18.562C36.1684 19.3947 33.7387 19.4483 32.5686 18.6592C31.98 18.2622 31.6605 17.5632 31.6124 16.5673L31.5837 15.9732H36.0088H40.4339L40.412 14.246C40.3869 12.2725 40.3509 12.0571 39.8909 11.1276C39.1291 9.5881 37.7158 8.64607 35.6744 8.31727C35.0357 8.21435 33.6336 8.21828 33.0345 8.32456ZM60.4694 8.39807C58.13 8.80785 56.6156 10.1574 56.0934 12.2977C55.9787 12.768 55.9721 12.9244 55.9736 15.1717L55.9751 17.5484L56.1281 18.1006C56.5078 19.4711 57.2537 20.4563 58.4348 21.1472C60.2034 22.1818 63.139 22.2894 65.0896 21.3913C65.6779 21.1204 65.9985 20.9038 66.4779 20.4534C67.3322 19.6507 67.8258 18.6205 67.9715 17.3365C68.0458 16.6812 68.0478 13.4409 67.9741 12.8833C67.6464 10.4013 65.9994 8.79618 63.3465 8.37325C62.6297 8.25896 61.1929 8.27139 60.4694 8.39807ZM21.828 11.0535C22.2624 11.1854 22.8089 11.528 23.0211 11.8015C23.2847 12.1412 23.4465 12.5657 23.5049 13.0705C23.5352 13.3334 23.5455 13.5718 23.5276 13.6002C23.5082 13.631 22.3764 13.6518 20.7137 13.6518C18.1841 13.6518 17.9289 13.6436 17.8966 13.5609C17.8344 13.4016 17.9831 12.5476 18.1266 12.2393C18.43 11.5877 19.0816 11.1234 19.9103 10.9683C20.4571 10.866 21.3394 10.9051 21.828 11.0535ZM35.3393 11.0291C36.5503 11.3381 37.2177 12.1463 37.2199 13.3064L37.2206 13.6518H34.4094H31.5982V13.383C31.5982 12.2023 32.2666 11.3315 33.4036 11.0309C33.8205 10.9207 34.9106 10.9197 35.3393 11.0291ZM49.1143 11.1939C50.2132 11.4713 50.8522 12.1685 51.0005 13.2519C51.0396 13.5368 51.0537 14.3467 51.0387 15.4333C51.0169 17.0183 51.0048 17.1917 50.8934 17.5254C50.5455 18.5678 49.5781 19.1757 48.2637 19.178C47.7277 19.179 47.0631 19.0265 46.6577 18.8096C46.2622 18.598 45.8033 18.0929 45.6567 17.7079C45.4543 17.1762 45.4139 16.6288 45.4433 14.8173C45.4679 13.2933 45.4823 13.0911 45.5892 12.7652C45.8608 11.9371 46.4183 11.4381 47.341 11.1973C47.7557 11.0891 48.692 11.0873 49.1143 11.1939ZM62.846 11.1927C63.8309 11.421 64.4908 12.0589 64.6879 12.9731C64.8017 13.5012 64.803 16.7256 64.6896 17.2516C64.4126 18.5364 63.3419 19.2421 61.7907 19.1623C60.5935 19.1007 59.7409 18.5678 59.3637 17.6452C59.2375 17.3367 59.2332 17.2682 59.2158 15.3201C59.1964 13.1477 59.2143 12.9534 59.4848 12.3912C59.7684 11.8016 60.3061 11.394 61.0598 11.1973C61.4641 11.0918 62.4003 11.0894 62.846 11.1927ZM91.0218 19.1595L87.1649 21.0721L87.3936 21.4705L87.6225 21.869L94.8209 21.9056C98.78 21.9258 103.947 21.9423 106.304 21.9424H110.589L110.821 21.5512C110.949 21.3361 111.045 21.1533 111.034 21.145C110.998 21.1163 108.69 19.9574 105.978 18.6059L103.245 17.2444L99.0621 17.2457L94.8788 17.247L91.0218 19.1595Z" fill="white"/>
</svg>
