<svg width="126" height="30" viewBox="0 0 126 30" fill="none" xmlns="http://www.w3.org/2000/svg">
<path fill-rule="evenodd" clip-rule="evenodd" d="M5.11048 0.0443436C4.55371 0.130171 3.59534 0.455259 3.15934 0.706139C2.26438 1.22117 1.60061 2.02035 1.29932 2.94571C1.16048 3.37214 1.13961 3.55614 1.14283 4.32885C1.14716 5.36307 1.24555 5.70664 1.72513 6.3619C2.32668 7.18373 3.34432 7.76775 5.30741 8.41773C7.29262 9.07504 7.86744 9.48529 7.86744 10.245C7.86744 10.859 7.59247 11.3176 7.04692 11.6137C6.81652 11.7388 6.68385 11.7558 5.96383 11.7525C5.24905 11.7492 5.07143 11.7251 4.58535 11.5646C3.90077 11.3386 2.76956 10.7758 2.04507 10.3009L1.50359 9.94586L1.09162 10.5861C0.865029 10.9383 0.526711 11.4632 0.339828 11.7525L0 12.2786L0.503933 12.6342C1.16967 13.104 2.70156 13.8538 3.42034 14.0617C4.5331 14.3835 5.05042 14.448 6.2264 14.4119C7.80259 14.3635 8.79464 14.0587 9.67181 13.3536C10.5975 12.6094 11.0393 11.6906 11.1275 10.3256C11.2227 8.85156 10.7168 7.87537 9.40143 6.99504C8.73589 6.54967 7.93453 6.18879 6.48896 5.68353C5.29697 5.26694 4.95097 5.09152 4.65729 4.75515C4.46627 4.53635 4.32239 4.16637 4.32462 3.89971C4.32823 3.45196 4.82849 2.89097 5.3636 2.73444C6.22226 2.48336 7.37467 2.73279 8.97213 3.51553C9.45342 3.7513 9.85501 3.93424 9.86466 3.92196C9.94074 3.8255 11.1495 1.56065 11.1495 1.51457C11.1495 1.41884 10.0563 0.863731 9.34491 0.598195C8.30705 0.210915 7.44386 0.0356288 6.42332 0.00512707C5.93593 -0.00946359 5.34515 0.00816405 5.11048 0.0443436ZM18.7854 0.439744C16.2021 0.671478 14.0388 2.14368 13.0119 4.36879C12.2218 6.08078 12.2369 8.30365 13.0505 10.0499C13.3724 10.7408 13.6291 11.1169 14.1651 11.6829C15.4361 13.0253 17.0892 13.7663 19.0717 13.8822C20.2345 13.9502 21.2349 13.6999 22.5548 13.0106L23.2276 12.6593V13.1155V13.5718H24.8359H26.4441V7.13474V0.697688H24.8359H23.2276V1.12683C23.2276 1.36285 23.2123 1.55596 23.1936 1.55596C23.1749 1.55596 22.863 1.40623 22.5005 1.22328C21.6513 0.794673 20.8423 0.524845 20.1442 0.437301C19.8383 0.398943 19.5429 0.371676 19.4878 0.376694C19.4327 0.381645 19.1166 0.410034 18.7854 0.439744ZM62.0309 0.473613C59.7379 0.860232 57.8658 2.25341 56.8948 4.29584C56.328 5.48798 56.1193 6.66798 56.2472 7.95684C56.3344 8.83545 56.5099 9.48285 56.8656 10.2377C57.2366 11.0252 57.5606 11.4929 58.152 12.0949C58.9269 12.8838 59.8775 13.4732 60.8949 13.7957C64.2658 14.8644 67.7819 13.5156 69.3954 10.5348C70.6492 8.21855 70.4297 5.21782 68.8534 3.12713C67.3094 1.07929 64.6269 0.0358929 62.0309 0.473613ZM48.7397 0.53904C46.8667 0.879378 45.2691 1.93756 44.264 3.50358C43.2487 5.08532 42.914 6.91648 43.2925 8.81828C43.8992 11.8662 46.4447 14.0489 49.5829 14.2119C51.6742 14.3205 53.4043 13.6529 54.8814 12.1673L55.4722 11.5731L54.4204 10.5153L53.3686 9.45737L52.865 9.91958C51.9611 10.749 51.2838 11.0645 50.3011 11.1138C49.5655 11.1507 49.0959 11.0569 48.4893 10.7516C47.6392 10.3239 46.9616 9.44628 46.6907 8.42216C46.6156 8.13787 46.5775 7.74782 46.578 7.26679C46.5787 6.65378 46.6064 6.45823 46.7559 6.01239C46.9823 5.33699 47.1901 4.98107 47.628 4.5182C48.243 3.86822 49.0327 3.53877 49.9793 3.53739C50.9947 3.53587 51.7855 3.87845 52.7024 4.71712C52.9953 4.9851 53.2576 5.17821 53.2851 5.14626C53.3125 5.11424 53.7296 4.6573 54.2119 4.13079C54.6941 3.60427 55.148 3.10594 55.2206 3.02335L55.3524 2.87322L54.9292 2.44098C53.8848 1.37434 52.7544 0.780413 51.2974 0.532702C50.5815 0.411025 49.4285 0.413864 48.7397 0.53904ZM29.1489 5.13761L29.1686 9.44548L29.3814 10.0784C29.8449 11.4569 30.7625 12.4848 32.1185 13.1442C33.1703 13.6557 34.5463 13.9017 35.6114 13.7686C36.1941 13.6957 37.066 13.4153 37.6834 13.1021C37.8899 12.9974 38.0722 12.9116 38.0884 12.9116C38.1047 12.9116 38.1385 13.1047 38.1636 13.3407L38.2093 13.7699H39.6457H41.0822V7.2998V0.829731H39.2771H37.4719L37.4706 4.57643C37.4699 6.73565 37.4413 8.51808 37.4032 8.78323C37.2752 9.67425 36.8317 10.3136 36.1032 10.6571C35.7832 10.808 35.647 10.8319 35.1088 10.8312C34.6106 10.8307 34.4235 10.802 34.1783 10.6886C33.799 10.5131 33.3138 10.0709 33.1022 9.70779C32.747 9.09808 32.7472 9.10118 32.7464 4.8075L32.7457 0.829731H30.9375H29.1292L29.1489 5.13761ZM72.1965 7.33281V13.8359H74.0016H75.8068L75.8076 9.85811C75.8082 6.7507 75.8275 5.80812 75.896 5.55024C76.1599 4.55675 76.8313 3.93497 77.787 3.7991C79.0725 3.61635 80.2161 4.47733 80.4615 5.81261C80.5078 6.06454 80.533 7.54718 80.533 10.0188V13.8359H82.3421H84.1513L84.1278 9.62704C84.105 5.53453 84.1004 5.40361 83.9601 4.89003C83.5376 3.34289 82.6347 2.25968 81.1566 1.52645C80.2999 1.10147 79.5708 0.906909 78.6294 0.852046C77.5539 0.789326 76.6758 0.98587 75.5951 1.53127C75.3523 1.65381 75.1382 1.75403 75.1192 1.75403C75.1002 1.75403 75.0847 1.54606 75.0847 1.29188V0.829731H73.6406H72.1965V7.33281ZM84.9915 1.10926C85.0234 1.19159 86.2328 4.109 87.6792 7.59247L90.3088 13.9261L90.1348 14.2476C89.7482 14.9621 89.2479 15.2153 88.4643 15.093C88.0328 15.0257 87.2979 14.7642 87.112 14.6118C87.066 14.5741 87.0098 14.562 86.9871 14.5848C86.9643 14.6077 86.6865 15.1987 86.3696 15.8982L85.7934 17.17L85.9366 17.2826C86.148 17.449 86.9858 17.7902 87.5528 17.9409C88.1764 18.1066 89.6954 18.1422 90.248 18.004C91.4414 17.7056 92.3476 16.8766 93.072 15.4204C93.2256 15.1117 94.5449 11.7569 96.0038 7.96522C97.4626 4.17357 98.6717 1.04615 98.6905 1.01545C98.7094 0.984748 97.9065 0.967583 96.9064 0.977222L95.0879 0.994783L93.5705 5.36346C92.736 7.76617 92.036 9.74918 92.0151 9.77011C91.9942 9.79104 91.2225 7.82513 90.3003 5.40143L88.6234 0.994783L86.7784 0.977222L84.9335 0.959726L84.9915 1.10926ZM21.0037 3.48497C21.6445 3.72244 22.0281 3.97002 22.508 4.45574C23.2395 5.19604 23.6223 6.11723 23.6205 7.1321C23.6174 8.85255 22.5823 10.2956 20.963 10.837C19.4979 11.3268 18.0073 10.9742 16.92 9.88063C15.512 8.46434 15.363 6.40046 16.5546 4.81635C17.0616 4.14227 17.9054 3.58605 18.7465 3.37141C19.3275 3.22319 20.4495 3.27958 21.0037 3.48497ZM63.9388 3.543C65.2044 3.80649 66.2606 4.84342 66.6522 6.20682C66.8011 6.72502 66.8039 7.78175 66.6581 8.35613C66.3188 9.6922 65.3462 10.707 64.1225 11.0018C63.2586 11.21 62.1852 11.0547 61.4337 10.6129C61.0042 10.3605 60.3789 9.69597 60.1316 9.22933C59.6877 8.39179 59.5352 7.14254 59.7598 6.18424C60.0573 4.91512 61.0617 3.86716 62.2605 3.57528C62.7328 3.46034 63.4733 3.44608 63.9388 3.543ZM112.468 10.6012C110.443 10.7861 108.858 11.4717 106.009 13.3953C105.417 13.795 104.409 14.5106 103.77 14.9857C99.1561 18.4152 97.6403 19.4345 95.8604 20.3052C91.5437 22.4165 87.3306 22.8277 80.3178 21.8221C74.9865 21.0575 67.8582 19.5806 59.5731 17.5241C57.0083 16.8874 56.8891 16.8641 56.768 16.9743C56.6147 17.1138 56.6343 17.2133 56.9685 17.9903L57.212 18.5564L57.697 18.7612C60.2596 19.8434 67.8115 22.6152 72.7216 24.2758C82.5339 27.5942 89.4873 29.4494 93.8628 29.9164C97.0912 30.2609 99.7736 29.5592 103.211 27.4711C104.781 26.5172 106.057 25.5905 109.35 23.0135C111.767 21.1219 112.511 20.5638 113.682 19.7649C116.435 17.8868 118.466 16.9984 120.607 16.735C121.081 16.6768 121.803 16.6681 123.2 16.7038C125.47 16.7617 125.601 16.7594 125.764 16.6571C125.958 16.5354 126.056 16.2389 125.967 16.0428C125.842 15.767 123.498 14.2868 121.437 13.1818C117.774 11.2182 114.868 10.3821 112.468 10.6012ZM112.074 14.0897C112.943 14.504 113.388 15.3554 113.222 16.2887C113.034 17.3466 112.153 18.0502 111.108 17.9777C109.861 17.8912 108.978 16.7553 109.225 15.5528C109.317 15.1007 109.422 14.8921 109.731 14.5479C110.093 14.1436 110.651 13.902 111.221 13.902C111.589 13.902 111.758 13.9391 112.074 14.0897ZM106.002 18.0988C106.449 18.307 106.813 18.6524 107.041 19.0846C107.191 19.369 107.215 19.4922 107.213 19.9758C107.211 20.4497 107.183 20.5884 107.038 20.8671C106.392 22.11 104.776 22.4091 103.81 21.4648C103.326 20.9916 103.213 20.7091 103.212 19.9758C103.212 19.4038 103.229 19.3176 103.407 18.9948C103.92 18.0626 105.072 17.665 106.002 18.0988ZM100.048 22.1525C100.443 22.3536 100.815 22.7283 101.019 23.1308C101.244 23.5726 101.246 24.4235 101.025 24.8765C100.401 26.1491 98.7899 26.4417 97.7748 25.4665C97.1908 24.9054 96.9873 24.0135 97.2709 23.2578C97.4549 22.7675 97.9262 22.2824 98.4017 22.0941C98.884 21.9031 99.6083 21.9288 100.048 22.1525Z" fill="white"/>
</svg>
