<svg width="112" height="32" viewBox="0 0 112 32" fill="none" xmlns="http://www.w3.org/2000/svg">
<path fill-rule="evenodd" clip-rule="evenodd" d="M9.95953 0.039277C7.6554 0.396046 5.62272 1.70412 4.27467 3.6976C3.08408 5.45811 2.59108 7.78078 3.04231 9.50287C3.4785 11.1673 5.00558 12.4742 7.7745 13.553C9.29113 14.1438 10.156 14.7572 10.5303 15.5076C10.7136 15.8749 10.737 16.0018 10.735 16.6151C10.7267 19.1561 8.39194 21.0391 6.11469 20.3414C4.94462 19.983 3.94861 18.9199 3.5456 17.5995C3.4722 17.3589 3.40495 17.1512 3.39628 17.138C3.37813 17.1105 0.0583628 19.8719 0.00236666 19.9611C-0.0179282 19.9934 0.0945825 20.2683 0.252349 20.572C1.37872 22.7401 3.06349 24.0271 5.29319 24.4225C5.95766 24.5404 7.34831 24.5217 8.12699 24.3845C10.0587 24.044 11.6057 23.2553 12.9295 21.9359C14.6457 20.2255 15.6723 17.7405 15.6849 15.2662C15.6907 14.1477 15.5835 13.659 15.1353 12.7588C14.6542 11.7927 13.7117 10.939 12.3668 10.251C12.1631 10.1468 11.3112 9.73561 10.4737 9.33714C9.21351 8.73764 8.87272 8.54142 8.49712 8.19909C7.9176 7.67098 7.77872 7.3406 7.82672 6.60439C7.87183 5.91221 8.1824 5.31782 8.78665 4.7671C10.3695 3.32457 12.7817 3.54039 14.0367 5.23681C14.2162 5.47947 14.3805 5.67612 14.4019 5.67379C14.4232 5.67145 15.0201 4.98037 15.7284 4.138C17.1991 2.38871 17.1574 2.51792 16.4417 1.92571C14.9475 0.689306 12.9048 -0.0243041 10.9312 0.00063252C10.4987 0.00610108 10.0614 0.0234546 9.95953 0.039277ZM41.1796 8.28214C40.0869 8.43089 38.8488 8.98365 37.8947 9.74866L37.4905 10.0727L37.5388 9.78935C37.5654 9.63353 37.6084 9.33371 37.6344 9.12321L37.6817 8.74041H35.4865C34.2791 8.74041 33.2913 8.75543 33.2913 8.77373C33.2913 8.7921 32.458 13.9961 31.4395 20.3381C30.4211 26.6802 29.5878 31.8986 29.5878 31.9345C29.5878 31.9717 30.5294 32 31.767 32H33.9461L33.9882 31.7995C34.0391 31.5569 35.4393 22.7278 35.4393 22.6494C35.4393 22.5177 35.6453 22.6105 35.7401 22.7847C36.0291 23.3164 37.1311 23.9975 38.1057 24.247C38.68 24.394 40.0011 24.4099 40.6611 24.2778C42.3065 23.9484 43.6299 23.2276 44.8883 21.9753C46.244 20.6263 47.1959 18.8696 47.6707 16.8404C47.8623 16.0218 47.9335 14.3624 47.8122 13.5454C47.3909 10.7089 45.5773 8.70657 43.0684 8.30766C42.6018 8.23351 41.6331 8.22038 41.1796 8.28214ZM57.2993 8.34237C56.4063 8.53311 55.3404 9.13983 54.6262 9.86387C54.4446 10.048 54.2743 10.1987 54.2476 10.1987C54.221 10.1987 54.244 9.92796 54.2986 9.59715C54.3532 9.26634 54.3986 8.93822 54.3994 8.86801C54.4008 8.74937 54.2484 8.74041 52.2235 8.74041H50.046L49.9663 9.19612C49.9224 9.4468 49.3851 12.7689 48.7723 16.5787C48.1595 20.3884 47.6392 23.5962 47.6162 23.7071L47.5743 23.9087L49.7826 23.8894L51.991 23.8701L52.1957 22.5941C53.3311 15.5181 53.3862 15.2484 53.9203 14.1624C54.4538 13.0777 55.2937 12.3786 56.3253 12.1609C56.5343 12.1168 57.0131 12.092 57.3894 12.1058C57.975 12.1273 58.1401 12.1634 58.5348 12.3561L58.996 12.5814L59.1054 12.2103C59.1656 12.0062 59.4264 11.1121 59.6849 10.2233L60.1549 8.60748L59.9704 8.52473C59.3311 8.23803 58.1617 8.15819 57.2993 8.34237ZM65.6435 8.33807C62.5442 8.83702 60.1638 10.8874 58.9552 14.099C57.8032 17.1605 58.0022 20.2317 59.4767 22.1476C60.1848 23.0676 61.3597 23.8171 62.5715 24.1219C65.825 24.9402 69.312 23.8306 71.4304 21.3029C71.965 20.6651 72.5206 19.7646 72.429 19.6846C72.3925 19.6527 71.5133 19.4891 70.4752 19.3209L68.5879 19.0152L68.4408 19.2187C68.1545 19.615 67.4097 20.3358 67.0553 20.5597C66.3021 21.0355 65.2366 21.1913 64.4028 20.9475C63.8629 20.7897 63.2997 20.2366 63.0739 19.6424C62.8632 19.0882 62.7567 18.1761 62.8268 17.5266L62.8818 17.0162L67.9651 16.9974L73.0485 16.9787L73.1361 16.4141C73.2928 15.4048 73.3146 14.0267 73.1868 13.2071C72.949 11.6817 72.4832 10.7065 71.5544 9.78957C70.8734 9.11723 70.1318 8.71066 69.0996 8.44365C68.3229 8.24277 66.5686 8.18918 65.6435 8.33807ZM82.426 8.33887C81.4963 8.53792 80.4828 9.06269 79.828 9.68399C79.6564 9.84673 79.4864 9.97995 79.4502 9.97995C79.4139 9.97995 79.4276 9.7421 79.4805 9.45132C79.5333 9.16061 79.5783 8.8812 79.5805 8.83046C79.5836 8.75769 79.121 8.7423 77.3856 8.75754L75.1868 8.77686L73.9819 16.2141C73.3192 20.3046 72.7754 23.7088 72.7735 23.7789C72.7702 23.8976 72.9219 23.9065 74.9492 23.9065H77.1283L77.1702 23.706C77.1934 23.5958 77.5117 21.628 77.8777 19.3333C78.591 14.8615 78.7187 14.2471 79.1063 13.421C79.6782 12.2027 80.3642 11.7098 81.4813 11.7146C82.2614 11.7179 82.7386 12.0687 82.9634 12.804C83.0945 13.2329 83.0935 14.3525 82.9615 15.1933C82.9047 15.5542 82.5717 17.6426 82.2213 19.834C81.8709 22.0255 81.5842 23.8383 81.5842 23.8625C81.5842 23.8867 82.5668 23.9065 83.7679 23.9065H85.9515L85.9895 23.7425C86.0105 23.6522 86.3116 21.7902 86.6588 19.6046C87.0059 17.419 87.3867 15.2459 87.505 14.7756C88.0156 12.7458 88.9294 11.7187 90.2271 11.7165C90.7841 11.7155 91.0874 11.8041 91.35 12.0447C91.5601 12.237 91.7681 12.6251 91.8423 12.9632C91.9041 13.2445 91.9072 14.4771 91.8472 14.8648C91.6609 16.0672 90.4593 23.5506 90.4273 23.7071L90.3862 23.9087L92.5949 23.8894L94.8036 23.8701L94.8579 23.5055C94.8878 23.305 95.2495 21.041 95.6616 18.4744C96.4609 13.497 96.5765 12.3983 96.406 11.397C96.0574 9.35004 94.9104 8.3587 92.7652 8.25028C91.0623 8.16417 89.4867 8.75142 88.1737 9.96172C87.8583 10.2524 87.5715 10.4903 87.5363 10.4903C87.5012 10.4903 87.3892 10.3349 87.2874 10.1449C86.8395 9.30877 85.7597 8.56738 84.6581 8.33967C84.024 8.20864 83.0361 8.20828 82.426 8.33887ZM104.509 8.3062C103.793 8.41521 102.777 8.72305 102.123 9.02929C99.584 10.2184 97.7892 12.7405 97.1273 16.0497C96.9097 17.138 96.8926 18.7736 97.0894 19.6775C97.6205 22.1164 99.2541 23.7083 101.768 24.2371C102.582 24.4081 104.22 24.4123 105.084 24.2454C106.93 23.8891 108.271 23.1748 109.619 21.8299C110.442 21.0094 111.309 19.8084 111.167 19.6849C111.131 19.6529 110.251 19.4886 109.212 19.3199L107.323 19.0131L107.138 19.2542C106.182 20.4988 105.199 21.0629 103.986 21.0629C102.804 21.0629 101.978 20.4263 101.668 19.2761C101.553 18.8502 101.495 17.8014 101.563 17.3807L101.622 17.0162L106.695 16.9797L111.767 16.9432L111.853 16.4328C112.079 15.0868 112.042 13.52 111.758 12.3981C111.235 10.3353 109.844 8.94435 107.805 8.44525C107.084 8.26902 105.259 8.19202 104.509 8.3062ZM17.8543 8.94092C17.831 9.05124 17.4759 11.225 17.0652 13.7715C16.4101 17.8329 16.3184 18.5134 16.3182 19.3129C16.3178 20.9419 16.7017 22.0291 17.5815 22.8898C18.0894 23.3867 18.4536 23.6194 19.1441 23.8879C21.018 24.6168 24.0037 24.5368 26.0177 23.7038C27.9604 22.9002 29.3704 21.1789 29.9987 18.8437C30.1509 18.278 31.6617 9.21085 31.6617 8.86327C31.6617 8.75083 31.4766 8.74041 29.4849 8.74041H27.3082L27.2649 8.97738C27.2411 9.10767 26.9187 11.1139 26.5485 13.4355C25.7096 18.6959 25.558 19.2167 24.6167 20.0746C23.9688 20.6651 23.0759 20.8788 22.1976 20.6535C21.6404 20.5107 21.3465 20.2752 21.0942 19.7692C20.8926 19.3654 20.8849 19.3092 20.8891 18.2922C20.8932 17.3213 20.9491 16.8947 21.5742 13.0707C21.9486 10.7805 22.255 8.86917 22.255 8.82346C22.255 8.76323 21.657 8.74041 20.0758 8.74041H17.8967L17.8543 8.94092ZM67.6593 11.3809C68.5585 11.6527 69.2888 12.7761 69.2888 13.8873V14.2819H66.3642H63.4395L63.5923 13.8991C63.8583 13.2326 64.1911 12.7289 64.692 12.2347C65.5717 11.3668 66.6172 11.066 67.6593 11.3809ZM106.553 11.4511C107.373 11.7915 108.023 12.889 108.026 13.9355L108.027 14.2819H105.104H102.182L102.289 13.9845C102.641 13.0011 103.535 11.9361 104.323 11.5615C105.068 11.2077 105.871 11.1679 106.553 11.4511ZM41.6015 12.3258C42.772 12.8653 43.4245 14.173 43.3415 15.8131C43.192 18.7696 40.4954 21.1445 38.1158 20.4153C36.9781 20.0668 36.2468 19.0851 36.0234 17.6065C35.6934 15.4223 37.2865 12.8671 39.398 12.1936C39.5828 12.1346 39.9829 12.1043 40.4389 12.1146C41.0646 12.1287 41.2452 12.1615 41.6015 12.3258Z" fill="white"/>
</svg>
