<svg width="92" height="42" viewBox="0 0 92 42" fill="none" xmlns="http://www.w3.org/2000/svg">
<path fill-rule="evenodd" clip-rule="evenodd" d="M48.1696 0.0463922C48.1689 0.108007 47.9074 0.127549 47.0844 0.127549C46.488 0.127549 45.9936 0.134886 45.9857 0.143781C45.9777 0.152675 45.9555 1.25563 45.9364 2.59472L45.9015 5.02943H43.4044H40.9072L40.89 2.57719L40.8728 0.124887L39.51 0.142482L38.1472 0.160012L38.1305 6.6688L38.1137 13.1776H39.494H40.8744V10.2559V7.33429H43.4044H45.9344L45.9353 10.1099C45.9357 11.6364 45.954 12.9511 45.9758 13.0315C46.0151 13.1766 46.0239 13.1776 47.2843 13.1776C48.4376 13.1776 48.556 13.188 48.5834 13.2912C48.6119 13.3994 48.6138 13.3994 48.621 13.2912C48.6252 13.2287 48.6583 13.1776 48.6947 13.1776C48.7386 13.1776 48.7551 10.9964 48.744 6.6688L48.7272 0.160012L48.4978 0.138522C48.3716 0.12664 48.2464 0.0828154 48.2195 0.0411332C48.1832 -0.0152223 48.1704 -0.0138588 48.1696 0.0463922ZM26.7622 0.17053C26.7011 0.194942 26.6801 0.4849 26.6801 1.3077C26.6801 2.35748 26.6866 2.41377 26.8115 2.44604C26.8838 2.46474 26.943 2.4985 26.9429 2.52116C26.9428 2.54376 27.7635 2.54765 28.7665 2.5298C29.7695 2.51194 30.6112 2.50571 30.637 2.51597C30.6628 2.52623 30.6849 4.89276 30.686 7.77494C30.687 10.6571 30.6881 13.0518 30.6883 13.0964C30.6886 13.1587 31.0011 13.1776 32.0311 13.1776C33.1639 13.1776 33.3897 13.1617 33.4769 13.0756C33.5942 12.9596 33.612 12.853 33.514 12.853C33.4701 12.853 33.4535 11.12 33.4647 7.6895L33.4815 2.52603L35.3872 2.51168C36.4354 2.50376 37.3299 2.4737 37.3751 2.44481C37.479 2.37839 37.4915 0.441919 37.3892 0.253115C37.3228 0.130536 37.1973 0.127679 32.0828 0.132678C29.2017 0.13547 26.8074 0.152545 26.7622 0.17053ZM50.25 0.1704C50.2257 0.194423 50.2058 3.13088 50.2058 6.69588V13.1776L54.9208 13.1766C57.514 13.176 59.6653 13.1542 59.7015 13.1279C59.7424 13.0982 59.7589 12.6578 59.7452 11.9608L59.7233 10.8414L56.2953 10.8246L52.8672 10.8078V9.18467V7.56153L55.8736 7.54465L58.8801 7.52777V6.3273V5.12682H55.8572H52.8343V3.81208L52.8343 2.49733L56.2496 2.51577L59.665 2.53421L59.702 2.38592C59.7224 2.30437 59.7306 1.77017 59.7203 1.19882L59.7015 0.160012L54.9979 0.143326C52.4109 0.134172 50.2744 0.146378 50.25 0.1704ZM61.5084 0.133522C61.4967 1.88924 61.5128 13.4631 61.5271 13.4772C61.5385 13.4885 62.1527 13.5118 62.8918 13.5289C64.1499 13.5581 64.5163 13.5895 65.6815 13.7676C66.275 13.8583 67.5047 14.1497 67.85 14.2813C67.9223 14.3089 68.1145 14.3692 68.2772 14.4155C68.4398 14.4617 68.6025 14.5182 68.6386 14.541C68.6747 14.5639 68.8374 14.623 69 14.6724C69.1627 14.7219 69.3927 14.8148 69.5113 14.8789C69.6299 14.9431 69.7703 14.9955 69.8234 14.9955C69.8766 14.9955 69.92 15.0361 69.92 15.0857C69.92 15.1385 70.0222 15.1948 70.1663 15.2215C70.3018 15.2466 70.4274 15.2868 70.4456 15.3107C70.4638 15.3347 70.6265 15.4258 70.8072 15.5133C70.9879 15.6007 71.2594 15.7536 71.4104 15.8532C71.5615 15.9528 71.7168 16.0343 71.7554 16.0343C71.7941 16.0343 71.8257 16.0635 71.8257 16.0992C71.8257 16.135 71.8701 16.1642 71.9243 16.1642C71.9785 16.1642 72.0229 16.1861 72.023 16.2129C72.0231 16.2397 72.1562 16.3446 72.3187 16.4461C72.4813 16.5476 72.6143 16.6551 72.6143 16.6851C72.6143 16.7152 72.6809 16.7603 72.7622 16.7853C72.8435 16.8104 72.9248 16.8493 72.9429 16.8718C72.961 16.8942 73.1384 17.0431 73.3372 17.2027C73.536 17.3622 73.7464 17.5444 73.8049 17.6076C73.8633 17.6707 73.9291 17.7224 73.9509 17.7224C74.0204 17.7224 75.1285 18.8542 75.5386 19.344C75.7555 19.603 75.9699 19.8532 76.015 19.9002C76.0602 19.9471 76.0972 20.0132 76.0972 20.0471C76.0972 20.081 76.1408 20.1445 76.1942 20.1883C76.326 20.2964 77.0172 21.3282 77.0172 21.417C77.0172 21.4561 77.0417 21.4881 77.0716 21.4881C77.1016 21.4881 77.1954 21.6342 77.28 21.8127C77.3647 21.9912 77.4584 22.1373 77.4884 22.1373C77.5184 22.1373 77.5429 22.1958 77.5429 22.2672C77.5429 22.3386 77.5652 22.397 77.5926 22.397C77.6199 22.397 77.6836 22.492 77.7342 22.608C77.7848 22.7241 77.9278 23.0382 78.0519 23.306C78.176 23.5738 78.3207 23.9244 78.3735 24.0851C78.4263 24.2458 78.4944 24.4357 78.5247 24.5071C78.6772 24.8654 79.0373 26.1295 79.1167 26.5847C79.308 27.6826 79.3855 28.2594 79.412 28.7837C79.4285 29.1098 79.4435 32.1448 79.4453 35.5282L79.4486 41.6799H85.7243H92V35.1497C92 31.2641 91.9735 28.3653 91.9344 27.9917C91.8053 26.7567 91.7298 26.1239 91.6619 25.7082C91.5713 25.1534 91.1648 23.1502 91.0755 22.819C91.037 22.6762 90.982 22.4571 90.9532 22.3321C90.8849 22.0356 90.1511 19.8876 89.9342 19.3494C89.8416 19.1195 89.7657 18.8785 89.7657 18.8138C89.7657 18.7492 89.7361 18.6963 89.7 18.6963C89.6639 18.6963 89.6343 18.6669 89.6343 18.631C89.6343 18.5951 89.5604 18.4144 89.47 18.2293C89.3796 18.0443 89.3057 17.8602 89.3057 17.8202C89.3057 17.7498 88.6317 16.4306 88.2937 15.8395C88.2018 15.6789 88.0481 15.4013 87.9521 15.2228C87.8561 15.0442 87.7517 14.8884 87.7202 14.8765C87.6887 14.8646 87.6629 14.8268 87.6629 14.7926C87.6629 14.7313 87.2077 13.9999 87.0735 13.8455C87.036 13.8022 86.971 13.6926 86.9292 13.6021C86.8874 13.5114 86.8331 13.4373 86.8086 13.4373C86.7841 13.4373 86.7298 13.3632 86.688 13.2725C86.6462 13.1819 86.5824 13.0724 86.5462 13.029C86.51 12.9858 86.3694 12.7988 86.2338 12.6136C85.7742 11.986 85.7245 11.9201 85.5611 11.7209C85.4713 11.6115 85.3806 11.5074 85.3595 11.4895C85.3385 11.4717 85.194 11.289 85.0384 11.0837C84.8829 10.8784 84.7296 10.7104 84.6978 10.7104C84.666 10.7104 84.64 10.6802 84.64 10.6433C84.64 10.6064 84.5587 10.4942 84.4593 10.3939C84.3599 10.2936 84.1307 10.0436 83.95 9.83821C83.7693 9.63279 83.5879 9.4347 83.5469 9.39789C83.5059 9.36114 83.3843 9.25369 83.2768 9.15915C83.1693 9.06462 83.0602 8.92172 83.0345 8.84154C83.0088 8.76142 82.9623 8.7113 82.9314 8.73019C82.9004 8.74915 82.6052 8.5012 82.2753 8.1793C81.9454 7.8574 81.6501 7.59399 81.6189 7.59399C81.5878 7.59399 81.5526 7.57101 81.5405 7.5429C81.5284 7.51478 81.3929 7.39305 81.2393 7.27235C81.0857 7.15159 80.96 7.01395 80.96 6.96636C80.96 6.91877 80.9 6.87981 80.8266 6.87981C80.7531 6.87981 80.676 6.83599 80.6552 6.78242C80.6344 6.72886 80.5913 6.68504 80.5594 6.68504C80.5052 6.68504 80.4434 6.64004 80.0838 6.33846C80.0055 6.27282 79.8602 6.17154 79.7607 6.11343C79.6613 6.05532 79.58 5.98488 79.58 5.95683C79.58 5.92885 79.5508 5.90593 79.515 5.90593C79.454 5.90593 79.2819 5.78263 79.0845 5.59753C79.0369 5.55293 78.9654 5.51637 78.9255 5.51637C78.8856 5.51637 78.8371 5.47521 78.8175 5.42483C78.798 5.37451 78.7102 5.31549 78.6224 5.29374C78.5346 5.27199 78.4629 5.22551 78.4629 5.19051C78.4629 5.15545 78.4185 5.12682 78.3643 5.12682C78.3101 5.12682 78.2657 5.0976 78.2657 5.0619C78.2657 5.02619 78.2348 4.99697 78.1971 4.99697C78.1593 4.99697 77.9153 4.85751 77.6549 4.68701C77.3945 4.51652 77.0927 4.33395 76.9843 4.28129C76.8759 4.22864 76.7724 4.16774 76.7543 4.14586C76.7362 4.12404 76.4257 3.95264 76.0643 3.76501C75.7029 3.57744 75.3791 3.39805 75.3447 3.36643C75.3104 3.33481 75.2291 3.3089 75.164 3.3089C75.099 3.3089 75.0457 3.27969 75.0457 3.24398C75.0457 3.20827 74.9866 3.17905 74.9143 3.17905C74.842 3.17905 74.7829 3.14984 74.7829 3.11413C74.7829 3.07842 74.7237 3.0492 74.6515 3.0492C74.5792 3.0492 74.52 3.01998 74.52 2.98428C74.52 2.94857 74.4901 2.91935 74.4536 2.91935C74.3896 2.91935 73.8853 2.71224 73.6502 2.5894C73.5875 2.55661 73.4913 2.5298 73.4367 2.5298C73.3819 2.5298 73.3372 2.50058 73.3372 2.46487C73.3372 2.42916 73.2924 2.39995 73.2377 2.39995C73.183 2.39995 73.0869 2.37417 73.0241 2.34262C72.6684 2.16381 71.191 1.62084 71.0602 1.62084C71.0104 1.62084 70.9183 1.59448 70.8555 1.56221C70.7928 1.53001 70.6084 1.4682 70.4457 1.42483C70.2831 1.38152 70.0761 1.32361 69.9857 1.29621C69.8102 1.24291 69.4272 1.14201 69 1.03651C68.8555 1.0008 68.6263 0.944183 68.4907 0.910747C67.5412 0.676365 66.3226 0.473343 64.5972 0.262075C64.0186 0.191241 61.5088 0.0867759 61.5084 0.133522ZM61.5088 20.8713L61.5091 27.8183L63.2155 27.8197C64.4755 27.8207 64.9432 27.842 65.0028 27.9009C65.0471 27.9447 65.1663 27.9806 65.2675 27.9806C65.3687 27.9806 65.4515 28.0098 65.4515 28.0456C65.4515 28.0813 65.4949 28.1105 65.5481 28.1105C65.6012 28.1105 65.7499 28.1689 65.8786 28.2403C66.0073 28.3118 66.1561 28.3702 66.2092 28.3702C66.2623 28.3702 66.3058 28.3994 66.3058 28.4351C66.3058 28.4708 66.3501 28.5 66.4043 28.5C66.4585 28.5 66.5029 28.5293 66.5029 28.565C66.5029 28.6007 66.5473 28.6299 66.6015 28.6299C66.6557 28.6299 66.7 28.6591 66.7 28.6948C66.7 28.7305 66.7311 28.7597 66.7689 28.7597C66.842 28.7597 67.7515 29.6634 67.7515 29.736C67.7515 29.7595 67.8128 29.8485 67.8876 29.9338C67.9625 30.0191 68.0401 30.1697 68.0601 30.2684C68.0801 30.367 68.1189 30.4478 68.1463 30.4478C68.1915 30.4478 68.309 30.7223 68.5356 31.3568C68.6506 31.6787 68.7286 34.4584 68.7332 38.4012L68.7372 41.7124L73.7479 41.6963C76.5037 41.6874 78.8103 41.6801 78.8736 41.6801C78.9823 41.6799 78.9884 41.3434 78.985 35.4958C78.9824 30.8753 78.9595 29.09 78.8946 28.4351C78.8468 27.953 78.8214 27.5354 78.8381 27.5071C78.8548 27.4788 78.8416 27.4203 78.8087 27.3772C78.7759 27.3342 78.7107 27.0944 78.6638 26.8444C78.617 26.5945 78.5392 26.2439 78.4909 26.0653C78.4427 25.8868 78.3845 25.6677 78.3618 25.5784C78.3391 25.4891 78.2958 25.3576 78.2657 25.2862C78.1538 25.0211 78.0686 24.7107 78.0686 24.5678C78.0686 24.4868 78.0464 24.4108 78.0193 24.3989C77.9613 24.3734 77.5416 23.3734 77.5423 23.2627C77.5426 23.2211 77.5178 23.1772 77.4872 23.1653C77.4566 23.1534 77.273 22.8369 77.0791 22.462C76.8853 22.087 76.703 21.751 76.6741 21.7153C76.6452 21.6796 76.4702 21.4167 76.2851 21.131C76.1001 20.8453 75.9289 20.597 75.9048 20.5791C75.8806 20.5613 75.7893 20.4444 75.7019 20.3194C75.6144 20.1944 75.5124 20.0608 75.475 20.0224C75.4377 19.9841 75.3332 19.8566 75.2429 19.7392C75.1525 19.6219 74.953 19.3984 74.7993 19.2426C74.6457 19.0868 74.52 18.9294 74.52 18.8927C74.52 18.8561 74.4935 18.8261 74.4612 18.8261C74.4289 18.8261 74.1953 18.6289 73.9421 18.3879C73.6889 18.1469 73.3606 17.8474 73.2125 17.7224C73.0644 17.5974 72.9286 17.4513 72.9106 17.3978C72.8927 17.3442 72.7448 17.2464 72.5819 17.1803C72.419 17.1143 72.2857 17.0339 72.2857 17.0018C72.2857 16.9696 72.2562 16.9433 72.22 16.9433C72.1839 16.9433 72.0952 16.8848 72.0229 16.8134C71.9506 16.742 71.8471 16.6836 71.7929 16.6836C71.7387 16.6836 71.6943 16.6544 71.6943 16.6187C71.6943 16.5829 71.65 16.5537 71.5957 16.5537C71.5415 16.5537 71.4972 16.5279 71.4972 16.4964C71.4972 16.4648 71.4455 16.4228 71.3822 16.403C71.2693 16.3677 70.9048 16.1633 70.84 16.0991C70.822 16.0813 70.7185 16.0228 70.61 15.9694C70.5016 15.916 70.3981 15.8575 70.38 15.8397C70.3044 15.7647 69.7689 15.5149 69.6838 15.5149C69.633 15.5149 69.5915 15.4857 69.5915 15.45C69.5915 15.4143 69.5467 15.3851 69.492 15.3851C69.4373 15.3851 69.3412 15.3593 69.2784 15.3277C69.1609 15.2687 68.8939 15.1561 68.6057 15.0442C68.5154 15.0091 68.3901 14.9545 68.3274 14.923C68.2646 14.8914 68.1681 14.8657 68.1129 14.8657C68.0577 14.8657 67.9612 14.8394 67.8984 14.8074C67.7843 14.7491 67.211 14.578 66.47 14.3812C66.2532 14.3236 65.854 14.2458 65.5829 14.2084C65.3118 14.1709 64.883 14.1119 64.63 14.0773C64.377 14.0427 63.5712 13.9941 62.8392 13.9693L61.5084 13.9242L61.5088 20.8713ZM17.3158 14.1515C17.2435 14.1822 17.0605 14.2093 16.909 14.2119C16.7575 14.2143 16.6153 14.2456 16.593 14.2813C16.5706 14.317 16.4819 14.3463 16.3958 14.3463C16.3097 14.3463 16.221 14.3755 16.1987 14.4112C16.1763 14.4469 16.0933 14.4763 16.0141 14.4765C15.8834 14.4769 15.2283 14.7777 14.6622 15.0973C14.5399 15.1663 14.2886 15.3623 14.1036 15.5328C13.9186 15.7033 13.7123 15.8932 13.6452 15.9549C13.5781 16.0164 13.4091 16.2421 13.2697 16.4563C13.1304 16.6706 12.9872 16.8796 12.9515 16.9208C12.7424 17.1626 12.3348 18.3118 12.1891 19.0705C12.0628 19.7289 11.9691 21.2056 12.0379 21.4552C12.0674 21.5621 12.0915 21.765 12.0915 21.9063C12.0915 22.2893 12.2415 23.2411 12.3018 23.2411C12.3307 23.2411 12.3544 23.2921 12.3544 23.3545C12.3544 23.5893 12.6985 24.4758 12.9487 24.8858C13.0917 25.1199 13.2087 25.3266 13.2087 25.345C13.2087 25.3749 13.4412 25.6234 14.0798 26.276C14.1932 26.3919 14.3393 26.5034 14.4045 26.5238C14.4697 26.5443 14.523 26.5882 14.523 26.6215C14.523 26.6549 14.5673 26.6821 14.6215 26.6821C14.6758 26.6821 14.7201 26.7059 14.7201 26.7349C14.7201 26.764 14.8236 26.8279 14.9501 26.8769C15.0766 26.9259 15.1801 26.9898 15.1801 27.0189C15.1801 27.0479 15.2245 27.0717 15.2787 27.0717C15.3329 27.0717 15.3773 27.1009 15.3773 27.1366C15.3773 27.1723 15.4453 27.2015 15.5284 27.2015C15.6115 27.2015 15.7076 27.2272 15.742 27.2585C15.8304 27.3391 16.4247 27.5232 16.9419 27.63C17.4675 27.7387 19.0921 27.7514 19.5944 27.6508C20.3787 27.4937 20.7169 27.3872 21.2915 27.1163C21.7427 26.9037 22.2952 26.5631 22.332 26.4749C22.3441 26.4461 22.3884 26.422 22.4306 26.4215C22.5037 26.4207 23.0829 25.8554 23.3617 25.5129C23.5603 25.2688 24.0515 24.4452 24.0515 24.3562C24.0515 24.3132 24.0797 24.2273 24.1142 24.1653C24.4429 23.5734 24.7098 22.0921 24.7074 20.873C24.7061 20.2305 24.5724 19.0426 24.4588 18.6638C24.4266 18.5567 24.413 18.4325 24.4285 18.3879C24.444 18.3433 24.4247 18.3067 24.3856 18.3067C24.3465 18.3067 24.3144 18.2538 24.3144 18.1891C24.3144 18.1243 24.2552 17.9505 24.183 17.8026C24.1107 17.6548 24.0515 17.5018 24.0515 17.4624C24.0515 17.3884 23.7851 16.8711 23.7174 16.8136C23.6962 16.7956 23.6519 16.7333 23.6188 16.6751C23.5456 16.5461 23.1752 16.0934 22.8854 15.7789C22.7681 15.6515 22.672 15.5286 22.6719 15.5057C22.6717 15.4828 22.5976 15.4457 22.5072 15.4233C22.4169 15.4009 22.343 15.3425 22.343 15.2935C22.343 15.2444 22.2759 15.1877 22.1938 15.1674C22.1118 15.147 21.9799 15.0708 21.9008 14.998C21.8217 14.9252 21.7407 14.8657 21.7207 14.8657C21.7007 14.8657 21.5443 14.8043 21.373 14.7293C20.691 14.4308 20.2426 14.2907 19.5305 14.1536C19.1152 14.0736 17.5028 14.0721 17.3158 14.1515ZM6.57251e-05 20.8799L0.000131435 27.3812L0.147988 27.4234C0.381997 27.4901 2.37209 27.4625 2.50811 27.3906C2.62614 27.3281 2.63067 27.1551 2.62732 22.8402C2.62541 20.3732 2.63632 18.3424 2.65157 18.3274C2.68081 18.2985 2.86639 18.6051 3.30713 19.4105C3.45368 19.6783 3.61231 19.936 3.65969 19.9832C3.70707 20.0304 3.74584 20.0969 3.74584 20.131C3.74584 20.1861 4.3878 21.2895 4.51673 21.456C4.54453 21.4919 4.63088 21.638 4.70855 21.7806C4.78629 21.9233 4.91674 22.1568 4.99842 22.2996C5.08017 22.4425 5.26614 22.7785 5.4117 23.0463C5.55732 23.3141 5.70872 23.5655 5.74822 23.6048C5.78771 23.6443 5.87537 23.7977 5.94293 23.9457C6.01048 24.0938 6.09085 24.2149 6.12154 24.2149C6.15216 24.2149 6.17727 24.271 6.17727 24.3394C6.17727 24.4078 6.20276 24.4735 6.23385 24.4855C6.26499 24.4974 6.4005 24.7116 6.53495 24.9616C6.66933 25.2116 6.89394 25.606 7.03398 25.8381C7.17395 26.0702 7.39745 26.4646 7.53058 26.7146C7.66372 26.9645 7.79811 27.1788 7.82925 27.1907C7.86034 27.2026 7.88583 27.2829 7.88583 27.3692C7.88583 27.4654 7.92395 27.5262 7.98441 27.5262C8.03862 27.5262 8.08298 27.5043 8.08291 27.4775C8.08285 27.4506 8.64759 27.4373 9.33779 27.4477C10.2285 27.4612 10.6198 27.4446 10.6859 27.3904C10.8184 27.2818 10.8212 14.5938 10.6887 14.4627C10.6239 14.3986 10.3136 14.3832 9.3763 14.3977L8.14869 14.4167V18.7965C8.14869 22.6462 8.1368 23.1761 8.05012 23.1761C7.99485 23.1761 7.95155 23.1182 7.95155 23.0443C7.95155 22.9717 7.90877 22.8961 7.85646 22.8763C7.80415 22.8564 7.54682 22.4557 7.28468 21.9856C7.02248 21.5155 6.79176 21.1164 6.77191 21.0985C6.73761 21.0677 6.55571 20.7481 6.34175 20.3427C6.28786 20.2406 6.24364 20.0914 6.24337 20.011C6.24318 19.9306 6.20493 19.8649 6.15841 19.8649C6.08743 19.8649 5.86985 19.5408 5.48293 18.8586C5.44245 18.7872 5.34053 18.6119 5.25648 18.469C5.1725 18.3262 5.03187 18.0779 4.94407 17.9172C4.65335 17.3852 4.5676 17.2358 4.53441 17.203C4.51634 17.1851 4.46981 17.1121 4.43104 17.0407C4.12133 16.4704 4.03695 16.3223 4.00548 16.294C3.98563 16.2762 3.75465 15.8766 3.49218 15.406C3.22972 14.9354 2.97876 14.5207 2.9346 14.4845C2.88742 14.4458 2.26445 14.4103 1.42712 14.3987L0 14.3787L6.57251e-05 20.8799ZM26.1048 14.3951C26.0394 14.44 26.0258 15.7879 26.0391 20.9078L26.0558 27.3638L27.1044 27.3818C27.8417 27.3944 28.1685 27.4233 28.2051 27.4791C28.2439 27.5383 28.2699 27.5395 28.3065 27.484C28.3337 27.443 28.4297 27.3992 28.5201 27.3866L28.6844 27.3638L28.7016 24.9129C28.7185 22.5031 28.721 22.462 28.8515 22.462C28.9245 22.462 28.9984 22.4255 29.0156 22.3808C29.04 22.3181 29.4176 22.3043 30.6729 22.3198C31.5671 22.3309 32.3075 22.3643 32.3182 22.394C32.329 22.4238 32.3957 22.4332 32.4666 22.4149C32.6531 22.3667 32.9576 22.5105 33.0567 22.6935C33.1038 22.7804 33.1928 22.8515 33.2547 22.8515C33.3714 22.8515 33.4615 23.0254 33.5744 23.4683C33.6108 23.6111 33.6459 24.2912 33.6523 24.9795C33.6587 25.6679 33.6894 26.2466 33.7206 26.2656C33.7517 26.2846 33.7778 26.3935 33.7785 26.5074C33.7792 26.6213 33.818 26.8607 33.8646 27.0392C33.934 27.3047 33.9787 27.368 34.1098 27.3866C34.1979 27.3992 34.2918 27.443 34.3184 27.484C34.3535 27.5383 34.3669 27.5365 34.3677 27.4775C34.3684 27.4153 34.6759 27.3963 35.6829 27.3963H36.9972V27.1366C36.9972 26.9213 36.975 26.8769 36.8675 26.8769C36.5793 26.8769 36.5174 26.5736 36.43 24.7344C36.3453 22.9545 36.3075 22.6519 36.1217 22.2672C35.9944 22.0036 35.5352 21.4881 35.4277 21.4881C35.3874 21.4881 35.3544 21.4589 35.3544 21.4231C35.3544 21.3874 35.2952 21.3582 35.2229 21.3582C35.1507 21.3582 35.0915 21.329 35.0915 21.2933C35.0915 21.2576 35.0472 21.2284 34.9929 21.2284C34.8183 21.2284 34.8877 21.132 35.1408 21.0229C35.3675 20.9252 35.4823 20.8435 35.8472 20.5195C36.3923 20.0356 36.7926 19.0354 36.7977 18.1444C36.8013 17.5166 36.5057 16.296 36.3493 16.2933C36.3262 16.2929 36.2524 16.1795 36.1855 16.0413C36.0147 15.689 35.503 15.1874 35.1196 14.9963C34.9416 14.9075 34.781 14.8156 34.7629 14.7919C34.7449 14.7682 34.5674 14.6998 34.3687 14.6397C34.1699 14.5797 33.9333 14.4995 33.8429 14.4616C33.6386 14.3759 26.2256 14.3121 26.1048 14.3951ZM37.4064 15.5636L37.4244 16.716L39.3794 16.7332L41.3344 16.7505V22.0664C41.3344 26.7028 41.3468 27.3871 41.4317 27.4194C41.5927 27.4804 44.0396 27.4764 44.1017 27.415C44.1335 27.3836 44.1668 24.9848 44.1761 22.0695L44.1929 16.781L46.1479 16.7638L48.1029 16.7466V15.5789V14.4112H42.7457H37.3885L37.4064 15.5636ZM49.0792 14.4923C49.0664 14.537 49.0706 17.4659 49.0886 21.0011L49.1215 27.4288L50.3372 27.4472C51.0058 27.4574 51.6195 27.4495 51.7008 27.4297L51.8486 27.3938L51.8496 24.652C51.85 23.1439 51.8683 21.8444 51.89 21.764L51.9297 21.6179H54.4192H56.9086V24.4724C56.9086 27.228 56.913 27.3291 57.0357 27.394C57.1105 27.4336 57.6756 27.4612 58.4087 27.4612C59.4842 27.4612 59.66 27.4472 59.6944 27.3585C59.7164 27.302 59.7343 24.4534 59.7343 21.0283C59.7343 16.9198 59.7567 14.8007 59.8001 14.8007C59.9007 14.8007 59.8786 14.7055 59.7418 14.5496C59.6212 14.4122 59.5829 14.4089 58.2797 14.426L56.9415 14.4436L56.9243 16.8621L56.907 19.2806H54.3778H51.8486V16.8459V14.4112H50.4757C49.4336 14.4112 49.097 14.4307 49.0792 14.4923ZM19.353 16.5572C19.872 16.7286 20.1087 16.8341 20.1087 16.8942C20.1087 16.9212 20.153 16.9433 20.2072 16.9433C20.2615 16.9433 20.3058 16.9725 20.3058 17.0082C20.3058 17.0439 20.3383 17.0731 20.378 17.0731C20.4701 17.0731 21.0806 17.718 21.1309 17.8685C21.1518 17.9309 21.1965 17.9821 21.2302 17.9821C21.2639 17.9821 21.2915 18.0551 21.2915 18.1444C21.2915 18.2337 21.3142 18.3067 21.3419 18.3067C21.407 18.3067 21.6534 18.9509 21.7641 19.4105C21.8192 19.6393 21.8496 20.199 21.8486 20.9687C21.8473 22.0175 21.8282 22.2357 21.6983 22.6892C21.5255 23.2924 21.3975 23.5843 21.1828 23.864C21.0981 23.9745 21.0287 24.0987 21.0287 24.1399C21.0287 24.1812 21.0065 24.215 20.9794 24.2151C20.9522 24.2152 20.871 24.3028 20.7987 24.4097C20.7264 24.5167 20.6368 24.6042 20.5996 24.6043C20.5624 24.6044 20.4894 24.6629 20.4372 24.7344C20.3851 24.8058 20.3047 24.8642 20.2584 24.8642C20.2122 24.8642 20.1744 24.887 20.1744 24.9149C20.1744 24.9428 20.0783 25.0039 19.9608 25.0508C19.1098 25.3902 19.0985 25.3926 18.3772 25.39C17.9851 25.3885 17.5563 25.3528 17.4243 25.3105C17.0321 25.1849 16.4944 24.9241 16.4944 24.8594C16.4944 24.8264 16.4575 24.7988 16.4123 24.7982C16.268 24.7964 15.8855 24.4186 15.925 24.3169C15.9498 24.2531 15.9308 24.2334 15.8677 24.2573C15.8077 24.2801 15.7497 24.2316 15.7084 24.1242C15.6726 24.0313 15.6183 23.9552 15.5877 23.9552C15.5194 23.9552 15.1426 23.1526 15.0848 22.884C15.0617 22.7768 15.0098 22.5723 14.9694 22.4295C14.8442 21.9868 14.8301 20.0722 14.9477 19.5092C15.095 18.8047 15.405 18.0406 15.6692 17.7309C15.9577 17.3927 16.5957 16.8134 16.6796 16.8134C16.7113 16.8134 16.8368 16.7643 16.9588 16.7042C17.5483 16.4136 18.7031 16.3427 19.353 16.5572ZM32.751 16.7595C32.8998 16.8012 33.0496 16.8596 33.0839 16.8893C33.1182 16.919 33.1858 16.9433 33.234 16.9433C33.3296 16.9433 33.6518 17.2474 33.8117 17.4885C33.8747 17.5834 33.9261 17.8695 33.9499 18.2572C33.9823 18.7834 33.9688 18.9173 33.8586 19.1632C33.7018 19.5137 33.4741 19.7482 33.1779 19.8645C33.0558 19.9124 32.9176 19.9806 32.8709 20.0159C32.7712 20.0913 29.3113 20.1639 28.9557 20.098L28.7172 20.0538L28.7182 18.5148C28.7186 17.6683 28.7369 16.91 28.7586 16.8297L28.7983 16.6836H30.6394C31.8458 16.6836 32.5738 16.7097 32.751 16.7595ZM61.5525 28.2836C61.5283 28.3074 61.5086 31.3386 61.5086 35.0197V41.7124L64.86 41.695L68.2115 41.6776L68.21 36.9554C68.2087 32.5755 68.1996 32.1933 68.085 31.6814C67.9399 31.0329 67.7008 30.4699 67.4241 30.1247C67.315 29.9886 67.2258 29.8617 67.2258 29.8426C67.2258 29.7583 66.6389 29.2233 66.3552 29.0489C66.1835 28.9434 66.0431 28.8352 66.043 28.8084C66.043 28.7816 66.0041 28.7597 65.9567 28.7597C65.9092 28.7597 65.754 28.7044 65.6117 28.6368C65.4693 28.5692 65.2272 28.4816 65.0736 28.4421C64.92 28.4025 64.68 28.341 64.5403 28.3053C64.26 28.2336 61.6224 28.2145 61.5525 28.2836ZM42.7472 28.3471C42.2879 28.3995 41.61 28.5565 41.2358 28.6973C40.9453 28.8067 40.4452 29.037 40.4144 29.0757C40.3643 29.1385 40.0094 29.344 39.8065 29.4278C39.7071 29.4688 39.6258 29.5255 39.6258 29.5538C39.6258 29.6321 38.8561 30.3829 38.776 30.3829C38.7373 30.3829 38.7058 30.4257 38.7058 30.4781C38.7058 30.5686 38.2637 31.4184 38.181 31.4866C38.1594 31.5045 38.1012 31.6433 38.0518 31.795C38.0024 31.9467 37.9371 32.0709 37.9067 32.0709C37.8764 32.0709 37.8515 32.1528 37.8515 32.2527C37.8515 32.3527 37.8267 32.4623 37.7964 32.4962C37.7448 32.5539 37.7106 32.697 37.5224 33.6439C37.4377 34.0699 37.4476 36.8754 37.5338 36.8754C37.5639 36.8754 37.5887 36.9537 37.5887 37.0494C37.5887 37.145 37.6182 37.3203 37.6544 37.4389C37.6905 37.5575 37.7513 37.7641 37.7894 37.898C37.8809 38.2196 38.2387 39.0762 38.3114 39.1478C38.3295 39.1657 38.4144 39.3072 38.4998 39.4623C38.7552 39.9253 39.6991 40.9007 40.0332 41.0468C40.1344 41.0911 40.2172 41.1494 40.2172 41.1764C40.2172 41.2034 40.2616 41.2255 40.3158 41.2255C40.37 41.2255 40.4144 41.2475 40.4144 41.2745C40.4144 41.3184 40.5151 41.3676 40.9729 41.5477C41.0452 41.5762 41.2226 41.6468 41.3672 41.7047C42.2752 42.0683 44.0793 42.1008 45.3429 41.7762C46.0349 41.5985 46.9428 41.0674 47.5091 40.5092C48.1749 39.8527 48.5738 39.1965 48.8941 38.23C49.1631 37.4182 49.1936 37.2171 49.0521 37.1897C48.9891 37.1776 48.3505 37.1761 47.6331 37.1864C46.5937 37.2014 46.3286 37.2231 46.3286 37.2926C46.3286 37.4717 46.1 38.0854 45.9397 38.3363C45.7507 38.6321 45.2468 39.1478 45.1468 39.1478C45.1101 39.1478 45.0801 39.1732 45.0801 39.2041C45.0801 39.235 44.8988 39.3256 44.6772 39.4055C44.0963 39.6147 43.1252 39.6598 42.6087 39.5016C42.1457 39.3598 41.8423 39.2011 41.6265 38.9879C41.5388 38.9012 41.4287 38.8068 41.3817 38.7781C41.2655 38.7069 40.8744 38.1075 40.8744 38.0005C40.8744 37.9531 40.852 37.9143 40.8247 37.9143C40.7595 37.9143 40.6554 37.6668 40.4696 37.0702C40.3305 36.6239 40.318 36.4642 40.3187 35.1549L40.3195 33.7265L40.5328 33.1297C40.6502 32.8014 40.8121 32.4204 40.8924 32.283C41.1067 31.9168 41.4251 31.4896 41.485 31.488C41.5136 31.4873 41.6004 31.4282 41.678 31.3568C41.7556 31.2854 41.9022 31.1906 42.0039 31.1462C42.1055 31.1017 42.1886 31.0433 42.1886 31.0163C42.1886 30.9893 42.2419 30.9672 42.3069 30.9672C42.372 30.9672 42.4533 30.9397 42.4876 30.9061C42.5681 30.8272 43.3107 30.7086 43.7283 30.708C43.9064 30.7077 44.1578 30.7399 44.2868 30.7795C44.7752 30.9293 45.237 31.1219 45.3459 31.2213C45.4079 31.2779 45.5145 31.3681 45.5827 31.4217C45.8476 31.63 46.1481 32.1644 46.2913 32.6819L46.3615 32.9358L47.6429 32.9291C48.3477 32.9254 48.9799 32.9208 49.0478 32.9187C49.1579 32.9154 49.1665 32.8793 49.1272 32.5866C49.103 32.4061 49.0104 32.0593 48.9216 31.8159C48.8327 31.5726 48.7601 31.3259 48.7601 31.2678C48.7601 31.2096 48.7322 31.162 48.6982 31.162C48.6642 31.162 48.5418 30.9867 48.4262 30.7724C48.3106 30.5582 48.1906 30.3829 48.1595 30.3829C48.1284 30.3829 48.1029 30.3518 48.1029 30.3137C48.1029 30.1991 47.2415 29.409 47.1165 29.409C47.0807 29.409 47.0515 29.3847 47.0515 29.355C47.0515 29.3254 46.9702 29.2597 46.8708 29.2091C46.7714 29.1584 46.6753 29.102 46.6572 29.0836C46.5831 29.0082 46.0018 28.7581 45.5401 28.6029C44.8298 28.3643 43.5923 28.2509 42.7472 28.3471ZM17.954 28.6364C17.8492 28.6727 17.8393 29.1127 17.8087 35.0965C17.7906 38.6281 17.7866 41.5547 17.7998 41.6001C17.8184 41.664 18.1279 41.6786 19.1798 41.665L20.5358 41.6475L20.5687 38.9531L20.6015 36.2586L23.4601 36.2262L26.3187 36.1937V35.0575V33.9213L23.4601 33.8871C21.8879 33.8683 20.5941 33.8464 20.5851 33.8384C20.5761 33.8305 20.5687 33.1812 20.5687 32.3956V30.9672H23.8544H27.1401L27.1448 30.7887C27.1629 30.1033 27.1235 28.7188 27.0848 28.6799C27.0282 28.623 18.115 28.5805 17.954 28.6364ZM29.9827 29.198C29.8724 29.5105 29.6579 30.1021 29.506 30.5127C29.3541 30.9234 29.2145 31.3251 29.1958 31.4055C29.1772 31.4858 29.1308 31.5515 29.0929 31.5515C29.0549 31.5515 29.0421 31.5695 29.0642 31.5913C29.0996 31.6263 29.0213 31.8824 28.848 32.2982C28.8183 32.3696 28.7798 32.4865 28.7625 32.5579C28.7452 32.6293 28.6377 32.9361 28.5234 33.2396C28.4092 33.5431 28.2685 33.9303 28.2108 34.0999C28.1531 34.2695 28.066 34.4083 28.0172 34.4083C27.9174 34.4083 27.8961 34.5157 27.9893 34.549C28.0421 34.5678 27.5597 35.9988 27.3969 36.3064C27.3641 36.3684 27.3372 36.4756 27.3372 36.5445C27.3372 36.6135 27.3151 36.6796 27.288 36.6915C27.2608 36.7034 27.1373 37.0126 27.0134 37.3786C26.8895 37.7447 26.7683 38.0441 26.7441 38.0441C26.7199 38.0441 26.6976 38.1299 26.6946 38.2348C26.6916 38.3397 26.6549 38.4886 26.6131 38.5658C26.5714 38.6428 26.4379 38.988 26.3165 39.3327C26.1951 39.6774 26.0047 40.2077 25.8933 40.5113C25.5157 41.5402 25.4878 41.6273 25.5241 41.6631C25.544 41.6829 26.1961 41.7019 26.9732 41.7056L28.3861 41.7124L28.4597 41.5176C28.5002 41.4105 28.5564 41.2644 28.5846 41.193C28.6127 41.1216 28.7331 40.7637 28.8519 40.3977C28.9709 40.0316 29.089 39.7322 29.1145 39.7322C29.14 39.7322 29.1608 39.6619 29.1608 39.5759C29.1608 39.4899 29.2013 39.3292 29.2508 39.2188L29.3407 39.018H31.7561H34.1715V39.1673C34.1715 39.2494 34.1964 39.3444 34.2268 39.3783C34.2572 39.4123 34.348 39.6591 34.4285 39.9269C34.5089 40.1948 34.5987 40.4869 34.628 40.5762C34.6573 40.6655 34.7485 40.9487 34.8306 41.2057L34.9799 41.6728L36.3664 41.6926C37.129 41.7035 37.7991 41.7031 37.8556 41.6918C37.9431 41.6742 37.9485 41.6236 37.8919 41.3509C37.8555 41.1748 37.8018 41.0307 37.7728 41.0307C37.7438 41.0307 37.7201 40.9455 37.7201 40.8413C37.7201 40.7372 37.6937 40.6422 37.6615 40.6303C37.6028 40.6086 37.3885 40.028 36.6588 37.9143C36.4431 37.2893 36.2271 36.6904 36.1787 36.5833C36.1303 36.4761 35.9368 35.9356 35.7487 35.3822C35.5605 34.8287 35.3671 34.2882 35.3188 34.181C35.2151 33.9509 34.5863 32.153 34.4785 31.7788C34.4375 31.6359 34.3874 31.5045 34.3675 31.4866C34.3476 31.4688 34.2613 31.235 34.1758 30.9672C34.0904 30.6994 33.9247 30.2319 33.8077 29.9284C33.6907 29.6249 33.5419 29.2086 33.477 29.0032L33.359 28.6299H31.771H30.1831L29.9827 29.198ZM50.2382 28.776C50.2186 28.8563 50.2106 31.7853 50.2206 35.2848L50.2386 41.6475L54.9808 41.6642L59.723 41.6808L59.747 40.5929C59.7602 39.9945 59.7597 39.4686 59.7459 39.4244C59.7264 39.3618 58.9529 39.34 56.2939 39.327L52.8672 39.3102L52.8497 37.6708L52.8321 36.0314H55.8561H58.8801V34.8465V33.6616H55.8736H52.8672V32.3306V30.9997L56.3032 30.9672C59.2615 30.9393 59.7479 30.9212 59.8015 30.8374C59.888 30.7021 59.8812 30.5127 59.7899 30.5127C59.7345 30.5127 59.7246 30.2897 59.7532 29.6849C59.7829 29.057 59.7717 28.8297 59.7068 28.7435C59.6268 28.6372 59.3223 28.6299 54.9476 28.6299H50.274L50.2382 28.776ZM31.8676 32.0872C31.9152 32.2746 31.975 32.4573 32.0005 32.493C32.026 32.5287 32.113 32.777 32.1937 33.0448C32.2745 33.3126 32.4982 34.0285 32.691 34.6355C33.2413 36.368 33.303 36.5801 33.2724 36.632C33.2566 36.6588 32.5326 36.6807 31.6635 36.6807C30.185 36.6807 30.0861 36.6733 30.1284 36.567C30.1906 36.4106 30.3154 36.0241 30.4901 35.4471C30.5712 35.1793 30.7939 34.4927 30.9852 33.9213C31.1765 33.35 31.4116 32.6269 31.5077 32.3144C31.6037 32.002 31.7045 31.7463 31.7316 31.7463C31.7588 31.7463 31.8199 31.8997 31.8676 32.0872Z" fill="white"/>
</svg>
