<svg width="70" height="41" viewBox="0 0 70 41" fill="none" xmlns="http://www.w3.org/2000/svg">
<path fill-rule="evenodd" clip-rule="evenodd" d="M17.6645 0.147351C16.2665 0.382936 14.644 0.74064 13.1394 1.14507C8.90275 2.28375 3.1807 4.56523 0.643169 6.12756L0 6.52355L0.033087 6.91066C0.0836385 7.50285 0.335881 8.70175 0.538971 9.31485C0.792319 10.0797 1.50653 11.5052 2.00887 12.2487C2.6712 13.2289 3.1765 13.8285 4.17389 14.8178C6.17179 16.7996 8.68721 18.5104 11.7286 19.9559C12.7632 20.4476 13.0279 20.61 12.795 20.61C12.6574 20.61 10.3689 21.7495 9.52168 22.2398C5.04381 24.8315 2.1578 27.7731 0.75481 31.1755C0.463733 31.8814 0.132569 33.2271 0.0788487 33.9221L0.0314658 34.5362L0.502494 34.8364C1.16453 35.2582 3.63824 36.4804 4.95287 37.035C8.16673 38.391 11.2902 39.4543 14.0905 40.1458C15.7283 40.5502 18.0422 40.9993 18.4913 40.9998L18.6918 41L18.7133 34.1606C18.7347 27.3486 18.7354 27.3188 18.8984 26.746C19.1398 25.8973 19.6111 24.8803 20.1007 24.1512C20.8221 23.0769 20.7562 23.1313 21.2138 23.2328C28.7781 24.9094 36.0284 25.2094 43.6771 24.162C45.109 23.9659 47.2826 23.575 48.328 23.3256C48.6679 23.2445 49.0041 23.1779 49.0751 23.1776C49.3475 23.1765 50.3199 24.6994 50.7608 25.8175C51.3234 27.2446 51.3055 26.9564 51.2925 34.3806L51.2809 41L51.4768 40.9996C52.0509 40.9985 54.4384 40.5154 56.5372 39.9757C60.6762 38.9116 66.3537 36.6792 69.237 34.9823L70 34.5333L69.9521 34.1177C69.7928 32.7352 69.4494 31.5576 68.8472 30.3283C67.1116 26.7853 63.537 23.6539 58.3572 21.1388L57.0833 20.5202L58.4678 19.8433C65.3983 16.4547 69.4312 11.9099 69.938 6.91726L69.9766 6.53675L69.4095 6.17494C66.9079 4.5788 60.4544 2.03995 56.1488 0.958036C54.6431 0.579648 51.7065 0 51.2954 0C51.269 0 51.2641 2.81367 51.2844 6.25268C51.3052 9.75822 51.2922 12.8041 51.2547 13.1852C51.1298 14.4575 50.6223 15.8072 49.8313 16.9713C49.6089 17.2985 49.3624 17.6415 49.2834 17.7335L49.1397 17.9009L48.3428 17.7193C44.2639 16.7903 39.5415 16.2828 34.9762 16.2827C30.5609 16.2826 26.0161 16.7601 21.9902 17.6472L20.8259 17.9037L20.6822 17.7349C20.4718 17.4878 19.9311 16.6735 19.6692 16.2093C19.3253 15.5996 19.015 14.775 18.847 14.0245C18.7011 13.3723 18.6961 13.1333 18.6961 6.67523C18.6961 0.363573 18.6891 0.000440072 18.5672 0.0084347C18.4962 0.0131288 18.09 0.075619 17.6645 0.147351ZM37.3766 17.8229C39.2391 17.9912 41.0852 18.3744 42.6823 18.924C43.6093 19.243 45.0821 19.9135 45.6963 20.296L46.0574 20.5209L45.7644 20.705C44.962 21.2092 43.2899 21.9435 42.0928 22.3176C37.6413 23.7083 31.6044 23.6381 27.354 22.146C26.1789 21.7335 24.0962 20.7481 23.9701 20.5448C23.9169 20.4593 25.1319 19.8042 26.1388 19.3754C27.9972 18.5839 30.2445 18.0352 32.4762 17.8277C33.4021 17.7417 36.4447 17.7387 37.3766 17.8229Z" fill="#171717"/>
</svg>
