<svg width="92" height="32" viewBox="0 0 92 32" fill="none" xmlns="http://www.w3.org/2000/svg">
<path fill-rule="evenodd" clip-rule="evenodd" d="M0 0.0634712C0 0.0982961 1.95295 5.68002 4.33976 12.4675C6.72658 19.2548 9.23115 26.3875 9.90568 28.3181L11.1318 31.8279L14.4438 31.8277L17.7558 31.8275L22.8915 18.6285L28.0274 5.42969H59.8014H91.5755L91.7884 3.0425C91.9056 1.72964 92.0007 0.507582 92 0.327092C91.9987 0.0155401 90.2726 0.00131061 57.5549 0.046246L23.1112 0.0936154L21.7923 3.46377C21.067 5.31735 19.1689 10.187 17.5745 14.2851C15.9802 18.3832 14.646 21.706 14.6096 21.6691C14.5733 21.6321 12.9659 17.0996 11.0376 11.5967C9.10953 6.0938 7.39909 1.23348 7.2368 0.795731L6.94185 0H3.47093C1.56195 0 0 0.0284591 0 0.0634712ZM78.8221 8.97472C77.3704 9.21007 76.1161 9.69125 74.9418 10.4636C72.9219 11.792 72.0808 13.2698 72.0525 15.5401C72.0378 16.7219 72.1169 17.1138 72.5513 18.0142C73.1898 19.3372 74.4054 20.4544 75.7799 20.9811C76.3514 21.1999 78.2639 21.7993 80.0299 22.3125C83.5985 23.3499 84.0671 23.5493 84.6226 24.2679C85.9636 26.0028 83.6417 27.7953 80.5193 27.436C78.619 27.2172 77.7067 26.6828 77.0715 25.4166L76.7194 24.7145H73.9383H71.157L71.276 25.6038C71.6613 28.4853 74.3236 30.9957 77.7856 31.7423C79.3857 32.0874 82.7241 32.0855 84.3325 31.7388C86.9846 31.167 88.804 29.8279 89.7562 27.7468C90.1751 26.8311 90.2445 26.4289 90.2474 24.9017C90.2502 23.3694 90.1839 22.9781 89.7687 22.0771C89.1893 20.8199 88.2453 19.8174 87.0707 19.2119C86.5932 18.9659 84.7144 18.3685 82.8953 17.8843C81.0761 17.3999 79.3605 16.8843 79.0826 16.7381C77.1367 15.7141 77.554 13.7143 79.7846 13.3739C80.8781 13.2071 82.6607 13.3982 83.3392 13.7553C83.9174 14.0595 84.5584 14.8 84.7356 15.3683C84.8392 15.7006 85.0477 15.7274 87.5237 15.7274H90.1998L90.0721 15.0356C89.6209 12.5883 87.2946 10.2971 84.3073 9.35779C82.9861 8.94251 80.2151 8.74892 78.8221 8.97472ZM31.7079 10.0637C31.1062 11.5254 23.4989 31.1889 23.4139 31.5016C23.3314 31.8043 23.5625 31.8292 26.4557 31.8292H29.5866L30.2032 30.0509L30.8196 28.2726L35.0596 28.2722L39.2996 28.2718L39.7985 29.8165C40.073 30.666 40.3652 31.4686 40.4482 31.5999C40.5626 31.7811 41.3347 31.8262 43.656 31.7871L46.7131 31.7356L42.7224 20.5491L38.7315 9.36285L35.3641 9.3621L31.9968 9.36154L31.7079 10.0637ZM49.1273 20.5954V31.8292H51.9793H54.8312V26.2123C54.8312 23.123 54.8932 20.5991 54.9692 20.6038C55.0452 20.6083 56.9288 23.1327 59.1552 26.2134L63.2031 31.8146L65.8251 31.8219L68.447 31.8292V20.5954V9.36154H65.4137H62.3803L62.3317 15.3537L62.2831 21.3458L58.6035 15.3537L54.9238 9.36154H52.0256H49.1273V20.5954ZM36.3266 20.5562C36.9719 22.5201 37.4525 24.1747 37.3949 24.2335C37.2584 24.3722 32.845 24.3728 32.7085 24.2338C32.6511 24.1754 33.1429 22.4853 33.8014 20.478C34.46 18.4705 35.0335 16.8637 35.0762 16.9069C35.1187 16.9504 35.6815 18.5926 36.3266 20.5562Z" fill="white"/>
</svg>
