<svg width="34" height="14" viewBox="0 0 34 14" fill="none" xmlns="http://www.w3.org/2000/svg">
<path d="M27.6444 13.2215C29.1237 13.2215 29.8199 12.6665 30.4281 10.9843L33.0924 3.63681H31.5498L29.7631 9.3213H29.7318L27.9452 3.64451H26.3589L28.9292 10.6378L28.7915 11.0632C28.6943 11.6721 28.1383 12.1064 27.5126 12.0615C27.3931 12.0615 27.1615 12.0493 27.0675 12.0371V13.192C27.2587 13.2177 27.4519 13.2299 27.6444 13.2292V13.2215ZM22.5037 9.542C21.6946 9.542 21.181 9.15705 21.181 8.57448C21.181 7.97075 21.6763 7.61916 22.6231 7.56334L24.3093 7.45876V8.00154C24.2721 8.89592 23.504 9.59205 22.5944 9.55548C22.5637 9.55419 22.5337 9.55163 22.5037 9.54906V9.542ZM22.0965 10.6821C23.0146 10.7065 23.8734 10.2362 24.3347 9.45539H24.366V10.6103H25.7703V5.8272C25.7703 4.44008 24.6421 3.54634 22.905 3.54634C21.2939 3.54634 20.1024 4.45227 20.0587 5.69759H21.4257C21.5889 5.06434 22.2009 4.64667 22.8613 4.71724C23.7892 4.71724 24.3093 5.14262 24.3093 5.92536V6.45531L22.4169 6.56631C20.6551 6.67089 19.7024 7.37984 19.7024 8.61298C19.7011 9.86344 20.6851 10.6892 22.0959 10.6892L22.0965 10.6821ZM13.9588 2.2561H15.7076C17.0244 2.2561 17.7767 2.94646 17.7767 4.16099C17.7767 5.37552 17.0244 6.07164 15.7017 6.07164H13.9588V2.2561ZM12.4416 0.998588V10.6083H13.9588V7.33237H16.0593C17.7702 7.42283 19.2312 6.13259 19.3233 4.45034C19.3285 4.35475 19.3291 4.25979 19.3252 4.16419C19.4061 2.50055 18.1004 1.08777 16.4084 1.00757C16.3085 1.00308 16.2094 1.00372 16.1095 1.00821L12.4416 0.998588ZM7.40602 2.79183C6.53424 2.74243 5.78839 3.2788 5.37469 3.2788C4.96098 3.2788 4.32149 2.81685 3.63177 2.82969C2.71822 2.85278 1.88558 3.35002 1.44382 4.13661C0.503518 5.72711 1.19912 8.08174 2.1081 9.37583C2.55313 10.0174 3.0869 10.72 3.78838 10.6949C4.45266 10.6706 4.71628 10.2696 5.51889 10.2696C6.32151 10.2696 6.55969 10.6949 7.26181 10.6821C7.98874 10.6699 8.44682 10.0405 8.89315 9.39893C9.20767 8.94468 9.45237 8.44745 9.62007 7.92327C8.76329 7.555 8.20799 6.72542 8.20342 5.80602C8.21647 4.99505 8.64845 4.24696 9.35057 3.82159C8.90294 3.19668 8.1845 2.813 7.40733 2.78606L7.40602 2.79183ZM6.86181 1.94301C6.48008 2.41586 5.89606 2.68725 5.28202 2.67635C5.24287 2.08737 5.44646 1.50801 5.84647 1.06788C6.24451 0.613634 6.80569 0.328768 7.41255 0.272949C7.45562 0.87861 7.2579 1.47657 6.8605 1.94108" fill="white"/>
</svg>
