<svg width="49" height="19" viewBox="0 0 49 19" fill="none" xmlns="http://www.w3.org/2000/svg">
<g clip-path="url(#clip0_198_2734)">
<path fill-rule="evenodd" clip-rule="evenodd" d="M47.0825 11.3104H47.0417L46.419 9.0982C46.2722 8.58669 46.1151 8.51562 45.8167 8.51562H45.2344L46.3434 12.0143C46.4094 12.2167 46.5155 12.2726 46.7385 12.2675C46.6063 12.7385 46.3076 13.1031 45.8218 13.1031C45.7358 13.1031 45.6498 13.0929 45.5533 13.0673C45.5228 13.1586 45.5127 13.2853 45.5127 13.3611C45.5127 13.675 45.7662 13.8777 46.1255 13.8777C46.9356 13.8777 47.3155 12.9153 47.5532 12.2625L48.9457 8.51562H48.034L47.0825 11.3104Z" fill="white"/>
<path fill-rule="evenodd" clip-rule="evenodd" d="M21.9503 11.4672C21.0897 11.4672 20.7047 10.8595 20.7047 9.97878C20.7047 9.07779 21.0183 8.16616 22.011 8.16616C22.2844 8.16616 22.578 8.24228 22.902 8.49522C23.1451 8.38895 23.2057 8.25722 23.2057 8.08496C23.2057 7.52343 22.3958 7.33545 21.9602 7.33545C20.3706 7.33545 19.6211 8.49015 19.6211 10.0344C19.6211 11.3406 20.3097 12.3329 21.6818 12.3329C22.2388 12.3329 22.811 12.171 23.2463 11.8064L22.9678 11.1987C22.644 11.366 22.3146 11.4672 21.9503 11.4672Z" fill="white"/>
<path fill-rule="evenodd" clip-rule="evenodd" d="M25.2372 11.6603C24.6501 11.6603 24.4575 11.0121 24.4575 10.3993C24.4575 9.81192 24.6549 9.14386 25.2575 9.14386C25.8498 9.14386 26.0322 9.78626 26.0322 10.3993C26.0322 10.9867 25.8446 11.6603 25.2372 11.6603ZM25.2626 8.47021C24.1386 8.47021 23.4297 9.32599 23.4297 10.465C23.4297 11.5791 24.0171 12.3281 25.2319 12.3281C26.3562 12.3281 27.0699 11.4779 27.0699 10.3338C27.0699 9.21973 26.4828 8.47021 25.2626 8.47021Z" fill="white"/>
<path fill-rule="evenodd" clip-rule="evenodd" d="M32.9849 9.96392C32.9849 9.21973 32.6254 8.51562 31.7546 8.51562C31.3293 8.51562 30.9647 8.75843 30.6712 9.2248C30.4433 8.69828 30.0533 8.51562 29.6435 8.51562C29.2685 8.51562 28.8585 8.69347 28.5855 9.12354C28.5345 8.69347 28.2914 8.53615 28.008 8.53615C27.836 8.53615 27.6738 8.56661 27.5117 8.71354C27.5777 8.83481 27.684 9.068 27.689 9.47773V12.2675H28.6764V9.83219C28.8385 9.48793 29.0762 9.3514 29.2941 9.3514C29.6029 9.3514 29.8458 9.57393 29.8458 10.1205V12.2675H30.8282V9.83219C30.9952 9.48793 31.218 9.3514 31.4407 9.3514C31.7546 9.3514 32.0028 9.55386 32.0028 10.1205V11.569C32.0028 11.9737 32.0332 12.3028 32.5393 12.3028C32.752 12.3028 32.9646 12.2424 33.0813 12.1866C33.0153 12.0346 32.99 11.7611 32.99 11.4929L32.9849 9.96392Z" fill="white"/>
<path fill-rule="evenodd" clip-rule="evenodd" d="M39.3229 11.569C39.1357 11.569 38.918 11.5282 38.6546 11.4271V9.77665C38.8419 9.49299 39.1408 9.27526 39.4701 9.27526C39.9966 9.27526 40.1483 9.83218 40.1483 10.3993C40.1483 11.0679 39.8954 11.569 39.3229 11.569ZM39.7586 8.47021C39.2674 8.47021 38.847 8.67775 38.5536 9.07813C38.4928 8.7036 38.255 8.53614 37.9919 8.53614C37.8198 8.53614 37.6628 8.56661 37.4961 8.71354C37.5669 8.83481 37.673 9.06799 37.673 9.47773V13.184C37.673 13.5889 37.6988 13.918 38.2098 13.918C38.4169 13.918 38.6343 13.8576 38.7508 13.8016C38.68 13.6546 38.6546 13.3763 38.6546 13.1084V12.1307C38.9584 12.2726 39.2623 12.3281 39.5813 12.3281C40.447 12.3281 41.1711 11.7362 41.1711 10.3486C41.1711 9.35165 40.7964 8.47021 39.7586 8.47021Z" fill="white"/>
<path fill-rule="evenodd" clip-rule="evenodd" d="M36.112 9.96898L34.6904 9.97405C34.7409 9.40212 35.0398 9.14386 35.4594 9.14386C35.8999 9.14386 36.1273 9.43232 36.1273 9.79185C36.1273 9.84745 36.1222 9.90831 36.112 9.96898ZM35.4851 8.47021C34.2352 8.47021 33.6328 9.32599 33.6328 10.5158C33.6328 11.4525 34.0685 12.3284 35.4546 12.3284C36.0057 12.3284 36.6532 12.1361 36.876 11.8826L36.6837 11.331C36.3901 11.4426 36.0361 11.5484 35.6921 11.5484C35.1966 11.5484 34.7059 11.3612 34.6904 10.5868H36.9316C37.0178 10.3539 37.0582 10.1666 37.0582 9.93345C37.0582 9.08267 36.4918 8.47021 35.4851 8.47021Z" fill="white"/>
<path fill-rule="evenodd" clip-rule="evenodd" d="M43.7709 11.1133C43.6341 11.3663 43.3659 11.5941 43.0061 11.5941C42.7788 11.5941 42.5608 11.4929 42.5608 11.1892C42.5608 10.7388 42.9559 10.617 43.3504 10.617C43.4976 10.617 43.6494 10.6376 43.7709 10.6624V11.1133ZM44.7327 9.90831C44.7327 8.95153 44.2875 8.47021 43.1782 8.47021C42.3837 8.47021 41.8268 8.74881 41.8268 9.169C41.8268 9.31612 41.8973 9.44759 42.0141 9.5432C42.2574 9.37172 42.7331 9.2296 43.1127 9.2296C43.4672 9.2296 43.7709 9.33593 43.7709 9.78626V10.0854C43.5887 10.0502 43.3761 10.0245 43.1682 10.0245C42.3885 10.0245 41.5586 10.3288 41.5586 11.2904C41.5586 11.9235 41.9935 12.3281 42.7537 12.3281C43.199 12.3281 43.6592 12.1254 43.8975 11.7763C43.9581 12.1559 44.1304 12.3028 44.4544 12.3028C44.6267 12.3028 44.7942 12.2573 44.9149 12.1663C44.8139 11.9891 44.7327 11.7159 44.7327 11.3964V9.90831Z" fill="white"/>
<path fill-rule="evenodd" clip-rule="evenodd" d="M8.75805 11.2514C8.21684 11.2514 7.77658 10.8107 7.77658 10.2697C7.77658 9.72852 8.21684 9.28781 8.75805 9.28781C9.29899 9.28781 9.73997 9.72852 9.73997 10.2697C9.73997 10.8107 9.29899 11.2514 8.75805 11.2514ZM10.59 11.3065C10.764 11.0002 10.8637 10.6465 10.8637 10.2697C10.8637 9.89266 10.764 9.53899 10.5897 9.23246L12.8443 6.97808C13.0638 6.7586 13.0638 6.40265 12.8443 6.18317C12.6246 5.96368 12.2687 5.96368 12.0494 6.18317L9.79479 8.43781C9.48827 8.26347 9.13485 8.1635 8.75805 8.1635C7.59698 8.1635 6.65234 9.1084 6.65234 10.2697C6.65234 11.4308 7.59698 12.3754 8.75805 12.3754C9.13485 12.3754 9.48827 12.2755 9.79479 12.1016L12.0494 14.356C12.159 14.4656 12.3026 14.5207 12.4465 14.5207C12.5904 14.5207 12.734 14.4656 12.8443 14.356C13.0638 14.1365 13.0638 13.7806 12.8443 13.5609L10.59 11.3065Z" fill="#666666"/>
<path fill-rule="evenodd" clip-rule="evenodd" d="M7.62109 1.64455H9.89302V0.520508H7.62109V1.64455Z" fill="#666666"/>
<path fill-rule="evenodd" clip-rule="evenodd" d="M11.7109 16.0936L12.276 17.3054C12.56 17.1629 12.835 17.0035 13.0979 16.8289L12.3321 15.7344C12.1322 15.865 11.9248 15.985 11.7109 16.0936Z" fill="#666666"/>
<path fill-rule="evenodd" clip-rule="evenodd" d="M11.3309 16.2734C11.112 16.3676 10.8872 16.4493 10.6562 16.5194L11.0024 17.8103C11.3081 17.7189 11.6062 17.6099 11.8955 17.4837L11.3309 16.2734Z" fill="#666666"/>
<path fill-rule="evenodd" clip-rule="evenodd" d="M12.6758 15.4933L13.4413 16.5869C13.6958 16.3978 13.9386 16.1933 14.1685 15.9759L13.2239 15.0308C13.049 15.1944 12.8669 15.3494 12.6758 15.4933Z" fill="#666666"/>
<path fill-rule="evenodd" clip-rule="evenodd" d="M16.3023 12.5085L15.0113 12.1626C14.9415 12.3933 14.8595 12.6181 14.7656 12.837L15.9762 13.4016C16.1021 13.1121 16.2114 12.8145 16.3023 12.5085Z" fill="#666666"/>
<path fill-rule="evenodd" clip-rule="evenodd" d="M10.246 16.6274C10.0148 16.6815 9.77881 16.7233 9.53906 16.7518L9.65579 18.0838C9.97367 18.0475 10.2866 17.9922 10.592 17.9189L10.246 16.6274Z" fill="#666666"/>
<path fill-rule="evenodd" clip-rule="evenodd" d="M13.5195 14.7327L14.4646 15.6778C14.6821 15.4481 14.8864 15.2053 15.0757 14.9508L13.9816 14.1846C13.8379 14.3764 13.6826 14.5586 13.5195 14.7327Z" fill="#666666"/>
<path fill-rule="evenodd" clip-rule="evenodd" d="M16.5733 11.1648L15.2418 11.0483C15.2128 11.2881 15.1715 11.5241 15.1172 11.755L16.4089 12.1011C16.482 11.7958 16.537 11.483 16.5733 11.1648Z" fill="#666666"/>
<path fill-rule="evenodd" clip-rule="evenodd" d="M15.7981 13.7834L14.5866 13.2183C14.4777 13.4322 14.3577 13.6395 14.2266 13.8389L15.3211 14.6054C15.4965 14.3418 15.6553 14.0677 15.7981 13.7834Z" fill="#666666"/>
<path fill-rule="evenodd" clip-rule="evenodd" d="M15.2812 9.91113C15.2876 10.0299 15.2916 10.1494 15.2916 10.2697C15.2916 10.3902 15.2876 10.5097 15.2812 10.6287L16.6121 10.7449C16.6212 10.5876 16.6268 10.4295 16.6268 10.2697C16.6268 10.1103 16.6212 9.95172 16.6121 9.79492L15.2812 9.91113Z" fill="#666666"/>
<path fill-rule="evenodd" clip-rule="evenodd" d="M15.1172 8.78462C15.1712 9.01599 15.2128 9.25145 15.2418 9.4912L16.5733 9.37473C16.537 9.05659 16.4822 8.74402 16.4091 8.43848L15.1172 8.78462Z" fill="#666666"/>
<path fill-rule="evenodd" clip-rule="evenodd" d="M14.7656 7.70245C14.86 7.92115 14.9415 8.14648 15.0117 8.37687L16.3025 8.03105C16.2114 7.72531 16.1023 7.42717 15.9762 7.13818L14.7656 7.70245Z" fill="#666666"/>
<path fill-rule="evenodd" clip-rule="evenodd" d="M8.40527 3.74934C8.524 3.74298 8.64352 3.73895 8.76356 3.73895C8.88405 3.73895 9.00382 3.74298 9.12256 3.74934L9.23903 2.41881C9.08171 2.40939 8.92341 2.40381 8.76356 2.40381C8.60422 2.40381 8.44612 2.40939 8.28906 2.41855L8.40527 3.74934Z" fill="#666666"/>
<path fill-rule="evenodd" clip-rule="evenodd" d="M14.2266 6.70081C14.3573 6.90054 14.477 7.10755 14.5859 7.32145L15.7974 6.75667C15.6549 6.47223 15.4958 6.19793 15.3209 5.93408L14.2266 6.70081Z" fill="#666666"/>
<path fill-rule="evenodd" clip-rule="evenodd" d="M9.53906 3.78717C9.77907 3.81581 10.0151 3.85771 10.2462 3.91149L10.5923 2.62C10.2868 2.54666 9.97393 2.49165 9.65553 2.45508L9.53906 3.78717Z" fill="#666666"/>
<path fill-rule="evenodd" clip-rule="evenodd" d="M11.7109 4.44575C11.9248 4.55435 12.1322 4.67432 12.3321 4.80501L13.0981 3.71039C12.835 3.53586 12.5602 3.37653 12.276 3.23389L11.7109 4.44575Z" fill="#666666"/>
<path fill-rule="evenodd" clip-rule="evenodd" d="M13.5195 5.80645C13.6824 5.98099 13.8383 6.16318 13.9819 6.35473L15.0757 5.58898C14.8862 5.33423 14.6819 5.09143 14.4644 4.86182L13.5195 5.80645Z" fill="#666666"/>
<path fill-rule="evenodd" clip-rule="evenodd" d="M10.6562 4.01972C10.8869 4.08948 11.112 4.17145 11.3309 4.26557L11.8955 3.05501C11.6062 2.92893 11.3081 2.82007 11.0024 2.729L10.6562 4.01972Z" fill="#666666"/>
<path fill-rule="evenodd" clip-rule="evenodd" d="M12.6758 5.0467C12.8666 5.19058 13.0493 5.3453 13.2233 5.50873L14.1684 4.56409C13.9386 4.34617 13.6955 4.14188 13.4413 3.95312L12.6758 5.0467Z" fill="#666666"/>
<path fill-rule="evenodd" clip-rule="evenodd" d="M1.21875 8.03082L2.50946 8.37664C2.57923 8.14625 2.66146 7.92144 2.75506 7.70248L1.54476 7.1377C1.41842 7.42694 1.30956 7.72508 1.21875 8.03082Z" fill="#666666"/>
<path fill-rule="evenodd" clip-rule="evenodd" d="M4.42578 16.8289C4.68917 17.0038 4.96374 17.1626 5.24791 17.3054L5.81295 16.0936C5.5988 15.985 5.39153 15.8655 5.19257 15.7344L4.42578 16.8289Z" fill="#666666"/>
<path fill-rule="evenodd" clip-rule="evenodd" d="M3.35547 15.9763C3.5856 16.1941 3.8284 16.3983 4.08316 16.5876L4.84891 15.4938C4.65762 15.3499 4.4749 15.1949 4.30062 15.0312L3.35547 15.9763Z" fill="#666666"/>
<path fill-rule="evenodd" clip-rule="evenodd" d="M2.44531 14.9506C2.63433 15.2053 2.83855 15.4484 3.0568 15.678L4.00143 14.7329C3.83801 14.5585 3.68276 14.3764 3.53915 14.1851L2.44531 14.9506Z" fill="#666666"/>
<path fill-rule="evenodd" clip-rule="evenodd" d="M1.72656 13.7836C1.86966 14.0675 2.02854 14.342 2.20359 14.6057L3.29795 13.8389C3.16726 13.6395 3.04748 13.4322 2.93842 13.2183L1.72656 13.7836Z" fill="#666666"/>
<path fill-rule="evenodd" clip-rule="evenodd" d="M6.87176 16.5191C6.6411 16.4493 6.41604 16.3674 6.19733 16.2734L5.63281 17.484C5.9218 17.6099 6.21994 17.7187 6.52568 17.8101L6.87176 16.5191Z" fill="#666666"/>
<path fill-rule="evenodd" clip-rule="evenodd" d="M7.98215 16.7518C7.74266 16.7233 7.50668 16.6817 7.27577 16.6274L6.92969 17.9191C7.23491 17.9925 7.54754 18.0475 7.86523 18.0838L7.98215 16.7518Z" fill="#666666"/>
<mask id="mask0_198_2734" style="mask-type:alpha" maskUnits="userSpaceOnUse" x="0" y="9" width="10" height="10">
<path d="M0.898438 9.79492H9.23563V18.1353H0.898438V9.79492Z" fill="white"/>
</mask>
<g mask="url(#mask0_198_2734)">
<path fill-rule="evenodd" clip-rule="evenodd" d="M9.23538 18.1206L9.11918 16.79C9.00018 16.7963 8.8804 16.8004 8.75991 16.8004C8.63987 16.8004 8.52036 16.7963 8.40162 16.79L8.28516 18.1206C8.44222 18.1297 8.60058 18.1353 8.75991 18.1353C8.9195 18.1353 9.07832 18.1297 9.23538 18.1206Z" fill="#666666"/>
<path fill-rule="evenodd" clip-rule="evenodd" d="M0.894531 10.2697C0.894531 10.4298 0.900117 10.5881 0.909731 10.7454L2.24033 10.6289C2.2337 10.5099 2.22993 10.3902 2.22993 10.2697C2.22993 10.1494 2.2337 10.0299 2.24033 9.91113L0.909731 9.79492C0.900117 9.95172 0.894531 10.1103 0.894531 10.2697Z" fill="#666666"/>
</g>
<path fill-rule="evenodd" clip-rule="evenodd" d="M7.27577 3.91149C7.50694 3.85771 7.74292 3.81555 7.98241 3.78691L7.86568 2.45508C7.5478 2.49165 7.23517 2.54666 6.92969 2.62L7.27577 3.91149Z" fill="#666666"/>
<path fill-rule="evenodd" clip-rule="evenodd" d="M3.35547 4.56412L4.30062 5.50876C4.47464 5.34507 4.6571 5.19009 4.84865 5.04647L4.08264 3.95264C3.82788 4.14191 3.58508 4.34594 3.35547 4.56412Z" fill="#666666"/>
<path fill-rule="evenodd" clip-rule="evenodd" d="M4.42578 3.7104L5.19199 4.80475C5.39172 4.67406 5.59873 4.55435 5.81315 4.44575L5.24759 3.23389C4.96367 3.37653 4.68911 3.5356 4.42578 3.7104Z" fill="#666666"/>
<path fill-rule="evenodd" clip-rule="evenodd" d="M5.63281 3.05501L6.19759 4.26531C6.4163 4.17119 6.64162 4.08948 6.87228 4.01946L6.5262 2.729C6.2202 2.82007 5.92206 2.92867 5.63281 3.05501Z" fill="#666666"/>
<path fill-rule="evenodd" clip-rule="evenodd" d="M2.44531 5.58876L3.53915 6.35451C3.68276 6.16295 3.83801 5.9805 4.00169 5.80648L3.05654 4.86133C2.83881 5.0912 2.63433 5.334 2.44531 5.58876Z" fill="#666666"/>
<path fill-rule="evenodd" clip-rule="evenodd" d="M1.72656 6.75667L2.93816 7.32145C3.04696 7.10755 3.167 6.90028 3.29769 6.70061L2.20307 5.93408C2.02828 6.19767 1.86894 6.47197 1.72656 6.75667Z" fill="#666666"/>
<path fill-rule="evenodd" clip-rule="evenodd" d="M2.7548 12.8373C2.6612 12.6183 2.57923 12.3933 2.50921 12.1626L1.21875 12.5089C1.30956 12.8145 1.41894 13.1126 1.54476 13.4016L2.7548 12.8373Z" fill="#666666"/>
<path fill-rule="evenodd" clip-rule="evenodd" d="M2.28079 11.0488L0.949219 11.1656C0.985463 11.4834 1.04029 11.7961 1.11388 12.1018L2.40537 11.7555C2.35133 11.5246 2.3097 11.2886 2.28079 11.0488Z" fill="#666666"/>
<path fill-rule="evenodd" clip-rule="evenodd" d="M0.949219 9.37454L2.28105 9.4912C2.3097 9.25145 2.35159 9.01547 2.40563 8.78462L1.11414 8.43848C1.04106 8.74402 0.985528 9.05659 0.949219 9.37454Z" fill="#666666"/>
</g>
<defs>
<clipPath id="clip0_198_2734">
<rect width="48.0665" height="17.6677" fill="white" transform="translate(0.898438 0.52002)"/>
</clipPath>
</defs>
</svg>
