<svg width="32" height="20" viewBox="0 0 32 20" fill="none" xmlns="http://www.w3.org/2000/svg">
<path d="M20.2207 2.18766L11.8945 2.21533L12.1511 17.3142L20.4773 17.2865L20.2207 2.18766Z" fill="#808080"/>
<path d="M12.4406 9.79629C12.3882 6.72524 13.7765 3.99659 15.9517 2.22678C14.3091 0.950307 12.25 0.182634 10.0182 0.190021C4.73083 0.207521 0.526495 4.52116 0.617182 9.83543C0.707869 15.1497 5.05894 19.435 10.3463 19.4175C12.5781 19.4101 14.6108 18.6289 16.2096 17.3417C13.9747 15.6132 12.4931 12.8674 12.4406 9.79629Z" fill="white"/>
<path d="M31.7526 9.66706C31.8433 14.9813 27.6389 19.295 22.3516 19.3125C20.1197 19.3199 18.0606 18.5522 16.418 17.2757C18.6198 15.5058 19.9815 12.7773 19.9291 9.70619C19.8767 6.63513 18.3954 3.91599 16.1601 2.16077C17.759 0.873572 19.7916 0.0923563 22.0235 0.0849693C27.3108 0.0674691 31.6623 4.3795 31.7526 9.66706Z" fill="#DBDBDB"/>
</svg>
