<svg width="29" height="19" viewBox="0 0 29 19" fill="none" xmlns="http://www.w3.org/2000/svg">
<path d="M0.46875 2.68376C0.46875 1.708 1.24122 0.916992 2.19411 0.916992H26.3491C27.302 0.916992 28.0745 1.708 28.0745 2.68376V16.8179C28.0745 17.7936 27.302 18.5847 26.3491 18.5847H2.19411C1.24122 18.5847 0.46875 17.7936 0.46875 16.8179V2.68376Z" fill="white"/>
<path d="M14.2081 10.5133V12.1168H13.2891V6.96875H15.0014C16.6266 6.96875 17.3173 7.55021 17.3173 8.71229C17.3173 9.91073 16.5086 10.5133 15.0014 10.5133H14.2081ZM14.2081 7.81511V9.66699H15.0715C15.9244 9.66699 16.3656 9.38783 16.3656 8.68929C16.3656 8.05689 15.9819 7.81407 15.0869 7.81407L14.2081 7.81511Z" fill="#171717"/>
<path d="M17.8016 8.69736C18.0432 8.51597 18.4846 8.36621 19.1178 8.36621C20.1912 8.36621 20.7208 8.73475 20.7208 9.69048V12.1171H19.912V11.4551C19.7356 11.8811 19.2876 12.1757 18.6985 12.1757C17.9561 12.1757 17.5156 11.7564 17.5156 11.0358C17.5156 10.1972 18.1258 9.96205 19.0295 9.96205H19.8603V9.80079C19.8603 9.27881 19.6108 9.11663 19.1178 9.11663C18.4415 9.11663 18.052 9.38153 17.8025 9.77111L17.8016 8.69736ZM19.8594 10.8189V10.5214H19.1322C18.6247 10.5214 18.382 10.6173 18.382 10.9475C18.382 11.2267 18.5872 11.4033 18.97 11.4033C19.5504 11.4033 19.8229 11.0723 19.8594 10.8189Z" fill="#171717"/>
<path d="M21.1484 8.44043H22.1079L23.1151 10.9622L23.9382 8.44043H24.8496L23.3799 12.5071C23.0556 13.3889 22.7256 13.5875 22.2402 13.5875C22.0119 13.5875 21.7606 13.5214 21.6521 13.4264V12.6242C21.7704 12.7396 21.9282 12.8055 22.0935 12.8083C22.3572 12.8083 22.5559 12.6318 22.6959 12.1367L21.1484 8.44043Z" fill="#171717"/>
<path d="M6.12109 8.70166V9.83108L7.61766 10.7696L11.2008 8.13263C11.0743 7.85451 10.9159 7.59214 10.7288 7.35059L7.61766 9.64014L6.12109 8.70166Z" fill="#171717"/>
<path d="M10.6407 9.66766V9.74933C10.6417 10.4258 10.4163 11.083 10.0002 11.6164C9.58414 12.1498 9.0015 12.5283 8.34523 12.6918C7.68895 12.8552 6.99685 12.794 6.37937 12.5181C5.76189 12.2421 5.25458 11.7673 4.93841 11.1693C4.62224 10.5713 4.51541 9.88459 4.63496 9.21884C4.75453 8.55296 5.09358 7.94644 5.59805 7.49589C6.10252 7.04527 6.74332 6.77668 7.41821 6.73293C8.0931 6.68916 8.76321 6.87276 9.3216 7.25446L10.0891 6.69115C9.39518 6.13027 8.53127 5.82201 7.63916 5.81696C6.74703 5.8119 5.87968 6.11035 5.17949 6.66333C4.47929 7.2163 3.98784 7.99096 3.7858 8.86008C3.58375 9.72931 3.68312 10.6413 4.06759 11.4466C4.45206 12.2518 5.0988 12.9024 5.90164 13.2915C6.70447 13.6806 7.61573 13.7853 8.48583 13.5881C9.35591 13.391 10.1332 12.9037 10.69 12.2066C11.2468 11.5094 11.5501 10.6435 11.5501 9.75117C11.55 9.51468 11.5289 9.27865 11.4868 9.04596L10.6407 9.66766Z" fill="#171717"/>
</svg>
