<svg width="63" height="16" viewBox="0 0 63 16" fill="none" xmlns="http://www.w3.org/2000/svg">
<g clip-path="url(#clip0_198_2682)">
<path d="M32.4269 4.44118H30.4195L28.9988 6.93779H28.2676L28.2442 1.53467H26.3438V11.2929H28.2442L28.2676 8.61463H28.9941L30.8806 11.2929H32.9859L30.5265 7.74361L32.4269 4.44118Z" fill="white"/>
<path d="M46.8128 7.65516C46.4267 7.40532 46.0082 7.20943 45.569 7.07295L45.1498 6.91457L45.0381 6.87264C44.7773 6.77484 44.5024 6.67236 44.4931 6.40686C44.4908 6.32822 44.5081 6.25023 44.544 6.18019C44.5798 6.11015 44.6328 6.0503 44.698 6.0063C44.8357 5.91144 44.997 5.85661 45.1638 5.84792C45.5277 5.8228 45.8885 5.93034 46.1792 6.15068L46.2304 6.1833L47.2458 5.01417L47.1947 4.97225C47.0682 4.85956 46.931 4.7597 46.7848 4.67414C46.5228 4.52431 46.2381 4.41887 45.9418 4.36206C45.5148 4.27124 45.0736 4.27124 44.6469 4.36206C44.2342 4.41667 43.8427 4.57715 43.5104 4.82784C43.2977 4.99414 43.1201 5.20066 42.9874 5.43563C42.8549 5.67061 42.7698 5.92941 42.7371 6.19725C42.6789 6.68064 42.8016 7.16846 43.0818 7.56668C43.4538 7.97877 43.9404 8.27064 44.4791 8.40508L44.563 8.43303L44.7539 8.49826C45.4433 8.73114 45.6389 8.82429 45.7506 8.96405C45.8027 9.03434 45.832 9.11885 45.8345 9.20625C45.8345 9.53696 45.4293 9.67204 45.1545 9.75587C44.9624 9.79197 44.7649 9.78826 44.5742 9.745C44.3835 9.70174 44.2038 9.61983 44.046 9.50436C43.7906 9.33359 43.5721 9.11345 43.4031 8.85692C43.2961 8.9687 42.2433 10.0074 42.262 10.026L42.2947 10.0726C42.8018 10.7077 43.5125 11.1485 44.3068 11.3209C44.4882 11.356 44.6719 11.3794 44.8565 11.3908H45.0474C45.6749 11.4039 46.2895 11.2127 46.7988 10.8458C47.1432 10.6022 47.4073 10.2618 47.5581 9.86767C47.6497 9.60312 47.6819 9.3217 47.6529 9.04324C47.624 8.76477 47.5345 8.49606 47.3903 8.25603C47.243 8.01667 47.046 7.81177 46.8128 7.65516Z" fill="white"/>
<path d="M52.9515 7.65525C52.567 7.40543 52.1504 7.20952 51.7126 7.07301L51.2887 6.91466L51.1817 6.87273C50.9162 6.7749 50.646 6.67243 50.632 6.40694C50.6332 6.32844 50.6528 6.25135 50.6893 6.18177C50.7257 6.11223 50.7778 6.05214 50.8416 6.00636C50.9793 5.9115 51.1405 5.8567 51.3074 5.84801C51.6713 5.82372 52.0316 5.93118 52.3228 6.15076L52.3693 6.18336L53.3848 5.01424L53.3383 4.97231C53.2109 4.85852 53.0721 4.75859 52.9237 4.67423C52.6633 4.52457 52.3801 4.4191 52.0852 4.36214C51.6568 4.27121 51.2142 4.27121 50.7858 4.36214C50.3735 4.41837 49.9823 4.57867 49.6491 4.82793C49.4352 4.99264 49.256 5.19802 49.1216 5.43223C48.9875 5.66644 48.9008 5.92487 48.8666 6.19269C48.8056 6.67624 48.9286 7.16504 49.2113 7.5621C49.5834 7.97418 50.07 8.26605 50.6086 8.40052L50.6879 8.42847L50.8788 8.49367C51.5729 8.72655 51.7685 8.81973 51.8802 8.95946C51.934 9.02856 51.962 9.11419 51.9594 9.20166C51.9594 9.53237 51.5589 9.66745 51.284 9.7513C51.0912 9.78748 50.8928 9.78383 50.7014 9.7406C50.51 9.69734 50.3294 9.61538 50.1709 9.49977C49.9176 9.32653 49.6995 9.10683 49.528 8.85233C49.4257 8.96411 48.3728 10.0028 48.3869 10.0215L48.424 10.068C48.9314 10.7031 49.6421 11.1439 50.4364 11.3163C50.6178 11.3517 50.8014 11.3751 50.9861 11.3862H51.177C51.8045 11.3993 52.4191 11.2081 52.9283 10.8412C53.2728 10.5976 53.5369 10.2572 53.6876 9.86308C53.779 9.59853 53.8115 9.31711 53.7825 9.03866C53.7535 8.7602 53.664 8.4915 53.5198 8.25146C53.3745 8.01498 53.1807 7.81183 52.9515 7.65525Z" fill="white"/>
<path d="M38.6677 4.44118V5.11192H38.584C38.0638 4.59105 37.359 4.29648 36.623 4.29213C36.1718 4.28323 35.7235 4.36944 35.308 4.5452C34.8923 4.72094 34.5181 4.98229 34.2101 5.3122C33.5889 6.00781 33.2559 6.91379 33.2786 7.84609C33.2545 8.79405 33.5868 9.71653 34.2101 10.4312C34.5109 10.7613 34.8789 11.0229 35.2898 11.1981C35.7004 11.3733 36.144 11.4581 36.5903 11.4466C37.3274 11.4328 38.0362 11.1608 38.5931 10.6781H38.6677V11.2789H40.6427V4.44118H38.6677ZM38.7656 7.88334C38.7855 8.43438 38.6013 8.97336 38.2484 9.39715C38.0795 9.5865 37.8708 9.73637 37.6373 9.83618C37.4041 9.93599 37.1514 9.98329 36.8979 9.97474C36.6518 9.97888 36.4078 9.92739 36.1844 9.82417C35.961 9.72094 35.7637 9.5686 35.6076 9.37853C35.2589 8.94595 35.0802 8.4011 35.1045 7.84609C35.0886 7.30776 35.2709 6.78236 35.6167 6.36955C35.7761 6.18234 35.9748 6.03265 36.1986 5.93118C36.4225 5.82973 36.666 5.779 36.9117 5.78264C37.1638 5.77481 37.4143 5.82295 37.6455 5.92363C37.8766 6.02431 38.0827 6.17502 38.2484 6.36488C38.6013 6.79054 38.7852 7.33092 38.7656 7.88334Z" fill="white"/>
<path d="M60.1521 4.44112V5.11183H60.0682C59.5491 4.59211 58.8464 4.29763 58.1119 4.29206C57.6601 4.28365 57.2114 4.3701 56.795 4.54579C56.3787 4.72149 56.0037 4.98255 55.6945 5.31214C55.0733 6.00775 54.7403 6.9137 54.7629 7.84603C54.7389 8.79396 55.0712 9.71646 55.6945 10.4311C55.9952 10.7613 56.3633 11.0228 56.7739 11.198C57.1848 11.3732 57.6283 11.458 58.0747 11.4465C58.8118 11.4327 59.5204 11.1607 60.0775 10.678H60.1521V11.2789H62.127V4.44112H60.1521ZM60.25 7.88328C60.2719 8.43464 60.0875 8.9744 59.7328 9.39709C59.5638 9.58643 59.3551 9.7363 59.1217 9.83612C58.8882 9.93593 58.6358 9.98321 58.382 9.97465C58.1359 9.97879 57.8922 9.92733 57.6688 9.8241C57.4453 9.72086 57.2481 9.56853 57.0918 9.37846C56.7433 8.94589 56.5643 8.40104 56.5888 7.84603C56.5729 7.3077 56.7552 6.78229 57.1011 6.36946C57.2605 6.18227 57.4591 6.03256 57.683 5.93111C57.9069 5.82964 58.1504 5.77893 58.396 5.78258C58.6482 5.77472 58.8987 5.82289 59.1298 5.92357C59.361 6.02424 59.5669 6.17496 59.7328 6.36481C60.0875 6.78938 60.2717 7.33053 60.25 7.88328Z" fill="white"/>
<path d="M13.3693 0.389648C9.26925 0.389648 6.00781 3.69769 6.00781 7.75118C6.00781 11.8513 9.31585 15.1127 13.3693 15.1127C17.4229 15.1127 20.7309 11.8047 20.7309 7.75118C20.7309 3.69769 17.4229 0.389648 13.3693 0.389648ZM13.3693 10.4535C11.8784 10.4535 10.6204 9.19554 10.6204 7.70458C10.6204 6.21365 11.8784 4.95567 13.3693 4.95567C14.8603 4.95567 16.1183 6.21365 16.1183 7.70458C16.0717 9.24211 14.8603 10.4535 13.3693 10.4535Z" fill="white"/>
<path d="M5.96378 2.48633V13.2025H3.35462L0 2.48633H5.96378Z" fill="white"/>
</g>
<defs>
<clipPath id="clip0_198_2682">
<rect width="62.164" height="14.7231" fill="white" transform="translate(0 0.389648)"/>
</clipPath>
</defs>
</svg>
