<svg width="32" height="20" viewBox="0 0 32 20" fill="none" xmlns="http://www.w3.org/2000/svg">
<path d="M20 17.888H11.6172V2.82275H20V17.888Z" fill="#A6A6A6"/>
<path d="M12.1542 10.3544C12.1542 7.2983 13.5851 4.57605 15.8133 2.82172C14.1839 1.53887 12.1274 0.773176 9.89247 0.773176C4.60146 0.773176 0.3125 5.06275 0.3125 10.3544C0.3125 15.646 4.60146 19.9355 9.89247 19.9355C12.1274 19.9355 14.1839 19.1699 15.8133 17.887C13.5851 16.1327 12.1542 13.4104 12.1542 10.3544Z" fill="white"/>
<path d="M31.3061 10.3544C31.3061 15.646 27.0172 19.9355 21.7262 19.9355C19.4912 19.9355 17.4348 19.1699 15.8047 17.887C18.0335 16.1327 19.4644 13.4104 19.4644 10.3544C19.4644 7.2983 18.0335 4.57605 15.8047 2.82172C17.4348 1.53887 19.4912 0.773176 21.7262 0.773176C27.0172 0.773176 31.3061 5.06275 31.3061 10.3544Z" fill="#666666"/>
</svg>
