<svg width="32" height="10" viewBox="0 0 32 10" fill="none" xmlns="http://www.w3.org/2000/svg">
<path d="M28.6526 0.727539H22.5039C22.8621 2.7572 24.832 4.66747 26.9811 4.66747H31.8762C31.9359 4.48838 31.9358 4.1899 31.9358 4.01081C31.9358 2.21994 30.4434 0.727539 28.6526 0.727539Z" fill="#A6A6A6"/>
<path d="M23.043 5.02539V9.98014H26.0278V7.35352H28.6544C30.0871 7.35352 31.3407 6.3387 31.7586 5.02539H23.043Z" fill="white"/>
<path d="M12.5352 0.727539V9.92071H15.1618C15.1618 9.92071 15.8184 9.9207 16.1766 9.26405C17.9675 5.74199 18.5047 4.66747 18.5047 4.66747H18.8629V9.92071H21.8477V0.727539H19.2211C19.2211 0.727539 18.5644 0.787239 18.2063 1.3842C16.7139 4.42869 15.8781 5.98078 15.8781 5.98078H15.5199V0.727539H12.5352Z" fill="white"/>
<path d="M0 9.98027V0.787109H2.98479C2.98479 0.787109 3.82054 0.787108 4.29811 2.10042C5.49203 5.56278 5.61143 6.04035 5.61143 6.04035C5.61143 6.04035 5.8502 5.2046 6.92472 2.10042C7.40229 0.787108 8.23804 0.787109 8.23804 0.787109H11.2228V9.98027H8.23804V5.02552H7.87986L6.20838 9.98027H4.89507L3.22359 5.02552H2.86541V9.98027H0Z" fill="white"/>
</svg>
