<svg width="48" height="18" viewBox="0 0 48 18" fill="none" xmlns="http://www.w3.org/2000/svg">
<g clip-path="url(#clip0_198_2722)">
<path fill-rule="evenodd" clip-rule="evenodd" d="M17.3769 15.9862C17.3769 16.9082 16.6293 17.6558 15.7085 17.6558H2.35201C1.43005 17.6558 0.683594 16.9082 0.683594 15.9862V2.63033C0.683594 1.70955 1.43005 0.961914 2.35201 0.961914H15.7085C16.6293 0.961914 17.3769 1.70955 17.3769 2.63033V15.9862Z" fill="white"/>
<path fill-rule="evenodd" clip-rule="evenodd" d="M9.02972 15.4954C5.91019 15.4954 4.51562 13.0102 4.51562 10.547C4.51562 7.07824 6.92137 3.12451 9.02972 3.12451C11.1416 3.12451 13.5485 7.07824 13.5485 10.547C13.5485 13.0102 12.1525 15.4954 9.02972 15.4954Z" fill="#171717"/>
<path fill-rule="evenodd" clip-rule="evenodd" d="M32.4958 7.26314H34.9051V13.481H37.4104V7.26314H39.8194L39.9643 5.15332H32.3516L32.4958 7.26314Z" fill="white"/>
<path fill-rule="evenodd" clip-rule="evenodd" d="M27.3882 12.6453L28.7221 9.45304H28.8681L29.1446 13.481H31.5672L31.0145 5.15332H28.6732L26.6567 9.88443H26.5107L24.4132 5.15332H22.1041L21.5508 13.481H23.9088L24.1526 9.45304H24.2993L25.7951 12.6453H27.3882Z" fill="white"/>
<path fill-rule="evenodd" clip-rule="evenodd" d="M47.0417 11.4037C47.0417 11.4037 46.0458 11.5315 44.9054 11.5315C43.5081 11.5315 43.2352 11.0839 43.2352 9.98086V8.65431C43.2352 7.51946 43.476 7.08807 44.9054 7.08807C45.9336 7.08807 46.9292 7.23177 46.9292 7.23177L47.0735 5.18585C47.0735 5.18585 45.8046 5.00977 44.7125 5.00977C41.8059 5.00977 40.7461 5.96912 40.7461 8.30273V10.3327C40.7461 12.906 42.0308 13.6254 44.6966 13.6254C45.7725 13.6254 47.2022 13.4496 47.2022 13.4496L47.0417 11.4037Z" fill="white"/>
</g>
<defs>
<clipPath id="clip0_198_2722">
<rect width="46.5249" height="16.7843" fill="white" transform="translate(0.683594 0.961914)"/>
</clipPath>
</defs>
</svg>
