<svg width="20" height="20" viewBox="0 0 20 20" fill="none" xmlns="http://www.w3.org/2000/svg">
<path d="M15.465 12.8215C15.7865 12.9579 15.9243 13.4126 15.9243 13.64C15.9702 14.0037 15.8783 14.1856 15.7406 14.1856C15.6028 14.1856 15.4191 14.0492 15.2354 13.7309C15.0517 13.4126 14.9598 13.0944 15.0517 12.9125C15.1894 12.8215 15.3272 12.7761 15.465 12.8215Z" fill="white"/>
<path d="M13.5825 14.2314C13.7662 14.2314 13.9958 14.3224 14.2254 14.5042C14.5928 14.8225 14.7306 15.1863 14.5469 15.4591C14.4551 15.5955 14.2254 15.6864 14.0417 15.6864C13.8121 15.6864 13.5825 15.5955 13.4447 15.4591C13.0773 15.1408 12.9854 14.6861 13.215 14.4133C13.261 14.3224 13.3987 14.2314 13.5825 14.2314Z" fill="white"/>
<path d="M9.22014 17.8232C4.44377 17.8232 0.585938 14.0039 0.585938 9.32081C0.585938 4.63767 4.44377 0.772949 9.22014 0.772949C13.9965 0.772949 17.8543 4.59221 17.8543 9.32081C17.8543 10.9122 17.3951 12.4126 16.6602 13.6857C16.6143 13.7311 16.5684 13.7311 16.5684 13.6402C16.2469 11.5487 14.961 10.412 13.1239 10.0483C12.9402 10.0028 12.9402 9.91188 13.1698 9.91188C13.7669 9.86642 14.5476 9.86642 15.0069 9.95735C15.0528 9.73001 15.0528 9.50268 15.0528 9.32081C15.0528 6.22903 12.4809 3.68286 9.35792 3.68286C6.23491 3.68286 3.66302 6.22903 3.66302 9.32081C3.66302 12.4126 6.23491 14.9588 9.35792 14.9588H9.63348C9.54163 14.4586 9.4957 13.9585 9.54163 13.4129C9.54163 13.0491 9.63348 13.0037 9.77126 13.2765C10.552 14.6405 11.7002 15.8226 13.9047 16.3228C15.6958 16.732 17.4869 17.1867 19.4618 19.5964C19.6455 19.8238 19.3699 20.0511 19.1862 19.8692C17.2114 18.1415 15.4202 17.5504 13.7669 17.5504C11.7002 17.5959 10.4602 17.8232 9.22014 17.8232Z" fill="white"/>
</svg>
