<svg width="61" height="22" viewBox="0 0 61 22" fill="none" xmlns="http://www.w3.org/2000/svg">
<path d="M51.6312 9.01745C52.6929 9.01745 53.5028 8.3658 53.5897 7.40924L52.4832 7.27246C52.4832 7.68627 52.1059 8.00339 51.6312 8.00339C51.1565 8.00339 50.7792 7.68627 50.7792 7.27246L49.6719 7.40924C49.7596 8.3658 50.5695 9.01745 51.6312 9.01745Z" fill="#666666"/>
<path d="M6.83984 11.3652C6.83984 13.7627 8.73865 15.5556 11.2482 15.5556C12.1396 15.5556 12.9118 15.364 13.5813 14.8927V13.3271C12.9267 13.7462 12.0554 14.018 11.2332 14.018C9.6433 14.018 8.45611 12.9133 8.45611 11.3652C8.45611 9.81799 9.6433 8.71245 11.2332 8.71245C12.0554 8.71245 12.9267 8.98339 13.5813 9.4033V7.83778C12.9118 7.36647 12.1396 7.1748 11.2482 7.1748C8.73952 7.1748 6.83984 8.96771 6.83984 11.3652Z" fill="white"/>
<path d="M44.6511 9.22217C42.855 9.22217 41.3984 10.6431 41.3984 12.3889C41.3984 14.1348 42.855 15.5557 44.6511 15.5557C46.4464 15.5557 47.903 14.1348 47.903 12.3889C47.903 10.6431 46.4464 9.22217 44.6511 9.22217ZM44.6511 14.2585C43.6087 14.2585 42.7804 13.423 42.7804 12.3881C42.7804 11.3531 43.6096 10.5176 44.6511 10.5176C45.6936 10.5176 46.5219 11.3531 46.5219 12.3881C46.5219 13.4239 45.6927 14.2585 44.6511 14.2585Z" fill="white"/>
<path d="M53.0756 9.34668L50.3757 13.2862V9.34668H49.0156V15.4311H50.3967L53.0949 11.5037V15.4311H54.4769V9.34668H53.0756Z" fill="white"/>
<path d="M19.7802 12.2268C20.1189 12.0273 20.4462 11.5656 20.4462 11.0551C20.4462 10.0698 19.6925 9.34668 18.6632 9.34668H15.2148V15.4311H18.801C19.8311 15.4311 20.6094 14.6958 20.6094 13.6861C20.6094 12.9996 20.1944 12.4507 19.7802 12.2268ZM16.596 10.5437H18.4491C18.801 10.5437 19.0642 10.7929 19.0642 11.13C19.0642 11.4663 18.8001 11.7163 18.4491 11.7163H16.596V10.5437ZM18.5369 14.234H16.596V12.9124H18.5369C18.9387 12.9124 19.2274 13.1991 19.2274 13.5728C19.2274 13.9465 18.9387 14.234 18.5369 14.234Z" fill="white"/>
<path d="M23.9699 9.34668C22.752 9.34668 21.8351 10.2571 21.8351 11.441C21.8351 12.4019 22.4528 13.186 23.346 13.4378L21.6719 15.4311H23.4549L25.0571 13.5232H25.8231V15.4311H27.2042V9.34668H23.9699ZM24.1577 10.5437H25.8231V12.327H24.1577C23.6049 12.327 23.2162 11.9158 23.2162 11.4419C23.2162 10.9427 23.6058 10.5437 24.1577 10.5437Z" fill="white"/>
<path d="M36.2023 9.34668H34.8203V15.4311H36.2023V12.9621H38.9005V15.4311H40.2816V9.34668H38.9005V11.7651H36.2023V9.34668Z" fill="white"/>
<path d="M28.5703 15.0765V13.7306C29.1091 14.0111 29.7689 14.2594 30.5226 14.2594C31.4387 14.2594 32.0169 13.9876 32.0169 13.5049C32.0169 13.0737 31.5115 12.909 30.8692 12.909H29.8154V11.712H30.8692C31.5238 11.712 31.8906 11.4733 31.8906 11.1466C31.8906 10.6675 31.3115 10.5194 30.6429 10.5194C29.8698 10.5194 29.2416 10.7415 28.7291 10.9898V9.68477C29.2609 9.42515 29.9655 9.22217 30.842 9.22217C32.1793 9.22217 33.2664 9.9287 33.2664 10.9018C33.2664 11.6118 32.8479 12.0483 32.5109 12.1955C32.9427 12.3976 33.4305 12.9012 33.4305 13.6295C33.4305 14.7708 32.3267 15.5557 30.7113 15.5557C29.7838 15.5557 29.1056 15.3562 28.5703 15.0765Z" fill="white"/>
</svg>
