<svg width="33" height="11" viewBox="0 0 33 11" fill="none" xmlns="http://www.w3.org/2000/svg">
<path d="M30.6304 0.988281H28.6023C27.9892 0.988281 27.5176 1.17505 27.2346 1.78204L23.3672 10.5134H26.1027C26.1027 10.5134 26.5743 9.34614 26.6686 9.06599C26.9516 9.06599 29.6399 9.06599 30.0173 9.06599C30.1116 9.39283 30.3474 10.4667 30.3474 10.4667H32.7999L30.6304 0.988281ZM27.4233 7.10493C27.6591 6.54462 28.4609 4.44348 28.4609 4.44348C28.4609 4.49018 28.6967 3.88318 28.791 3.55634L28.9797 4.39679C28.9797 4.39679 29.4985 6.6847 29.5928 7.15162H27.4233V7.10493Z" fill="white"/>
<path d="M23.5537 7.38501C23.5537 9.34608 21.7615 10.6535 18.9788 10.6535C17.7997 10.6535 16.6678 10.42 16.0547 10.1398L16.432 7.99201L16.7621 8.13209C17.6111 8.50562 18.177 8.6457 19.2146 8.6457C19.9693 8.6457 20.771 8.36555 20.771 7.71186C20.771 7.29163 20.4409 7.01148 19.4033 6.54456C18.4129 6.07764 17.0923 5.33057 17.0923 3.9765C17.0923 2.10883 18.9317 0.848145 21.5257 0.848145C22.5161 0.848145 23.365 1.03491 23.8838 1.26837L23.5065 3.32282L23.3179 3.13605C22.8462 2.94928 22.2331 2.76251 21.337 2.76251C20.3466 2.80921 19.8749 3.22943 19.8749 3.60297C19.8749 4.0232 20.4409 4.35004 21.337 4.77027C22.8462 5.47065 23.5537 6.26441 23.5537 7.38501Z" fill="white"/>
<path d="M0.539062 1.0813L0.586226 0.894531H4.64229C5.20826 0.894531 5.63273 1.0813 5.77422 1.68829L6.67033 5.89057C5.77422 3.64935 3.69902 1.82837 0.539062 1.0813Z" fill="#A6A6A6"/>
<path d="M12.3769 0.988098L8.27364 10.4666H5.49099L3.13281 2.52893C4.8307 3.60285 6.24561 5.28376 6.76441 6.45105L7.04739 7.43158L9.59422 0.941406H12.3769V0.988098Z" fill="white"/>
<path d="M13.4632 0.941406H16.0572L14.4065 10.4666H11.8125L13.4632 0.941406Z" fill="white"/>
</svg>
