<svg width="20" height="20" viewBox="0 0 20 20" fill="none" xmlns="http://www.w3.org/2000/svg">
<path d="M12.4917 9.38082L10.4089 7.11281L8.09458 9.14939L10.1774 11.4637L12.4917 9.38082Z" fill="white"/>
<path d="M6.42829 5.26137L8.51115 7.52938L10.8254 5.4928L8.74258 3.22479L6.42829 5.26137Z" fill="white"/>
<path d="M14.1117 13.3151L12.0289 11.0471L9.71459 13.13L11.7975 15.398L14.1117 13.3151Z" fill="white"/>
<path d="M11.7049 17.1106L7.90943 12.8985L8.97401 11.9728L6.28943 9.01053L7.354 8.08481L4.66942 5.12252L8.88144 1.37336L10.2237 2.80822L12.538 0.817925L13.8803 2.2065L14.7597 1.41964C14.5746 1.32707 14.3432 1.18821 14.158 1.09564C12.8157 0.540209 11.3809 0.169922 9.85344 0.169922C4.53056 0.169922 0.179688 4.47451 0.179688 9.75111C0.179688 15.0277 4.53056 19.3323 9.89973 19.3323C11.6586 19.3323 13.2786 18.8694 14.6672 18.0826C15.13 17.8049 15.5466 17.5271 15.9632 17.2494L14.0192 15.074L11.7049 17.1106Z" fill="white"/>
<path d="M10.6866 4.15051L12.214 5.86309L13.9729 4.33565L12.3992 2.62308L10.6866 4.15051Z" fill="white"/>
<path d="M15.5466 7.76081L13.9729 6.04823L12.2603 7.62195L13.834 9.28825L15.5466 7.76081Z" fill="white"/>
<path d="M17.0278 11.3711L15.454 9.65854L13.7415 11.186L15.3152 12.9448L17.0278 11.3711Z" fill="white"/>
<path d="M17.1203 5.72423L15.9632 6.74252L17.0278 7.89967L18.1386 6.88138L17.1203 5.72423Z" fill="white"/>
<path d="M17.4443 10.1214L18.4626 11.2785L19.6198 10.2603L18.5552 9.1031L17.4443 10.1214Z" fill="white"/>
<path d="M14.482 3.36365L15.5466 4.5208L16.6575 3.50251L15.6392 2.34536L14.482 3.36365Z" fill="white"/>
<path d="M15.2689 14.6574L16.8426 16.37L18.5552 14.8426L16.9815 13.13L15.2689 14.6574Z" fill="white"/>
</svg>
