<svg width="96" height="96" viewBox="0 0 96 96" fill="none" xmlns="http://www.w3.org/2000/svg">
<circle cx="48" cy="48" r="48" fill="#FFF1E6"/>
<mask id="path-2-inside-1_90_8184" fill="white">
<path d="M17.305 35.8845C19.492 30.3435 23.1484 25.4742 27.9114 21.8193C33.6747 17.397 40.7361 15 48.0006 15C55.265 15 62.3264 17.397 68.0897 21.8193C72.8125 25.4433 76.4472 30.2612 78.6403 35.744C79.4947 37.88 78.46 40.239 76.4449 41.3489L68.0005 46C68.0005 46 53.0005 58 48.0005 58C43.0005 58 27.0005 46 27.0005 46L19.3523 41.4C17.4415 40.2508 16.4863 37.9586 17.305 35.8845Z"/>
</mask>
<path d="M28.7756 43.6333L30.3756 44.8333L30.3756 44.8333L28.7756 43.6333ZM66.68 44.0192L68.3441 42.9098L66.68 44.0192ZM46.0006 15L46.0006 35H50.0006L50.0006 15L46.0006 15ZM46.0006 35L46.0005 58H50.0005L50.0006 35H46.0006ZM28.6005 47.2L30.3756 44.8333L27.1756 42.4333L25.4005 44.8L28.6005 47.2ZM65.0159 45.1286L66.3364 47.1094L69.6646 44.8906L68.3441 42.9098L65.0159 45.1286ZM30.3756 44.8333C34.4583 39.3896 41.0534 36.428 47.8345 36.9931L48.1666 33.0069C40.0137 32.3275 32.0843 35.8883 27.1756 42.4333L30.3756 44.8333ZM48.1666 36.9931C54.8451 36.4366 61.2985 39.5525 65.0159 45.1286L68.3441 42.9098C63.8192 36.1224 55.9638 32.3295 47.8345 33.0069L48.1666 36.9931ZM17.305 35.8845L21.0257 37.353V37.353L17.305 35.8845ZM27.9114 21.8193L30.3465 24.9927H30.3465L27.9114 21.8193ZM68.0897 21.8193L70.5247 18.6459V18.6459L68.0897 21.8193ZM78.6403 35.744L74.9264 37.2296L74.9264 37.2296L78.6403 35.744ZM76.4449 41.3489L74.5151 37.8452V37.8452L76.4449 41.3489ZM68.0005 46L66.0707 42.4963C65.8706 42.6066 65.6802 42.7338 65.5018 42.8765L68.0005 46ZM27.0005 46L29.4005 42.8L29.2372 42.6775L29.0622 42.5722L27.0005 46ZM19.3523 41.4L21.414 37.9722L21.414 37.9722L19.3523 41.4ZM21.0257 37.353C22.9476 32.4836 26.1608 28.2045 30.3465 24.9927L25.4764 18.6459C20.1359 22.7438 16.0364 28.2033 13.5843 34.416L21.0257 37.353ZM30.3465 24.9927C35.4112 21.1065 41.6167 19 48.0006 19V11C39.8556 11 31.9382 13.6876 25.4764 18.6459L30.3465 24.9927ZM48.0006 19C54.3844 19 60.59 21.1065 65.6546 24.9928L70.5247 18.6459C64.0629 13.6876 56.1455 11 48.0006 11V19ZM65.6546 24.9928C69.8049 28.1774 72.9991 32.4113 74.9264 37.2296L82.3542 34.2585C79.8953 28.1111 75.82 22.7091 70.5247 18.6459L65.6546 24.9928ZM74.5151 37.8452L66.0707 42.4963L69.9304 49.5037L78.3747 44.8526L74.5151 37.8452ZM68.0005 46C65.5018 42.8765 65.502 42.8764 65.5021 42.8763C65.5021 42.8763 65.5021 42.8762 65.5021 42.8763C65.502 42.8764 65.5016 42.8767 65.501 42.8771C65.4999 42.878 65.4978 42.8797 65.4949 42.882C65.489 42.8867 65.4796 42.8942 65.4668 42.9044C65.441 42.9249 65.4015 42.9563 65.3489 42.9979C65.2438 43.0811 65.0866 43.205 64.8834 43.3638C64.4768 43.6814 63.8871 44.1381 63.1626 44.6871C61.7103 45.7878 59.7327 47.2479 57.6134 48.7011C55.4795 50.1644 53.274 51.5708 51.3526 52.5956C50.3909 53.1085 49.5691 53.4886 48.91 53.732C48.1892 53.9981 47.9282 54 48.0005 54V62C49.3229 62 50.6244 61.6269 51.681 61.2368C52.7992 60.8239 53.9696 60.2665 55.1173 59.6544C57.4146 58.4292 59.8966 56.8356 62.1377 55.2989C64.3934 53.7521 66.4783 52.2122 67.9948 51.0629C68.7547 50.4869 69.3758 50.0061 69.8091 49.6675C70.0258 49.4982 70.1958 49.3642 70.3128 49.2716C70.3713 49.2253 70.4166 49.1894 70.448 49.1644C70.4636 49.152 70.4758 49.1422 70.4844 49.1354C70.4887 49.132 70.4921 49.1292 70.4946 49.1273C70.4958 49.1263 70.4969 49.1255 70.4977 49.1248C70.498 49.1245 70.4985 49.1242 70.4987 49.124C70.499 49.1237 70.4993 49.1235 68.0005 46ZM48.0005 54C48.0617 54 47.7774 53.993 47.0116 53.7187C46.3132 53.4685 45.4436 53.0806 44.429 52.5626C42.4026 51.5278 40.0648 50.1117 37.8023 48.6442C35.5541 47.1858 33.4485 45.7214 31.9006 44.6179C31.1282 44.0673 30.4985 43.6093 30.0639 43.2905C29.8466 43.1311 29.6783 43.0066 29.5655 42.9229C29.5091 42.881 29.4667 42.8494 29.4389 42.8286C29.425 42.8183 29.4148 42.8107 29.4084 42.8058C29.4051 42.8034 29.4029 42.8017 29.4016 42.8008C29.4009 42.8003 29.4005 42.8 29.4003 42.7998C29.4003 42.7998 29.4003 42.7998 29.4003 42.7998C29.4004 42.7999 29.4005 42.8 27.0005 46C24.6005 49.2 24.6008 49.2002 24.6012 49.2005C24.6014 49.2006 24.6018 49.201 24.6022 49.2013C24.603 49.2019 24.6041 49.2026 24.6054 49.2036C24.6079 49.2055 24.6115 49.2082 24.616 49.2115C24.625 49.2183 24.6378 49.2279 24.6543 49.2402C24.6874 49.2649 24.7354 49.3006 24.7974 49.3466C24.9214 49.4387 25.1017 49.5721 25.3317 49.7408C25.7916 50.0782 26.451 50.5577 27.2568 51.1321C28.8651 52.2786 31.072 53.8142 33.4488 55.3558C35.8113 56.8883 38.411 58.4722 40.7908 59.6874C41.9794 60.2944 43.1801 60.844 44.3138 61.2501C45.38 61.632 46.6894 62 48.0005 62V54ZM29.0622 42.5722L21.414 37.9722L17.2907 44.8278L24.9389 49.4278L29.0622 42.5722ZM74.9264 37.2296C74.9422 37.2691 74.9559 37.3195 74.9119 37.4278C74.8598 37.5562 74.7336 37.7248 74.5151 37.8452L78.3747 44.8526C81.8912 42.9157 84.0667 38.5398 82.3542 34.2585L74.9264 37.2296ZM13.5843 34.416C11.9468 38.5648 13.9526 42.8201 17.2907 44.8278L21.414 37.9722C21.2062 37.8473 21.0874 37.6805 21.0386 37.5534C20.9968 37.4447 21.0103 37.392 21.0257 37.353L13.5843 34.416Z" fill="#171717" mask="url(#path-2-inside-1_90_8184)"/>
<rect x="34" y="60" width="28" height="20" rx="3" stroke="#171717" stroke-width="4"/>
<path d="M39 74H43" stroke="#171717" stroke-width="4" stroke-linecap="round"/>
<path d="M39 69H43" stroke="#171717" stroke-width="4" stroke-linecap="round"/>
<circle cx="86.5" cy="75.5" r="6.5" fill="#FF6A00"/>
</svg>
