<svg width="96" height="96" viewBox="0 0 96 96" fill="none" xmlns="http://www.w3.org/2000/svg">
<circle cx="48" cy="48" r="48" fill="#FFF1E6"/>
<path d="M41.5 80C41.5 80 42.5 75.5 41.5 71.5C40.5 67.5 39 67 37.5 63C36 59 38 57 36.5 54C35.7933 52.5865 30.4239 50.2998 26 46.5C21.0343 42.2349 17 36.5 17 36.5M52 15.5C52 15.5 48 20 48 21.5C48 23 49.3531 24.6335 48 26.5C46.9858 27.899 44.5 27 43 29C41.5 31 44 34.5 44.5 38C45 41.5 42.5 36.5 41 36C39.5 35.5 33.5 36.5 33.5 40C33.5 43.5 37.5 46.5 43.5 48.5C49.5 50.5 53.5 47 58 50.5C62.5 54 61.5 58 59 62C56.5 66 52 81 52 81" stroke="#171717" stroke-width="4"/>
<path d="M74 28C74 28 66.5 33.5 66.5 37C66.5 40.5 70 43 72 45.5C74 48 80.5 48.5 80.5 48.5" stroke="#171717" stroke-width="4"/>
<circle cx="48" cy="48" r="33" stroke="#171717" stroke-width="4"/>
<circle cx="86.5" cy="75.5" r="6.5" fill="#FF6A00"/>
</svg>
