<svg width="96" height="96" viewBox="0 0 96 96" fill="none" xmlns="http://www.w3.org/2000/svg">
<circle cx="48" cy="48" r="48" fill="#FFF1E6"/>
<circle cx="86.5" cy="75.5" r="6.5" fill="#FF6A00"/>
<path d="M13.4773 50.8654C12.7482 50.1381 12.1446 49.5044 11.6777 49.0001C12.1446 48.4957 12.7482 47.862 13.4773 47.1347C15.3997 45.217 18.1824 42.6594 21.6165 40.1048C28.5296 34.9623 37.8568 30.0001 48 30.0001C58.1432 30.0001 67.4704 34.9623 74.3835 40.1048C77.8176 42.6594 80.6003 45.217 82.5227 47.1347C83.2517 47.862 83.8554 48.4957 84.3223 49.0001C83.8554 49.5044 83.2517 50.1381 82.5227 50.8654C80.6003 52.7831 77.8176 55.3408 74.3835 57.8954C67.4704 63.0378 58.1432 68.0001 48 68.0001C37.8568 68.0001 28.5296 63.0378 21.6165 57.8954C18.1824 55.3408 15.3997 52.7831 13.4773 50.8654Z" stroke="#171717" stroke-width="4"/>
<circle cx="48" cy="49" r="19" stroke="#171717" stroke-width="4"/>
<path d="M48 12V22" stroke="#171717" stroke-width="4" stroke-linecap="round"/>
<path d="M28 17L33 25.6603" stroke="#171717" stroke-width="4" stroke-linecap="round"/>
<path d="M68 17L63 25.6603" stroke="#171717" stroke-width="4" stroke-linecap="round"/>
<path d="M44.0984 68.2C44.0984 68.2 44.6984 65.5 44.0984 63.1C43.4984 60.7 42.5984 60.4 41.6984 58C40.7984 55.6 41.9984 54.4 41.0984 52.6C40.6744 51.7519 37.4528 50.3799 34.7984 48.1C31.819 45.5409 29.3984 42.1 29.3984 42.1M50.3984 29.5C50.3984 29.5 47.9984 32.2 47.9984 33.1C47.9984 34 48.8103 34.9801 47.9984 36.1C47.3899 36.9394 45.8984 36.4 44.9984 37.6C44.0984 38.8 45.5984 40.9 45.8984 43C46.1984 45.1 44.6984 42.1 43.7984 41.8C42.8984 41.5 39.2984 42.1 39.2984 44.2C39.2984 46.3 41.6984 48.1 45.2984 49.3C48.8984 50.5 51.2984 48.4 53.9984 50.5C56.6984 52.6 56.0984 55 54.5984 57.4C53.0984 59.8 50.3984 68.8 50.3984 68.8" stroke="#171717" stroke-width="4"/>
<path d="M63.6016 37C63.6016 37 59.1016 40.3 59.1016 42.4C59.1016 44.5 61.2016 46 62.4016 47.5C63.6016 49 67.5016 49.3 67.5016 49.3" stroke="#171717" stroke-width="4"/>
<circle cx="48" cy="49" r="19" stroke="#171717" stroke-width="4"/>
</svg>
