<svg width="96" height="96" viewBox="0 0 96 96" fill="none" xmlns="http://www.w3.org/2000/svg">
<circle cx="48" cy="48" r="48" fill="#FFF1E6"/>
<path d="M63.7083 76.0003H22.625C21.6636 76.0003 20.7416 75.6184 20.0617 74.9386C19.3819 74.2588 19 73.3368 19 72.3753V45.792C19 44.8306 19.3819 43.9085 20.0617 43.2287C20.7416 42.5489 21.6636 42.167 22.625 42.167H63.7083C64.6697 42.167 65.5918 42.5489 66.2716 43.2287C66.9514 43.9085 67.3333 44.8306 67.3333 45.792V72.3753C67.3333 73.3368 66.9514 74.2588 66.2716 74.9386C65.5918 75.6184 64.6697 76.0003 63.7083 76.0003ZM22.625 44.5837C22.3045 44.5837 21.9972 44.711 21.7706 44.9376C21.544 45.1642 21.4167 45.4715 21.4167 45.792V72.3753C21.4167 72.6958 21.544 73.0032 21.7706 73.2298C21.9972 73.4564 22.3045 73.5837 22.625 73.5837H63.7083C64.0288 73.5837 64.3361 73.4564 64.5628 73.2298C64.7894 73.0032 64.9167 72.6958 64.9167 72.3753V45.792C64.9167 45.4715 64.7894 45.1642 64.5628 44.9376C64.3361 44.711 64.0288 44.5837 63.7083 44.5837H22.625Z" fill="#171717" stroke="#171717"/>
<path d="M73.3763 51.8333H66.1263V49.4167H73.3763C73.6968 49.4167 74.0041 49.2894 74.2307 49.0627C74.4573 48.8361 74.5847 48.5288 74.5847 48.2083V21.625C74.5847 21.3045 74.4573 20.9972 74.2307 20.7706C74.0041 20.544 73.6968 20.4167 73.3763 20.4167H32.293C31.9725 20.4167 31.6652 20.544 31.4385 20.7706C31.2119 20.9972 31.0846 21.3045 31.0846 21.625V43.375H28.668V21.625C28.668 20.6636 29.0499 19.7416 29.7297 19.0617C30.4095 18.3819 31.3316 18 32.293 18H73.3763C74.3377 18 75.2598 18.3819 75.9396 19.0617C76.6194 19.7416 77.0013 20.6636 77.0013 21.625V48.2083C77.0013 49.1697 76.6194 50.0918 75.9396 50.7716C75.2598 51.4514 74.3377 51.8333 73.3763 51.8333Z" fill="#171717" stroke="#171717"/>
<path d="M75.793 34.9167H29.8763C29.5558 34.9167 29.2485 34.7894 29.0219 34.5628C28.7953 34.3361 28.668 34.0288 28.668 33.7083V26.4583C28.668 26.1379 28.7953 25.8305 29.0219 25.6039C29.2485 25.3773 29.5558 25.25 29.8763 25.25H75.793C76.1135 25.25 76.4208 25.3773 76.6474 25.6039C76.874 25.8305 77.0013 26.1379 77.0013 26.4583V33.7083C77.0013 34.0288 76.874 34.3361 76.6474 34.5628C76.4208 34.7894 76.1135 34.9167 75.793 34.9167ZM31.0846 32.5H74.5847V27.6667H31.0846V32.5Z" fill="#171717" stroke="#171717"/>
<path d="M33.5013 57.8747H28.668C27.7066 57.8747 26.7845 57.4927 26.1047 56.8129C25.4249 56.1331 25.043 55.2111 25.043 54.2497V51.833C25.043 50.8716 25.4249 49.9496 26.1047 49.2697C26.7845 48.5899 27.7066 48.208 28.668 48.208H33.5013C34.4627 48.208 35.3847 48.5899 36.0646 49.2697C36.7444 49.9496 37.1263 50.8716 37.1263 51.833V54.2497C37.1263 55.2111 36.7444 56.1331 36.0646 56.8129C35.3847 57.4927 34.4627 57.8747 33.5013 57.8747ZM28.668 50.6247C28.3475 50.6247 28.0402 50.752 27.8135 50.9786C27.5869 51.2052 27.4596 51.5125 27.4596 51.833V54.2497C27.4596 54.5701 27.5869 54.8775 27.8135 55.1041C28.0402 55.3307 28.3475 55.458 28.668 55.458H33.5013C33.8218 55.458 34.1291 55.3307 34.3557 55.1041C34.5823 54.8775 34.7096 54.5701 34.7096 54.2497V51.833C34.7096 51.5125 34.5823 51.2052 34.3557 50.9786C34.1291 50.752 33.8218 50.6247 33.5013 50.6247H28.668Z" fill="#171717"/>
<path d="M40.75 67.542H49.2083V69.9587H40.75V67.542Z" fill="#171717"/>
<path d="M25.043 67.542H38.3346V69.9587H25.043V67.542Z" fill="#171717"/>
<path d="M25.043 61.5H32.293V63.9167H25.043V61.5Z" fill="#171717"/>
<path d="M34.707 61.5H41.957V63.9167H34.707V61.5Z" fill="#171717"/>
<path d="M44.375 61.5H51.625V63.9167H44.375V61.5Z" fill="#171717"/>
<path d="M54.043 61.5H61.293V63.9167H54.043V61.5Z" fill="#171717"/>
<circle cx="86.5" cy="75.5" r="6.5" fill="#FF6A00"/>
</svg>
