<svg width="328" height="241" viewBox="0 0 328 241" fill="none" xmlns="http://www.w3.org/2000/svg">
<rect width="328" height="196" rx="24" fill="#ECEEF0"/>
<path d="M281.5 192.8V192.3H281H271.043V182V181.5H270.543H264.457H263.957V182V192.3H254H253.5V192.8V199.04V199.54H254H263.957V210V210.5H264.457H270.543H271.043V210V199.54H281H281.5V199.04V192.8Z" fill="#171717" stroke="#171717"/>
<path d="M222 196C222 204.9 224.639 213.6 229.584 221.001C234.529 228.401 241.557 234.169 249.779 237.575C258.002 240.981 267.05 241.872 275.779 240.135C284.508 238.399 292.526 234.113 298.82 227.82C305.113 221.526 309.399 213.508 311.135 204.779C312.872 196.05 311.981 187.002 308.575 178.779C305.169 170.557 299.401 163.529 292.001 158.584C284.6 153.639 275.9 151 267 151V166.264C272.881 166.264 278.63 168.008 283.52 171.276C288.41 174.543 292.222 179.187 294.472 184.621C296.723 190.054 297.312 196.033 296.165 201.801C295.017 207.569 292.185 212.868 288.026 217.026C283.868 221.185 278.569 224.017 272.801 225.165C267.033 226.312 261.054 225.723 255.621 223.472C250.187 221.222 245.543 217.41 242.276 212.52C239.008 207.63 237.264 201.881 237.264 196L222 196Z" fill="#FF6A00"/>
<path d="M61.5 184.8V184.3H61H51.0434V174V173.5H50.5434H44.4566H43.9566V174V184.3H34H33.5V184.8V191.04V191.54H34H43.9566V202V202.5H44.4566H50.5434H51.0434V202V191.54H61H61.5V191.04V184.8Z" fill="#171717" stroke="#171717"/>
<path d="M24.5 160.243V159.743H24H20.2399V156V155.5H19.7399H17.2601H16.7601V156V159.743H13H12.5V160.243V162.694V163.194H13H16.7601V167V167.5H17.2601H19.7399H20.2399V167V163.194H24H24.5V162.694V160.243Z" fill="#FF6A00" stroke="#FF6A00"/>
</svg>
