<svg width="16" height="16" viewBox="0 0 16 16" fill="none" xmlns="http://www.w3.org/2000/svg">
<path d="M2.15277 9.16661C2.05215 9.26784 1.98671 9.39871 1.9661 9.53995L1.33944 13.9066C1.32398 14.0091 1.3328 14.1138 1.36519 14.2122C1.39758 14.3107 1.45264 14.4002 1.52593 14.4735C1.59922 14.5467 1.68869 14.6018 1.78714 14.6342C1.8856 14.6666 1.99028 14.6754 2.09277 14.6599L6.45944 14.0333C6.60066 14.0127 6.73154 13.9472 6.83277 13.8466L11.9794 8.70661L7.29277 4.02661L2.15277 9.16661Z" fill="#171717"/>
<path d="M9.01161 2.30679L8.23828 3.08012L12.9183 7.76013L13.6983 6.98679C16.7869 3.88212 12.1024 -0.784018 9.01161 2.30679Z" fill="#171717"/>
</svg>
