<svg width="16" height="16" viewBox="0 0 16 16" fill="none" xmlns="http://www.w3.org/2000/svg">
<path fill-rule="evenodd" clip-rule="evenodd" d="M3.477 11C3.477 10.173 4.154 9.5 4.985 9.5C5.816 9.5 6.493 10.173 6.493 11C6.493 11.827 5.816 12.5 4.985 12.5C4.154 12.5 3.477 11.827 3.477 11ZM4.985 14C6.303 14 7.413 13.15 7.822 11.978L14.995 11.978C15.551 11.978 16 11.53 16 10.978C16 10.425 15.551 9.978 14.995 9.978L7.809 9.978C7.387 8.827 6.286 8 4.985 8C3.684 8 2.584 8.827 2.161 9.978L1.005 9.978C0.449 9.978 -3.68268e-07 10.425 -3.92441e-07 10.978C-4.1657e-07 11.53 0.449 11.978 1.005 11.978L2.148 11.978C2.557 13.15 3.667 14 4.985 14ZM10.011 3.5C10.842 3.5 11.519 4.173 11.519 5C11.519 5.827 10.842 6.5 10.011 6.5C9.18004 6.5 8.50304 5.827 8.50304 5C8.50304 4.173 9.18004 3.5 10.011 3.5ZM10.011 8C11.329 8 12.44 7.15 12.849 5.977L14.995 5.977C15.551 5.977 16 5.529 16 4.977C16 4.424 15.551 3.977 14.995 3.977L12.835 3.977C12.412 2.827 11.311 2 10.011 2C8.711 2 7.611 2.827 7.187 3.977L1.005 3.977C0.449 3.977 -1.05956e-07 4.424 -1.30129e-07 4.977C-1.54257e-07 5.529 0.449 5.977 1.005 5.977L7.173 5.977C7.583 7.15 8.693 8 10.011 8Z" fill="#171717"/>
</svg>
