<svg width="22" height="18" viewBox="0 0 22 18" fill="none" xmlns="http://www.w3.org/2000/svg">
<path d="M20.06 2.69203C19.3266 1.7284 18.2905 1.03928 17.1183 0.735357C15.946 0.431437 14.7057 0.530367 13.5964 1.01625C12.6036 1.44469 11.7181 2.16703 11 3.12563C10.2819 2.16469 9.39641 1.44235 8.40359 1.01625C7.29435 0.530367 6.05397 0.431437 4.88173 0.735357C3.7095 1.03928 2.67344 1.7284 1.94 2.69203C1.16656 3.70547 0.757812 4.97203 0.757812 6.35438C0.757812 8.34375 1.94422 10.5262 4.28375 12.8437C6.19016 14.7314 8.44297 16.2773 9.61578 17.0306C10.029 17.2951 10.5094 17.4357 11 17.4357C11.4906 17.4357 11.971 17.2951 12.3842 17.0306C13.5561 16.2773 15.8098 14.7314 17.7162 12.8437C20.0558 10.5272 21.2422 8.34375 21.2422 6.35438C21.2422 4.97203 20.8334 3.70547 20.06 2.69203Z" fill="#FF6A00"/>
</svg>
