<svg width="46" height="46" viewBox="0 0 46 46" fill="none" xmlns="http://www.w3.org/2000/svg">
<path fill-rule="evenodd" clip-rule="evenodd" d="M23 0C10.2975 0 0 10.2975 0 23C0 35.7025 10.2975 46 23 46C35.7025 46 46 35.7025 46 23C46 10.2975 35.7025 0 23 0ZM17.9422 10.807C19.2507 10.7475 19.6688 10.7329 23.0002 10.7329H22.9964C26.3289 10.7329 26.7454 10.7475 28.0539 10.807C29.3598 10.8668 30.2517 11.0736 31.0337 11.3769C31.8413 11.69 32.5236 12.1091 33.206 12.7914C33.8883 13.4733 34.3074 14.1576 34.6217 14.9644C34.9233 15.7444 35.1303 16.6358 35.1916 17.9417C35.2504 19.2502 35.2658 19.6682 35.2658 22.9997C35.2658 26.3312 35.2504 26.7482 35.1916 28.0567C35.1303 29.3621 34.9233 30.2537 34.6217 31.0339C34.3074 31.8405 33.8883 32.5249 33.206 33.2067C32.5244 33.889 31.841 34.3092 31.0345 34.6225C30.254 34.9258 29.3616 35.1326 28.0557 35.1924C26.7472 35.2519 26.3304 35.2665 22.9987 35.2665C19.6675 35.2665 19.2497 35.2519 17.9412 35.1924C16.6356 35.1326 15.7439 34.9258 14.9634 34.6225C14.1572 34.3092 13.4728 33.889 12.7912 33.2067C12.1091 32.5249 11.69 31.8405 11.3764 31.0337C11.0733 30.2537 10.8666 29.3623 10.8065 28.0564C10.7472 26.748 10.7324 26.3312 10.7324 22.9997C10.7324 19.6682 10.7478 19.2499 10.8063 17.9414C10.8651 16.636 11.0721 15.7444 11.3762 14.9642C11.6905 14.1576 12.1096 13.4733 12.792 12.7914C13.4738 12.1093 14.1582 11.6902 14.965 11.3769C15.7449 11.0736 16.6363 10.8668 17.9422 10.807Z" fill="#171717"/>
<path fill-rule="evenodd" clip-rule="evenodd" d="M21.9011 12.944C22.1148 12.9437 22.3446 12.9438 22.5927 12.9439L23.0015 12.944C26.2768 12.944 26.6649 12.9557 27.9583 13.0145C29.1543 13.0692 29.8035 13.2691 30.2359 13.437C30.8083 13.6593 31.2164 13.9251 31.6455 14.3544C32.0749 14.7837 32.3406 15.1926 32.5635 15.7651C32.7314 16.197 32.9315 16.8461 32.9859 18.0421C33.0447 19.3352 33.0575 19.7237 33.0575 22.9974C33.0575 26.2711 33.0447 26.6595 32.9859 27.9527C32.9312 29.1487 32.7314 29.7978 32.5635 30.2297C32.3411 30.8021 32.0749 31.2098 31.6455 31.6388C31.2162 32.0682 30.8086 32.334 30.2359 32.5563C29.804 32.725 29.1543 32.9243 27.9583 32.979C26.6652 33.0378 26.2768 33.0505 23.0015 33.0505C19.726 33.0505 19.3378 33.0378 18.0447 32.979C16.8487 32.9238 16.1996 32.7239 15.7669 32.556C15.1945 32.3337 14.7856 32.0679 14.3562 31.6386C13.9269 31.2092 13.6611 30.8014 13.4383 30.2287C13.2704 29.7968 13.0703 29.1477 13.0158 27.9516C12.9571 26.6585 12.9453 26.2701 12.9453 22.9943C12.9453 19.7186 12.9571 19.3322 13.0158 18.039C13.0705 16.843 13.2704 16.1939 13.4383 15.7615C13.6606 15.1891 13.9269 14.7802 14.3562 14.3508C14.7856 13.9215 15.1945 13.6557 15.7669 13.4329C16.1993 13.2642 16.8487 13.0649 18.0447 13.0099C19.1763 12.9588 19.6149 12.9435 21.9011 12.9409V12.944ZM29.5501 14.9802C28.7375 14.9802 28.0781 15.6388 28.0781 16.4518C28.0781 17.2644 28.7375 17.9238 29.5501 17.9238C30.3628 17.9238 31.0222 17.2644 31.0222 16.4518C31.0222 15.6391 30.3628 14.9797 29.5501 14.9797V14.9802ZM16.7031 23C16.7031 19.5211 19.5236 16.7006 23.0024 16.7004C26.4813 16.7004 29.3011 19.521 29.3011 23C29.3011 26.4789 26.4815 29.2982 23.0026 29.2982C19.5237 29.2982 16.7031 26.4789 16.7031 23Z" fill="#171717"/>
<path d="M23.003 18.9104C25.2611 18.9104 27.0919 20.741 27.0919 22.9993C27.0919 25.2574 25.2611 27.0883 23.003 27.0883C20.7446 27.0883 18.9141 25.2574 18.9141 22.9993C18.9141 20.741 20.7446 18.9104 23.003 18.9104Z" fill="#171717"/>
</svg>
