<svg width="16" height="16" viewBox="0 0 16 16" fill="none" xmlns="http://www.w3.org/2000/svg">
<path fill-rule="evenodd" clip-rule="evenodd" d="M9.00025 12C6.24325 12 4.00025 9.757 4.00025 7C4.00025 4.243 6.24325 2 9.00025 2C11.7573 2 14.0003 4.243 14.0003 7C14.0003 9.757 11.7573 12 9.00025 12ZM9.00025 0C5.14125 0 2.00025 3.141 2.00025 7C2.00025 8.572 2.52725 10.021 3.40625 11.19C1.74325 12.852 0.296254 14.29 0.295254 14.291C-0.0967457 14.68 -0.0987457 15.313 0.291254 15.705C0.486254 15.901 0.743254 16 1.00025 16C1.25525 16 1.51025 15.903 1.70525 15.709C1.70525 15.709 3.15625 14.267 4.82225 12.603C5.98925 13.476 7.43425 14 9.00025 14C12.8593 14 16.0003 10.859 16.0003 7C16.0003 3.141 12.8593 0 9.00025 0Z" fill="#162136"/>
</svg>
