<svg width="46" height="46" viewBox="0 0 46 46" fill="none" xmlns="http://www.w3.org/2000/svg">
<path fill-rule="evenodd" clip-rule="evenodd" d="M46 23C46 35.7025 35.7025 46 23 46C10.2975 46 0 35.7025 0 23C0 10.2975 10.2975 0 23 0C35.7025 0 46 10.2975 46 23ZM15.4009 20.8928C13.0969 21.8988 10.7296 22.9324 8.56491 24.1247L8.56476 24.1249C7.43442 24.9525 8.93687 25.5378 10.3463 26.0869C10.5703 26.1742 10.7921 26.2606 11.0005 26.3469C11.1739 26.4002 11.3503 26.4564 11.529 26.5133C13.0965 27.0127 14.8444 27.5696 16.3662 26.7319C18.866 25.2959 21.2252 23.6356 23.5826 21.9767C24.3549 21.4331 25.1271 20.8897 25.9039 20.3544C25.9403 20.3311 25.9814 20.3045 26.0262 20.2754C26.688 19.8464 28.1764 18.8817 27.6259 20.211C26.324 21.6347 24.9296 22.895 23.5276 24.1621C22.5827 25.0161 21.6344 25.8732 20.7086 26.7856C19.9023 27.4407 19.0651 28.7581 19.9679 29.6755C22.0474 31.1313 24.1595 32.5518 26.2703 33.9715C26.9571 34.4334 27.6438 34.8953 28.3292 35.3582C29.4909 36.2857 31.3064 35.5355 31.5618 34.0862C31.6754 33.4194 31.7895 32.7526 31.9035 32.0858C32.5337 28.4014 33.1641 24.7157 33.721 21.0193C33.7966 20.4395 33.8824 19.8597 33.9683 19.2796C34.1763 17.8736 34.3847 16.4659 34.4497 15.0523C34.282 13.6417 32.5716 13.9519 31.6197 14.2691C26.7273 16.1307 21.8836 18.1304 17.0592 20.1653C16.5127 20.4074 15.9587 20.6493 15.4009 20.8928Z" fill="#171717"/>
</svg>
