<svg width="24" height="24" viewBox="0 0 24 24" fill="none" xmlns="http://www.w3.org/2000/svg">
<path fill-rule="evenodd" clip-rule="evenodd" d="M5.89655 15.8966C4.27782 17.5153 3.36842 19.7108 3.36842 22L2 22C2 19.3478 3.05357 16.8043 4.92893 14.9289C6.8043 13.0536 9.34784 12 12 12C14.6522 12 17.1957 13.0536 19.0711 14.9289C20.9464 16.8043 22 19.3478 22 22L20.6316 22C20.6316 19.7108 19.7222 17.5153 18.1034 15.8966C16.4847 14.2778 14.2892 13.3684 12 13.3684C9.71076 13.3684 7.51529 14.2778 5.89655 15.8966Z" fill="white"/>
<path d="M16.23 6.94C16.23 9.3093 14.3093 11.23 11.94 11.23C9.5707 11.23 7.65 9.3093 7.65 6.94C7.65 4.5707 9.5707 2.65 11.94 2.65C14.3093 2.65 16.23 4.5707 16.23 6.94Z" stroke="white" stroke-width="1.3"/>
</svg>
