<svg width="46" height="46" viewBox="0 0 46 46" fill="none" xmlns="http://www.w3.org/2000/svg">
<g clip-path="url(#clip0_90_2709)">
<path d="M23 0C18.451 0 14.0042 1.34893 10.2219 3.8762C6.43957 6.40347 3.4916 9.99558 1.75078 14.1983C0.00996562 18.401 -0.445511 23.0255 0.441949 27.4871C1.32941 31.9486 3.51995 36.0469 6.73656 39.2635C9.95317 42.4801 14.0514 44.6706 18.5129 45.5581C22.9745 46.4455 27.599 45.99 31.8017 44.2492C36.0044 42.5084 39.5966 39.5604 42.1238 35.7781C44.6511 31.9958 46 27.549 46 23C46 16.9 43.5768 11.0499 39.2635 6.73654C34.9501 2.42321 29.1 0 23 0V0ZM36.2564 32.0014C35.5873 32.0955 32.315 32.0014 32.1451 32.0014C31.2992 32.0125 30.483 31.6894 29.8739 31.1023C29.1839 30.4358 28.5671 29.704 27.8927 29.0114C27.694 28.7988 27.4781 28.603 27.2472 28.4259C26.7088 28.013 26.1756 28.1044 25.9221 28.7422C25.7241 29.4285 25.586 30.1307 25.5091 30.8409C25.4647 31.4839 25.057 31.8864 24.3356 31.9308C23.8887 31.9543 23.4417 31.9648 23 31.9517C21.3901 31.9429 19.8053 31.5514 18.3765 30.8095C16.83 29.9487 15.4826 28.7713 14.4221 27.3543C12.6788 25.1275 11.2857 22.6811 10.0416 20.159C9.97626 20.0309 8.70081 17.318 8.66945 17.1899C8.55445 16.7639 8.66945 16.3535 9.02229 16.2098C9.24706 16.1235 13.4498 16.2098 13.5204 16.2098C13.833 16.2076 14.1383 16.305 14.392 16.4878C14.6457 16.6705 14.8347 16.9292 14.9317 17.2265C15.7093 19.2154 16.7729 21.0803 18.089 22.7622C18.2734 22.9862 18.489 23.1825 18.7293 23.345C19.0717 23.5802 19.3958 23.4992 19.5369 23.1019C19.7044 22.5544 19.8027 21.9881 19.8297 21.4161C19.8532 20.2818 19.8297 19.5369 19.7669 18.4026C19.7251 17.676 19.469 17.0409 18.3974 16.8344C18.0681 16.7743 18.0393 16.5025 18.251 16.2307C18.6927 15.6688 19.2965 15.5773 19.9734 15.5433C20.9823 15.4858 21.9912 15.525 23 15.5433H23.2196C23.6586 15.5417 24.0967 15.5864 24.5264 15.6766C24.7806 15.7285 25.0113 15.8611 25.1841 16.0546C25.357 16.2482 25.4627 16.4923 25.4856 16.7508C25.5375 17.037 25.5594 17.3278 25.5509 17.6185C25.5248 18.8548 25.4647 20.0936 25.4516 21.3299C25.4395 21.8204 25.4842 22.3107 25.5849 22.7909C25.7287 23.4495 26.1808 23.6142 26.6304 23.1385C27.213 22.525 27.7469 21.8669 28.2273 21.1705C29.0788 19.9009 29.7804 18.5371 30.3182 17.1063C30.6109 16.3718 30.8409 16.2098 31.625 16.2098H36.0839C36.349 16.2051 36.6133 16.2404 36.868 16.3143C36.9581 16.338 37.0424 16.38 37.1155 16.4378C37.1886 16.4956 37.2491 16.5678 37.293 16.65C37.3369 16.7322 37.3634 16.8226 37.3707 16.9155C37.3781 17.0084 37.3662 17.1018 37.3358 17.1899C37.1163 18.1674 36.5883 19.0011 36.029 19.8035C35.1221 21.0868 34.1655 22.3388 33.2376 23.6064C33.126 23.7702 33.0239 23.9404 32.9318 24.116C32.5816 24.7485 32.6077 25.1014 33.1148 25.6241C33.925 26.4578 34.7901 27.2367 35.5716 28.094C36.1448 28.7177 36.6625 29.3902 37.1189 30.1039C37.6756 31.003 37.3228 31.8498 36.2564 32.0014Z" fill="#171717"/>
</g>
<defs>
<clipPath id="clip0_90_2709">
<rect width="46" height="46" fill="white"/>
</clipPath>
</defs>
</svg>
