<svg width="46" height="46" viewBox="0 0 46 46" fill="none" xmlns="http://www.w3.org/2000/svg">
<path fill-rule="evenodd" clip-rule="evenodd" d="M0 23C0 35.7025 10.2975 46 23 46C35.7025 46 46 35.7025 46 23C46 10.2975 35.7025 0 23 0C10.2975 0 0 10.2975 0 23ZM37.4347 22.1195C37.4317 29.6585 31.2988 35.7929 23.7582 35.7959H23.7526C21.4636 35.7951 19.2145 35.2208 17.2169 34.1312L9.9668 36.0331L11.9071 28.9461C10.7102 26.8719 10.0804 24.5192 10.0815 22.1088C10.0845 14.5681 16.2197 8.43311 23.7581 8.43311C27.4167 8.43468 30.8506 9.85898 33.4327 12.4441C36.0149 15.0291 37.4361 18.4653 37.4347 22.1195Z" fill="#171717"/>
<path fill-rule="evenodd" clip-rule="evenodd" d="M13.2505 32.784L17.5529 31.6554L17.968 31.9017C19.7133 32.9374 21.7139 33.4854 23.7537 33.4862H23.7583C30.0236 33.4862 35.123 28.3867 35.1255 22.1188C35.1267 19.0814 33.9454 16.2255 31.7993 14.0768C29.6531 11.9281 26.799 10.7442 23.7628 10.7432C17.4926 10.7432 12.3931 15.8421 12.3906 22.1096C12.3897 24.2575 12.9907 26.3493 14.1286 28.1591L14.3989 28.5892L13.2505 32.784ZM30.18 25.0646C30.4184 25.1798 30.5793 25.2576 30.6481 25.3723C30.7335 25.5148 30.7335 26.199 30.4488 26.9974C30.1639 27.7956 28.7987 28.5242 28.1421 28.6222C27.5534 28.7103 26.8084 28.747 25.9898 28.4868C25.4934 28.3293 24.8569 28.1191 24.0416 27.767C20.838 26.3836 18.673 23.2786 18.2638 22.6918C18.2351 22.6507 18.2151 22.6219 18.2039 22.607L18.2011 22.6033C18.0203 22.362 16.8085 20.7452 16.8085 19.0719C16.8085 17.4978 17.5817 16.6727 17.9377 16.293C17.962 16.2669 17.9845 16.243 18.0045 16.2211C18.3178 15.879 18.688 15.7934 18.9158 15.7934C19.1436 15.7934 19.3717 15.7955 19.5708 15.8055C19.5953 15.8068 19.6209 15.8066 19.6473 15.8065C19.8465 15.8053 20.0947 15.8038 20.3397 16.3921C20.4339 16.6185 20.5717 16.9542 20.7171 17.3082C21.0112 18.0241 21.3361 18.8151 21.3933 18.9295C21.4787 19.1006 21.5357 19.3001 21.4218 19.5282C21.4047 19.5624 21.3888 19.5947 21.3737 19.6256C21.2882 19.8003 21.2252 19.9287 21.08 20.0983C21.0229 20.1649 20.9639 20.2368 20.9049 20.3087C20.7873 20.4519 20.6698 20.595 20.5674 20.697C20.3964 20.8674 20.2183 21.0523 20.4176 21.3944C20.6169 21.7365 21.3028 22.8555 22.3187 23.7617C23.4107 24.7358 24.3598 25.1475 24.8409 25.3561C24.9349 25.3969 25.011 25.4299 25.0668 25.4578C25.4084 25.629 25.6078 25.6003 25.8071 25.3723C26.0065 25.1443 26.6614 24.3744 26.8892 24.0324C27.1169 23.6904 27.3448 23.7474 27.658 23.8613C27.9713 23.9755 29.6514 24.8021 29.9931 24.9731C30.0599 25.0066 30.1222 25.0367 30.18 25.0646Z" fill="#171717"/>
</svg>
