<svg width="391" height="96" viewBox="0 0 391 96" fill="none" xmlns="http://www.w3.org/2000/svg">
<g clip-path="url(#clip0_105_29710)">
<path d="M103.034 34.0244H142.586V41.409H127.034V82.9216H118.483V41.409H103V34.0244H103.034ZM140.897 47.5169H148.207V54.3494H148.345C148.586 53.3831 149.034 52.4514 149.69 51.5542C150.345 50.657 151.138 49.7944 152.069 49.0697C153 48.3105 154.034 47.7239 155.172 47.2408C156.31 46.7922 157.483 46.5507 158.655 46.5507C159.552 46.5507 160.207 46.5852 160.552 46.6197C160.897 46.6542 161.241 46.7232 161.621 46.7577V54.2803C161.069 54.1768 160.517 54.1078 159.931 54.0388C159.345 53.9698 158.793 53.9353 158.241 53.9353C156.931 53.9353 155.69 54.2113 154.517 54.7289C153.345 55.2466 152.345 56.0402 151.483 57.0409C150.621 58.0762 149.931 59.3184 149.414 60.8368C148.897 62.3551 148.655 64.0805 148.655 66.0474V82.8871H140.862V47.5169H140.897ZM197.448 82.9216H189.793V77.987H189.655C188.69 79.7814 187.276 81.1962 185.379 82.266C183.483 83.3357 181.552 83.8878 179.586 83.8878C174.931 83.8878 171.552 82.7491 169.483 80.4371C167.414 78.1251 166.379 74.6398 166.379 69.9813V47.5169H174.172V69.2221C174.172 72.3278 174.759 74.5363 175.966 75.8131C177.138 77.0898 178.828 77.7455 180.966 77.7455C182.621 77.7455 183.966 77.5039 185.069 76.9863C186.172 76.4687 187.069 75.8131 187.724 74.9504C188.414 74.1222 188.897 73.087 189.207 71.9137C189.517 70.7404 189.655 69.4637 189.655 68.0834V47.5514H197.448V82.9216ZM210.724 71.5686C210.966 73.8461 211.828 75.4335 213.31 76.3652C214.828 77.2624 216.621 77.7455 218.724 77.7455C219.448 77.7455 220.276 77.6765 221.207 77.5729C222.138 77.4694 223.034 77.2279 223.828 76.9173C224.655 76.6067 225.31 76.1236 225.862 75.5025C226.379 74.8814 226.621 74.0877 226.586 73.087C226.552 72.0862 226.172 71.2581 225.483 70.6369C224.793 69.9813 223.931 69.4982 222.862 69.0841C221.793 68.7045 220.586 68.3594 219.207 68.0834C217.828 67.8073 216.448 67.4967 215.034 67.1862C213.586 66.8756 212.172 66.4615 210.828 66.0129C209.483 65.5643 208.276 64.9432 207.207 64.1495C206.138 63.3903 205.276 62.3896 204.655 61.1819C204 59.9741 203.69 58.4903 203.69 56.6959C203.69 54.7635 204.172 53.1761 205.103 51.8648C206.034 50.5535 207.241 49.5183 208.655 48.7246C210.103 47.931 211.69 47.3788 213.448 47.0338C215.207 46.7232 216.897 46.5507 218.483 46.5507C220.31 46.5507 222.069 46.7577 223.724 47.1373C225.379 47.5169 226.897 48.138 228.241 49.0352C229.586 49.8979 230.69 51.0366 231.586 52.4169C232.483 53.7972 233.035 55.4881 233.276 57.455H225.138C224.759 55.5916 223.931 54.3149 222.586 53.6937C221.241 53.0381 219.69 52.7275 217.966 52.7275C217.414 52.7275 216.759 52.762 216 52.8655C215.241 52.9691 214.552 53.1416 213.862 53.3831C213.207 53.6247 212.655 54.0043 212.172 54.4874C211.724 54.9705 211.483 55.5916 211.483 56.3853C211.483 57.3515 211.828 58.1107 212.483 58.6973C213.138 59.2839 214 59.767 215.069 60.1811C216.138 60.5607 217.345 60.9058 218.724 61.1819C220.103 61.4579 221.517 61.7685 222.966 62.079C224.379 62.3896 225.759 62.8037 227.138 63.2523C228.517 63.7009 229.724 64.322 230.793 65.1157C231.862 65.9094 232.724 66.8756 233.379 68.0489C234.035 69.2221 234.379 70.7059 234.379 72.4313C234.379 74.5363 233.897 76.2962 232.931 77.78C231.966 79.2293 230.724 80.4371 229.207 81.3343C227.69 82.2315 225.966 82.9216 224.103 83.3357C222.241 83.7498 220.379 83.9568 218.552 83.9568C216.31 83.9568 214.241 83.7153 212.345 83.1977C210.448 82.6801 208.793 81.9209 207.414 80.9202C206.035 79.8849 204.931 78.6082 204.138 77.0898C203.345 75.5715 202.931 73.7426 202.862 71.6376H210.724V71.5686ZM236.448 47.5169H242.345V36.8885H250.138V47.5169H257.172V53.3486H250.138V72.2588C250.138 73.087 250.172 73.7771 250.241 74.3982C250.31 74.9849 250.483 75.5025 250.724 75.9166C250.966 76.3307 251.345 76.6412 251.862 76.8483C252.379 77.0553 253.034 77.1588 253.931 77.1588C254.483 77.1588 255.034 77.1588 255.586 77.1243C256.138 77.0898 256.69 77.0208 257.241 76.8828V82.9216C256.379 83.0251 255.517 83.0941 254.724 83.1977C253.897 83.3012 253.069 83.3357 252.207 83.3357C250.138 83.3357 248.483 83.1287 247.241 82.7491C246 82.3695 245 81.7829 244.31 81.0237C243.586 80.2645 243.138 79.3328 242.862 78.1941C242.621 77.0553 242.448 75.744 242.414 74.2947V53.4177H236.517V47.5169H236.448ZM262.69 47.5169H270.069V52.3134H270.207C271.31 50.243 272.828 48.7936 274.793 47.8964C276.759 46.9993 278.862 46.5507 281.172 46.5507C283.966 46.5507 286.379 47.0338 288.448 48.0345C290.517 49.0007 292.241 50.3465 293.621 52.0719C295 53.7972 296 55.7987 296.69 58.0762C297.379 60.3537 297.724 62.8037 297.724 65.3918C297.724 67.7728 297.414 70.0848 296.793 72.2933C296.172 74.5363 295.241 76.5032 294 78.2286C292.759 79.954 291.172 81.2998 289.241 82.335C287.31 83.3702 285.069 83.8878 282.448 83.8878C281.31 83.8878 280.172 83.7843 279.034 83.5773C277.897 83.3702 276.793 83.0251 275.759 82.5765C274.724 82.1279 273.724 81.5413 272.862 80.8166C271.966 80.092 271.241 79.2638 270.621 78.3321H270.483V96H262.69V47.5169ZM289.931 65.2537C289.931 63.6664 289.724 62.1136 289.31 60.5952C288.897 59.0769 288.276 57.7656 287.448 56.5924C286.621 55.4191 285.586 54.4874 284.379 53.7972C283.138 53.1071 281.724 52.7275 280.138 52.7275C276.862 52.7275 274.379 53.8663 272.724 56.1438C271.069 58.4212 270.241 61.4579 270.241 65.2537C270.241 67.0481 270.448 68.7045 270.897 70.2228C271.345 71.7412 271.966 73.0524 272.862 74.1567C273.724 75.2609 274.759 76.1236 275.966 76.7448C277.172 77.4004 278.586 77.711 280.172 77.711C281.966 77.711 283.448 77.3314 284.69 76.6067C285.931 75.8821 286.931 74.9159 287.724 73.7771C288.517 72.6039 289.103 71.2926 289.448 69.8087C289.759 68.3249 289.931 66.8066 289.931 65.2537ZM303.69 34.0244H311.483V41.409H303.69V34.0244ZM303.69 47.5169H311.483V82.9216H303.69V47.5169ZM318.448 34.0244H326.241V82.9216H318.448V34.0244ZM350.138 83.8878C347.31 83.8878 344.793 83.4047 342.586 82.473C340.379 81.5413 338.517 80.23 336.966 78.6082C335.448 76.9518 334.276 74.9849 333.483 72.7074C332.69 70.4299 332.276 67.9108 332.276 65.1847C332.276 62.4931 332.69 60.0086 333.483 57.7311C334.276 55.4536 335.448 53.4867 336.966 51.8303C338.483 50.1739 340.379 48.8972 342.586 47.9655C344.793 47.0338 347.31 46.5507 350.138 46.5507C352.966 46.5507 355.483 47.0338 357.69 47.9655C359.897 48.8972 361.759 50.2085 363.31 51.8303C364.828 53.4867 366 55.4536 366.793 57.7311C367.586 60.0086 368 62.4931 368 65.1847C368 67.9108 367.586 70.4299 366.793 72.7074C366 74.9849 364.828 76.9518 363.31 78.6082C361.793 80.2645 359.897 81.5413 357.69 82.473C355.483 83.4047 352.966 83.8878 350.138 83.8878ZM350.138 77.711C351.862 77.711 353.379 77.3314 354.655 76.6067C355.931 75.8821 356.966 74.9159 357.793 73.7426C358.621 72.5693 359.207 71.2236 359.621 69.7397C360 68.2559 360.207 66.7376 360.207 65.1847C360.207 63.6664 360 62.1826 359.621 60.6642C359.241 59.1459 358.621 57.8346 357.793 56.6614C356.966 55.4881 355.931 54.5564 354.655 53.8317C353.379 53.1071 351.862 52.7275 350.138 52.7275C348.414 52.7275 346.897 53.1071 345.621 53.8317C344.345 54.5564 343.31 55.5226 342.483 56.6614C341.655 57.8346 341.069 59.1459 340.655 60.6642C340.276 62.1826 340.069 63.6664 340.069 65.1847C340.069 66.7376 340.276 68.2559 340.655 69.7397C341.034 71.2236 341.655 72.5693 342.483 73.7426C343.31 74.9159 344.345 75.8821 345.621 76.6067C346.897 77.3659 348.414 77.711 350.138 77.711ZM370.276 47.5169H376.172V36.8885H383.966V47.5169H391V53.3486H383.966V72.2588C383.966 73.087 384 73.7771 384.069 74.3982C384.138 74.9849 384.31 75.5025 384.552 75.9166C384.793 76.3307 385.172 76.6412 385.69 76.8483C386.207 77.0553 386.862 77.1588 387.759 77.1588C388.31 77.1588 388.862 77.1588 389.414 77.1243C389.966 77.0898 390.517 77.0208 391.069 76.8828V82.9216C390.207 83.0251 389.345 83.0941 388.552 83.1977C387.724 83.3012 386.897 83.3357 386.035 83.3357C383.966 83.3357 382.31 83.1287 381.069 82.7491C379.828 82.3695 378.828 81.7829 378.138 81.0237C377.414 80.2645 376.966 79.3328 376.69 78.1941C376.448 77.0553 376.276 75.744 376.241 74.2947V53.4177H370.345V47.5169H370.276Z" fill="white"/>
<path d="M93.5517 34.0244H57.8276L46.7931 0L35.7241 34.0244L0 33.9899L28.931 55.0395L17.8621 89.0295L46.7931 68.0144L75.6897 89.0295L64.6552 55.0395L93.5517 34.0244Z" fill="#00B67A"/>
<path d="M67.1378 62.7347L64.655 55.0396L46.793 68.0144L67.1378 62.7347Z" fill="#005128"/>
</g>
<defs>
<clipPath id="clip0_105_29710">
<rect width="390.621" height="96" fill="white"/>
</clipPath>
</defs>
</svg>
