<svg width="70" height="70" viewBox="0 0 70 70" fill="none" xmlns="http://www.w3.org/2000/svg">
<path fill-rule="evenodd" clip-rule="evenodd" d="M31.6895 0.0887979C28.5138 0.413471 24.9422 1.30035 21.9184 2.51484C10.1362 7.24757 1.71431 18.2932 0.234882 30.9533C-0.979907 41.35 2.55899 51.772 9.88575 59.3753C14.4061 64.0661 20.3771 67.5092 26.6425 69.038C29.7708 69.8013 31.4929 70 34.981 70C40.6935 70 45.229 68.9624 50.2778 66.5009C52.2463 65.5411 56.1554 63.1167 56.601 62.5792C56.7411 62.4101 56.6229 62.3279 55.9336 62.115C54.9004 61.7959 53.5086 61.0499 52.4402 60.2424C51.7029 59.685 51.6049 59.6494 51.3161 59.8332C49.1885 61.1878 46.9776 62.3046 45.1903 62.9273L44.2085 63.2694L43.6775 62.7592C43.3855 62.4786 42.5335 61.4913 41.7842 60.565C35.5657 52.8781 30.9576 42.9114 28.9191 32.7401C28.5554 30.9257 27.9591 27.1116 27.9591 26.6004C27.9591 26.3763 28.1614 26.3087 29.2491 26.1691C31.5703 25.8711 31.542 25.8636 32.0709 26.9188C34.2999 31.3659 40.0555 37.8291 48.3839 45.2373L48.9865 45.7733L49.5542 44.7972C49.8666 44.2605 50.597 43.3146 51.1776 42.6955L52.2332 41.5698L50.3822 39.9007C45.9463 35.901 41.1799 30.875 38.8477 27.738C37.1391 25.4397 37.0671 25.6466 39.5349 25.7627C47.6365 26.1441 55.4443 28.1169 62.3012 31.5147C64.1435 32.4277 64.5491 32.6859 64.6266 32.9949C64.7433 33.4609 64.5731 38.2734 64.406 39.2285L64.2828 39.9324L64.8826 40.2377C65.9435 40.7777 67.2155 41.707 68.097 42.5864C68.5697 43.0577 68.9743 43.4241 68.9963 43.4004C69.0378 43.3559 69.5675 40.6716 69.7128 39.7695C70.1468 37.0752 70.0819 32.4924 69.5656 29.3718C67.9733 19.748 62.4564 11.2454 54.2181 5.71851C52.448 4.53097 48.6203 2.63082 46.5911 1.93227C44.6825 1.27531 41.9026 0.591987 39.9549 0.301143C38.0885 0.0226011 33.4925 -0.095579 31.6895 0.0887979ZM40.028 5.71368C40.7521 5.84563 41.4467 5.98388 41.5716 6.02078C41.7282 6.0672 40.8608 7.03303 38.7831 9.12619C34.6593 13.2806 32.4129 16.3517 31.3835 19.2428C31.1637 19.8602 30.9383 20.4181 30.8827 20.4829C30.8107 20.5666 28.1146 21.0045 27.5568 21.0231C27.4702 21.0259 27.5344 19.5304 27.6728 18.321C28.188 13.8186 29.9178 9.4885 32.5479 6.11729L33.1524 5.34244L35.9319 5.40819C37.5795 5.44715 39.2475 5.57148 40.028 5.71368ZM25.0311 8.32C23.3459 11.8544 22.4321 15.5977 22.298 19.5184L22.2117 22.0397L20.8064 22.4924C20.0336 22.7415 19.3189 22.9798 19.2183 23.0221C19.1054 23.0696 18.9228 22.8355 18.7404 22.4097C17.9438 20.5495 15.3229 17.3849 13.2609 15.7938L12.6799 15.3452L14.0655 13.973C16.3541 11.7069 18.7064 9.99726 21.5054 8.56588C22.9519 7.82618 25.2643 6.83664 25.573 6.82522C25.6701 6.8217 25.4309 7.48144 25.0311 8.32ZM50.3414 9.57359C55.0841 12.4378 59.1965 16.9132 61.6029 21.8297C62.3417 23.3389 63.2149 25.4944 63.2149 25.8087C63.2149 25.9204 62.8198 25.8068 62.1543 25.5037C60.8261 24.8985 57.841 23.7892 56.0327 23.2289C50.5579 21.5323 45.2046 20.6268 39.0405 20.3546C37.7732 20.2986 36.7365 20.2179 36.7365 20.1755C36.7365 19.9814 37.6012 18.6371 38.4982 17.4363C40.3993 14.8918 43.3347 11.8703 46.6517 9.0436L47.7165 8.13621L48.4803 8.52356C48.9005 8.73664 49.738 9.20908 50.3414 9.57359ZM10.8186 20.7307C12.1601 21.8653 14.0616 24.4579 14.0616 25.1523C14.0616 25.2797 13.395 25.7781 12.5103 26.312C10.7263 27.3887 8.10541 29.3207 6.60828 30.6626C5.39539 31.7496 5.40139 31.7608 5.87098 29.3252C6.41064 26.5259 7.66069 23.0721 9.00582 20.664C9.61746 19.5692 9.43738 19.5626 10.8186 20.7307ZM22.7663 28.1636C24.522 41.5081 29.3312 53.3585 36.9512 63.117C38.0259 64.4933 38.0376 64.5175 37.674 64.6087C36.8712 64.8105 31.2894 64.5589 29.6379 64.2465C26.3663 63.6279 23.2224 62.4755 20.3431 60.8397C18.7717 59.947 16.0527 58.001 15.4137 57.3121L15.0837 56.9561L15.6594 54.4769C17.767 45.4 19.1605 36.6755 19.6756 29.3319C19.7025 28.9475 19.764 28.5937 19.8121 28.5455C19.9057 28.4518 22.4054 27.481 22.574 27.4728C22.6295 27.4702 22.7159 27.7811 22.7663 28.1636ZM13.9024 34.0595C13.2608 39.5166 11.0218 51.9246 10.6788 51.9246C10.4927 51.9246 9.12154 49.6219 8.27803 47.8928C6.94197 45.1539 5.38779 39.8288 5.73245 39.1708C5.99855 38.663 9.31683 35.3389 10.7097 34.1847C12.0406 33.0821 14.0947 31.5552 14.1605 31.6194C14.1747 31.6332 14.0585 32.7313 13.9024 34.0595ZM57.2551 43.3478C55.9228 43.7797 54.989 44.3767 53.9717 45.4468C52.4653 47.0315 51.8043 48.7022 51.8043 50.9257C51.8043 53.2113 52.6753 55.1886 54.3609 56.7294C58.8092 60.7957 65.8785 58.6275 67.3809 52.7359C67.6628 51.6308 67.6618 50.2132 67.3783 49.0093C66.7338 46.2721 64.423 43.9327 61.6492 43.2094C60.3788 42.8781 58.5234 42.9366 57.2551 43.3478Z" fill="url(#paint0_linear_1769_21614)"/>
<defs>
<linearGradient id="paint0_linear_1769_21614" x1="11.8611" y1="-28.8626" x2="38.194" y2="71.1669" gradientUnits="userSpaceOnUse">
<stop offset="0.257999" stop-color="#FF6A00"/>
<stop offset="0.447932" stop-color="#FF6A00"/>
<stop offset="1" stop-color="#FFDD99"/>
</linearGradient>
</defs>
</svg>
