<svg width="154" height="42" viewBox="0 0 154 42" fill="none" xmlns="http://www.w3.org/2000/svg">
<path fill-rule="evenodd" clip-rule="evenodd" d="M11.0599 17.6389C9.9516 17.752 8.70506 18.061 7.64972 18.4842C3.53763 20.1334 0.59831 23.9823 0.081976 28.3938C-0.341997 32.0167 0.893111 35.6483 3.45022 38.2977C5.02787 39.9323 7.11179 41.1321 9.29849 41.6648C10.3903 41.9308 10.9913 42 12.2087 42C14.2024 42 15.7854 41.6385 17.5474 40.7807C18.2344 40.4463 19.5988 39.6015 19.7543 39.4142C19.8032 39.3553 19.762 39.3266 19.5214 39.2524C19.1608 39.1412 18.675 38.8813 18.3021 38.5999C18.0448 38.4057 18.0106 38.3933 17.9098 38.4573C17.1673 38.9293 16.3956 39.3185 15.7718 39.5355L15.4292 39.6547L15.2439 39.4769C15.142 39.3791 14.8446 39.0351 14.5831 38.7123C12.4128 36.0338 10.8045 32.5608 10.093 29.0165C9.9661 28.3842 9.758 27.0552 9.758 26.8771C9.758 26.799 9.82861 26.7754 10.2082 26.7268C10.7132 26.662 10.8996 26.6366 11.0131 26.7158C11.0816 26.7636 11.1235 26.8495 11.193 26.988C11.971 28.5376 13.9798 30.7898 16.8865 33.3712L17.0968 33.558L17.2949 33.2179C17.4039 33.0309 17.6588 32.7012 17.8615 32.4855L18.2299 32.0933L17.5839 31.5117C16.0357 30.1179 14.3722 28.3666 13.5582 27.2735C13.2503 26.8599 13.0947 26.6791 13.1348 26.6066C13.1723 26.5386 13.3815 26.5656 13.798 26.5852C16.6256 26.718 19.3506 27.4055 21.7437 28.5895C22.3867 28.9076 22.5282 28.9976 22.5553 29.1053C22.596 29.2676 22.5366 30.9446 22.4783 31.2774L22.4353 31.5227L22.6447 31.6291C23.0149 31.8172 23.4589 32.1411 23.7665 32.4475C23.9315 32.6117 24.0727 32.7394 24.0804 32.7312C24.0949 32.7156 24.2797 31.7803 24.3304 31.4659C24.4819 30.5271 24.4593 28.9302 24.2791 27.8428C23.7233 24.4893 21.7979 21.5265 18.9226 19.6006C18.3049 19.1868 16.969 18.5246 16.2608 18.2812C15.5946 18.0523 14.6244 17.8142 13.9446 17.7128C13.2933 17.6158 11.6892 17.5746 11.0599 17.6389ZM13.9701 19.5987C14.2229 19.6447 14.4653 19.6929 14.5089 19.7057C14.5635 19.7219 14.2608 20.0585 13.5356 20.7879C12.0964 22.2355 11.3124 23.3057 10.9531 24.3131C10.8764 24.5282 10.7977 24.7226 10.7783 24.7452C10.7532 24.7744 9.81224 24.927 9.61757 24.9334C9.58734 24.9344 9.60975 24.4133 9.65805 23.9919C9.83787 22.423 10.4416 20.9141 11.3595 19.7394L11.5705 19.4694L12.5405 19.4923C13.1156 19.5059 13.6977 19.5492 13.9701 19.5987ZM8.73608 20.5069C8.14791 21.7385 7.82901 23.0429 7.78219 24.4091L7.75206 25.2877L7.26162 25.4454C6.99188 25.5322 6.74247 25.6153 6.70735 25.63C6.66793 25.6465 6.60421 25.565 6.54054 25.4166C6.26254 24.7684 5.34781 23.6657 4.62817 23.1112L4.42538 22.9549L4.90898 22.4768C5.70771 21.6871 6.5287 21.0914 7.50556 20.5926C8.01041 20.3349 8.81746 19.99 8.92519 19.9861C8.95909 19.9848 8.87561 20.2147 8.73608 20.5069ZM21.5 25.2145C20.6601 23.5013 19.2249 21.9418 17.5696 20.9438C17.359 20.8167 17.0667 20.6521 16.9201 20.5779L16.6535 20.4429L16.2819 20.7591C15.1242 21.7441 14.0997 22.7969 13.4362 23.6836C13.1232 24.102 12.8214 24.5705 12.8214 24.6381C12.8214 24.6529 13.1832 24.681 13.6255 24.7005C15.7768 24.7954 17.6452 25.1109 19.5559 25.7021C20.187 25.8973 21.2289 26.2839 21.6924 26.4947C21.9247 26.6004 22.0626 26.64 22.0626 26.601C22.0626 26.4915 21.7578 25.7404 21.5 25.2145ZM3.77578 24.8315C4.24397 25.2269 4.90761 26.1303 4.90761 26.3723C4.90761 26.4167 4.67494 26.5904 4.3662 26.7764C3.74357 27.1516 2.82884 27.8248 2.30633 28.2924L2.29609 28.3016L2.29608 28.3016L2.29606 28.3016C2.1138 28.4647 2.01264 28.5552 1.97045 28.5331C1.91782 28.5056 1.95701 28.3027 2.04508 27.8467L2.049 27.8264C2.23735 26.8509 2.67363 25.6474 3.14309 24.8083C3.16092 24.7765 3.17681 24.7472 3.19126 24.7207C3.25516 24.6033 3.29073 24.5379 3.33932 24.5261C3.40035 24.5113 3.48191 24.5809 3.66593 24.7381C3.69906 24.7664 3.73552 24.7975 3.77578 24.8315ZM12.8963 39.6014C10.2368 36.201 8.5584 32.0716 7.94562 27.4216C7.92806 27.2883 7.89788 27.18 7.87853 27.1809C7.81966 27.1837 6.94726 27.522 6.91458 27.5547C6.89779 27.5715 6.87634 27.6948 6.86695 27.8287C6.68718 30.3877 6.20081 33.4278 5.46524 36.5907L5.26434 37.4546L5.37952 37.5787C5.60253 37.8187 6.55147 38.4968 7.09992 38.8079C8.10481 39.3779 9.20207 39.7795 10.3439 39.995C10.9203 40.1039 12.8684 40.1915 13.1486 40.1212C13.2755 40.0894 13.2714 40.081 12.8963 39.6014ZM4.85206 29.4761C4.62812 31.3777 3.8467 35.7013 3.72697 35.7013C3.66203 35.7013 3.18348 34.8989 2.88909 34.2964C2.42279 33.342 1.88036 31.4865 2.00065 31.2572C2.09352 31.0802 3.25164 29.9219 3.73775 29.5197C4.20226 29.1355 4.91914 28.6034 4.94212 28.6258C4.94212 28.6258 4.90653 29.0132 4.85206 29.4761Z" fill="url(#paint0_linear_1762_15442)"/>
<path d="M18.8385 33.4443C19.1935 33.0714 19.5194 32.8634 19.9844 32.7129C20.4271 32.5696 21.0746 32.5492 21.518 32.6646C22.4861 32.9167 23.2926 33.7318 23.5175 34.6857C23.6165 35.1052 23.6168 35.5992 23.5184 35.9842C22.9941 38.0372 20.5268 38.7927 18.9743 37.3758C18.386 36.8389 18.082 36.1499 18.082 35.3534C18.082 34.5786 18.3127 33.9965 18.8385 33.4443Z" fill="#FF6A00"/>
<path fill-rule="evenodd" clip-rule="evenodd" d="M29.8216 3.29183C30.4251 1.63879 32.0974 0.406911 34.213 0.0568906C34.5149 0.00693151 34.9344 -0.00899009 35.5915 0.00468615C36.6914 0.0274969 37.3476 0.14349 38.4753 0.514381C39.3992 0.81827 41.2077 1.60287 41.2077 1.69983C41.2077 1.73876 39.4751 5.08505 39.4127 5.1665C39.3833 5.20498 39.0913 5.08327 38.489 4.78147C37.0914 4.08123 35.9875 3.77147 35.0705 3.82225C34.2908 3.86547 33.8984 4.17467 33.9836 4.67865C34.0645 5.15711 34.4317 5.35633 36.2808 5.92517C38.6127 6.64256 39.6187 7.10853 40.4034 7.8347C41.2901 8.65522 41.6651 9.71441 41.5977 11.2084C41.5506 12.2539 41.271 13.1339 40.7686 13.818C40.4884 14.1995 39.881 14.7344 39.4472 14.9816C37.2354 16.2421 33.7148 16.1519 30.2561 14.7461C29.9472 14.6206 29.4954 14.4132 29.2521 14.2852L28.8097 14.0526L28.9781 13.6894C29.4154 12.7459 30.6539 10.2898 30.6924 10.2898C30.7162 10.2898 30.8787 10.3736 31.0536 10.476C31.6171 10.8062 32.7935 11.3461 33.3705 11.5394C34.1695 11.8071 34.7139 11.9193 35.3873 11.9549C36.3618 12.0065 36.8046 11.8652 36.9247 11.4644C36.9776 11.2882 36.9706 11.2393 36.8622 11.0231C36.7052 10.7101 36.3721 10.5222 35.4639 10.2348C32.6603 9.34745 31.9647 9.07301 31.1916 8.54892C30.5669 8.12552 30.0587 7.54953 29.8205 6.99493C29.3967 6.00835 29.3971 4.45421 29.8216 3.29183ZM43.5053 15.7501V7.9169V0.0836818H45.6496H47.794V6.02841V11.9731L51.3552 11.9863L54.9164 11.9994L54.9298 13.8747L54.9432 15.7501H49.2242H43.5053ZM57.5566 7.80234C56.2005 12.0473 55.0778 15.5721 55.0616 15.6353L55.0321 15.7501H57.2325H59.4329L59.4675 15.6098C59.4864 15.5326 59.6659 14.8494 59.8662 14.0916L60.2303 12.7138L62.4344 12.7005L64.6384 12.6872L64.6979 12.9046C64.7306 13.0242 64.9121 13.7076 65.1011 14.4233L65.4448 15.7246L67.6418 15.7379L69.8388 15.7512L69.6661 15.2021C69.5711 14.9001 68.4514 11.3806 67.1778 7.38108L64.8622 0.109197L62.4421 0.0966946L60.022 0.0841921L57.5566 7.80234ZM71.1268 15.7501V7.9169V0.0836818L73.4882 0.0838349L75.8495 0.0839369L77.5338 3.76045C79.1562 7.30198 79.2205 7.43176 79.2848 7.29423C79.3216 7.21569 80.0819 5.56694 80.9745 3.63032L82.5975 0.109197L84.9546 0.0959292L87.3117 0.0826612V7.9164V15.7501H85.1421H82.9725L82.9595 11.6912L82.9464 7.63236L81.6695 10.4537L80.3927 13.2751L79.2188 13.2873L78.045 13.2994L76.7686 10.4677L75.4921 7.63593L75.4791 11.693L75.466 15.7501H73.2964H71.1268ZM89.9667 7.91634V15.7551L93.6555 15.7384C97.2599 15.7221 97.3569 15.7191 97.8957 15.606C100.659 15.0261 102.589 13.3827 103.464 10.8647C104.069 9.1246 104.081 6.88869 103.496 5.07633C103.279 4.40645 102.793 3.45309 102.403 2.93671C101.766 2.09149 100.727 1.24637 99.8144 0.830874C99.2737 0.584549 98.5255 0.353175 97.8602 0.226466C97.3233 0.124251 97.0991 0.117413 93.63 0.0980214L89.9667 0.0775581V7.91634ZM105.846 10.59C105.599 9.5407 105.592 9.37266 105.591 4.58715L105.59 0.0836818H107.734H109.879V4.18278C109.879 8.41384 109.902 9.04892 110.088 9.77499C110.245 10.3887 110.56 10.9799 110.921 11.3409C111.422 11.8417 111.878 12.0232 112.638 12.0243C113.888 12.026 114.677 11.4 115.134 10.0461C115.382 9.30994 115.392 9.08051 115.393 4.43405L115.393 0.0836818H117.563H119.733V4.4488C119.733 7.1715 119.712 9.00044 119.679 9.30948C119.383 12.0196 118.188 14.0369 116.261 15.0758C114.858 15.8322 112.677 16.0819 110.805 15.7006C108.24 15.1781 106.505 13.3902 105.846 10.59ZM122.183 7.9169V15.7501H124.353H126.522L126.536 11.9382L126.549 8.12634L129.63 11.9382L132.712 15.7501H134.442H136.173V7.9169V0.0836818H134.003H131.834L131.821 4.03729L131.807 7.9909L128.693 4.04005L125.579 0.0891421L123.881 0.0863864L122.183 0.0836818V7.9169ZM138.828 15.7501V7.9169V0.0836818H140.998H143.168V3.04964V6.0156L145.542 3.04964L147.916 0.0836818H150.344C152.274 0.0836818 152.764 0.0967967 152.733 0.14747C152.711 0.182528 151.455 1.73835 149.941 3.6048C148.426 5.47126 147.167 7.02422 147.142 7.05586C147.104 7.10363 149.216 10.1449 153.082 15.6098L153.182 15.7501L150.689 15.7478L148.197 15.7455L146.314 12.9471C145.279 11.408 144.411 10.1173 144.386 10.0789C144.351 10.0263 144.196 10.1597 143.756 10.6215L143.172 11.2339L143.17 13.492L143.168 15.7501H140.998H138.828ZM34.698 21.8585C33.6469 21.9539 32.477 22.3504 31.6602 22.8881C31.2764 23.1406 30.6225 23.7722 30.3506 24.1529C29.7109 25.0484 29.4127 26.2858 29.5229 27.5879C29.6488 29.0762 30.3956 30.0679 31.9928 30.8678C32.6007 31.1722 33.2044 31.3939 34.5795 31.8175C35.9039 32.2256 36.4565 32.4439 36.6954 32.6536C36.8827 32.818 36.9926 33.1206 36.9404 33.3284C36.8981 33.4966 36.6596 33.6951 36.4196 33.7617C36.1007 33.8503 35.0875 33.8255 34.5185 33.7153C33.5408 33.5258 32.179 32.9866 31.0842 32.3555C30.8624 32.2277 30.6742 32.1306 30.6659 32.1398C30.6386 32.1699 30.1256 33.2036 29.4611 34.5674L28.8086 35.9065L29.1239 36.0828C29.9891 36.5664 31.4623 37.103 32.6813 37.3787C35.0487 37.914 37.0151 37.8514 38.7423 37.1857C40.578 36.4781 41.614 34.9009 41.6158 32.8108C41.6169 31.5435 41.267 30.5725 40.544 29.8363C39.7585 29.0366 38.7627 28.5575 36.2875 27.7887C34.8016 27.3272 34.5169 27.2143 34.2516 26.9816C33.8456 26.6252 33.8835 26.0783 34.3303 25.8477C34.7171 25.648 35.6745 25.6386 36.4031 25.8273C37.2012 26.034 38.4145 26.5457 39.2004 27.0071C39.2899 27.0596 39.3729 27.0915 39.3848 27.078C39.4328 27.0239 41.2077 23.6013 41.2077 23.563C41.2077 23.5078 40.2219 23.0476 39.3738 22.7068C37.6635 22.0196 36.0825 21.7328 34.698 21.8585ZM61.2112 24.5007C62.4968 23.0278 64.3236 22.0878 66.3065 21.8789C68.6896 21.6279 70.9287 22.3725 72.5752 23.9639C75.4627 26.7547 75.9361 31.0213 73.7209 34.2897C73.1238 35.1706 71.9915 36.2022 71.0142 36.7557C69.5742 37.5711 67.7711 37.8994 66.0041 37.6679C62.4413 37.2011 59.6318 34.2515 59.2282 30.5543C58.9937 28.4064 59.7096 26.2212 61.2112 24.5007ZM43.5053 29.7836V37.6423H45.6496H47.794V34.5805V31.5186H50.4234H53.0528V34.581V37.6434L55.21 37.6301L57.3671 37.6168V29.7836V21.9504L55.21 21.937L53.0528 21.9237V24.833V27.7424H50.4234H47.794V24.8336V21.9249H45.6496H43.5053V29.7836ZM76.9473 37.6434V29.7811V21.9188L80.6871 21.9367L84.427 21.9546L84.9181 22.0882C85.9186 22.3603 86.6667 22.8104 87.41 23.5876C88.124 24.3341 88.5532 25.1105 88.83 26.1566C88.9985 26.7937 89.0196 27.8407 88.8773 28.5078C88.572 29.9385 87.6602 31.29 86.4948 32.0393C85.4564 32.7069 84.794 32.843 82.5767 32.8446L81.2881 32.8454L81.2748 35.2311L81.2615 37.6168L79.1044 37.6301L76.9473 37.6434ZM96.8454 3.94243C97.4721 4.06975 97.9365 4.32454 98.4155 4.80377C98.8842 5.2727 99.1192 5.67604 99.3398 6.39037C99.4747 6.82699 99.4811 6.89527 99.4811 7.89389C99.4811 8.89221 99.4746 8.96089 99.34 9.3968C99.0282 10.4062 98.4179 11.2235 97.6889 11.6082C97.1082 11.9145 96.731 11.9764 95.444 11.9764H94.3035V7.91941V3.86246H95.3777C96.1515 3.86246 96.562 3.88481 96.8454 3.94243ZM63.1813 7.14114C63.5639 8.59362 63.877 9.79346 63.877 9.80749C63.877 9.84924 61.0183 9.83653 61.0166 9.79479C61.012 9.6767 62.424 4.4315 62.452 4.46273C62.4705 4.4834 62.7987 5.6887 63.1813 7.14114ZM69.8041 26.8621C69.3687 26.3402 68.7257 25.9365 68.0887 25.7849C67.4489 25.6325 66.5449 25.6636 65.9649 25.8579C64.8361 26.2359 63.977 27.2883 63.7008 28.6317C63.3419 30.3772 63.8262 32.1767 64.9101 33.1249C65.2347 33.4089 65.8836 33.7349 66.3019 33.8242C66.7454 33.9189 67.7103 33.9059 68.1106 33.7999C69.3426 33.4734 70.2221 32.4768 70.6011 30.9778C70.738 30.4361 70.7225 28.9837 70.5739 28.4338C70.4367 27.9258 70.0741 27.1856 69.8041 26.8621ZM83.9637 25.8821C84.2855 26.0826 84.4769 26.4209 84.5555 26.9276C84.7115 27.934 84.3629 28.8496 83.7607 29.0149C83.6409 29.0478 83.0871 29.0711 82.4205 29.0713L81.2845 29.0716V27.3835V25.6954L82.5012 25.7123L83.718 25.729L83.9637 25.8821Z" fill="url(#paint1_linear_1762_15442)"/>
<defs>
<linearGradient id="paint0_linear_1762_15442" x1="3.70603" y1="17.2951" x2="18.1185" y2="40.3548" gradientUnits="userSpaceOnUse">
<stop stop-color="#FF6A00"/>
<stop offset="0.4375" stop-color="#FF6A00"/>
<stop offset="1" stop-color="#FFDD99"/>
</linearGradient>
<linearGradient id="paint1_linear_1762_15442" x1="48.5891" y1="-1.23534" x2="64.6485" y2="45.2959" gradientUnits="userSpaceOnUse">
<stop stop-color="#FF6A00"/>
<stop offset="0.447932" stop-color="#FF6A00"/>
<stop offset="1" stop-color="#FFDD99"/>
</linearGradient>
</defs>
</svg>
