<svg width="195" height="42" viewBox="0 0 195 42" fill="none" xmlns="http://www.w3.org/2000/svg">
<g clip-path="url(#clip0_112_772)">
<path fill-rule="evenodd" clip-rule="evenodd" d="M0 -0.000279714H6.99719H9.35997C14.7584 -0.000279714 19.1751 4.34755 19.1751 9.66177V11.3373C19.1751 16.6516 14.7584 20.9994 9.35997 20.9994H6.99719H0V-0.000579834L0 -0.000279714ZM181.431 -0.000279714H181.449L188.003 10.1561V-0.000279714H195V20.9997H188.003L181.431 10.8148V20.9997H174.434V-0.000279714H174.452H181.431H181.431ZM159.318 -0.000279714H166.316L159.497 20.9997H152.5L159.318 -0.000279714ZM139.638 -0.000279714H143.147C147.023 -0.000279714 150.194 2.82535 150.194 6.27762V7.36646C150.194 9.69239 148.754 11.7341 146.629 12.8184L151.54 20.9997H144.543L140.128 13.6444H139.639V20.9997H132.641V-0.000279714H138.208H139.638V-0.000279714ZM139.638 9.94869H140.864C142.64 9.94869 143.885 8.86015 143.885 7.27762V7.19059C143.885 5.60806 142.639 4.93129 140.864 4.93129H139.638V9.94899V9.94869ZM107.256 11.792L112.783 20.9997H119.78L113.478 10.4997L119.78 -0.000279714H112.783L107.256 9.20769V-0.000279714H100.259V20.9997H107.256V11.792ZM122.954 -0.000279714H129.952V20.9997H122.954V-0.000279714V-0.000279714ZM85.1434 -0.000279714H92.1406L85.3221 20.9997H78.3249L85.1434 -0.000279714ZM68.7509 -0.000279714H68.4759H66.3881H66.1131V0.00362184C60.8406 0.14828 56.5726 4.43789 56.5726 9.66177V11.3373C56.5726 16.5612 60.8403 20.8508 66.1131 20.9955V20.9994H66.3881H68.4759H68.7509V20.9955C74.0234 20.8508 78.2913 16.5612 78.2913 11.3373V9.66177C78.2913 9.44269 78.2834 9.2257 78.2685 9.00991L78.2913 8.80373H78.252H71.9228H67.2308V13.5036H71.2475C70.4265 14.5981 69.1076 15.3118 67.6274 15.3118H67.2372C64.7631 15.3118 62.739 13.3193 62.739 10.8836V10.1156C62.739 7.68008 64.7631 5.68729 67.2372 5.68729H67.6274C69.0189 5.68729 70.2679 6.31754 71.0948 7.30253L77.0578 4.98741C75.42 2.09336 72.3152 0.100861 68.7512 0.00332172V-0.000579834L68.7509 -0.000279714ZM48.8572 14.7299H55.2922V21H48.8572H41.86V14.7299V-0.000279714H48.8572V14.7299V14.7299ZM26.0525 -0.000279714H33.0497L26.2312 20.9997H19.234L26.0525 -0.000279714ZM6.99689 5.68849V15.3109C7.0228 15.3115 7.04841 15.3118 7.07432 15.3118H8.51059C10.9847 15.3118 13.0087 13.3193 13.0087 10.8836V10.1156C13.0087 7.68008 10.9847 5.68729 8.51059 5.68729H7.07432C7.04841 5.68729 7.0225 5.68789 6.99689 5.68819V5.68849Z" fill="black"/>
<path fill-rule="evenodd" clip-rule="evenodd" d="M33.1354 3.11948L40.0005 21H27.3296L33.1354 3.11948Z" fill="#ED1C24"/>
<path fill-rule="evenodd" clip-rule="evenodd" d="M92.2263 3.11948L99.0914 21H86.4205L92.2263 3.11948Z" fill="#ED1C24"/>
<path fill-rule="evenodd" clip-rule="evenodd" d="M166.401 3.11948L173.266 21H160.595L166.401 3.11948Z" fill="#ED1C24"/>
</g>
<path d="M7.10449 28.2261L12.1289 39H10.9717L9.27979 35.4551H4.63623L2.95166 39H1.75049L6.84082 28.2261H7.10449ZM6.97266 30.5112L5.11963 34.415H8.80371L6.97266 30.5112ZM15.9521 39H13.6377V31.0312H15.9155C16.7847 31.0312 17.4097 31.2314 17.7905 31.6318C18.1763 32.0322 18.3691 32.501 18.3691 33.0381C18.3691 33.8486 18.0127 34.3979 17.2998 34.686C18.335 35.0522 18.8525 35.7578 18.8525 36.8027C18.8525 38.2676 17.8857 39 15.9521 39ZM14.6704 31.9175V34.4077H15.3369C15.9424 34.4077 16.3379 34.3833 16.5234 34.3345C16.709 34.2856 16.8823 34.166 17.0435 33.9756C17.2095 33.7803 17.2925 33.5239 17.2925 33.2065C17.2925 32.8745 17.207 32.5962 17.0361 32.3716C16.8652 32.147 16.6846 32.0151 16.4941 31.9761C16.3086 31.937 15.9229 31.9175 15.3369 31.9175H14.6704ZM14.6704 35.3452V38.1357H15.769C16.2866 38.1357 16.6553 38.104 16.875 38.0405C17.0996 37.9722 17.29 37.8281 17.4463 37.6084C17.6074 37.3887 17.688 37.1104 17.688 36.7734C17.688 36.3389 17.5513 35.9922 17.2778 35.7334C17.0044 35.4746 16.6431 35.3452 16.1938 35.3452H14.6704ZM19.7607 31.0312H25.0049V31.9175H22.8955V39H21.8628V31.9175H19.7607V31.0312ZM30.1685 30.8262C31.394 30.8262 32.4097 31.2705 33.2153 32.1592C33.9478 32.9697 34.314 33.9292 34.314 35.0376C34.314 36.1509 33.9258 37.125 33.1494 37.96C32.3779 38.79 31.3843 39.2051 30.1685 39.2051C28.9478 39.2051 27.9492 38.79 27.1729 37.96C26.4014 37.125 26.0156 36.1509 26.0156 35.0376C26.0156 33.9341 26.3818 32.9771 27.1143 32.1665C27.9199 31.2729 28.938 30.8262 30.1685 30.8262ZM30.1685 31.8296C29.3188 31.8296 28.5889 32.1445 27.9785 32.7744C27.3682 33.4043 27.063 34.166 27.063 35.0596C27.063 35.6357 27.2021 36.1729 27.4805 36.6709C27.7588 37.1689 28.1348 37.5547 28.6084 37.8281C29.082 38.0967 29.6021 38.231 30.1685 38.231C30.7349 38.231 31.2549 38.0967 31.7285 37.8281C32.2021 37.5547 32.5781 37.1689 32.8564 36.6709C33.1348 36.1729 33.2739 35.6357 33.2739 35.0596C33.2739 34.166 32.9663 33.4043 32.3511 32.7744C31.7407 32.1445 31.0132 31.8296 30.1685 31.8296ZM36.2402 31.0312H37.2583V32.4961C37.6636 31.9395 38.1299 31.522 38.6572 31.2437C39.1846 30.9653 39.7729 30.8262 40.4224 30.8262C41.5552 30.8262 42.5244 31.2339 43.3301 32.0493C44.1357 32.8647 44.5386 33.8462 44.5386 34.9937C44.5386 36.1655 44.1382 37.1616 43.3374 37.9819C42.5415 38.7974 41.5796 39.2051 40.4517 39.2051C39.8169 39.2051 39.2334 39.0732 38.7012 38.8096C38.1689 38.5459 37.688 38.1528 37.2583 37.6304V41.915H36.2402V31.0312ZM40.3418 31.8149C39.4531 31.8149 38.7036 32.125 38.0933 32.7451C37.4878 33.3652 37.1851 34.1367 37.1851 35.0596C37.1851 35.665 37.3193 36.2095 37.5879 36.6929C37.8613 37.1763 38.2495 37.5596 38.7524 37.8428C39.2603 38.126 39.7949 38.2676 40.3564 38.2676C40.9082 38.2676 41.4258 38.126 41.9092 37.8428C42.3975 37.5547 42.7856 37.1543 43.0737 36.6416C43.3618 36.1289 43.5059 35.5918 43.5059 35.0303C43.5059 34.4639 43.3618 33.9268 43.0737 33.4189C42.7905 32.9111 42.4072 32.5181 41.9238 32.2397C41.4404 31.9565 40.9131 31.8149 40.3418 31.8149ZM47.4902 31.0312V36.9272L53.3423 31.0312H53.4229V39H52.3975V33.1553L46.5894 39H46.4648V31.0312H47.4902ZM57.041 34.3857H57.5757C57.9175 34.3857 58.23 34.2734 58.5132 34.0488C58.8013 33.8242 58.9453 33.502 58.9453 33.082C58.9453 32.7256 58.8306 32.4204 58.6011 32.1665C58.3716 31.9077 58.02 31.7783 57.5464 31.7783C56.9946 31.7783 56.4404 31.9932 55.8838 32.4229L55.3052 31.7124C56.0229 31.1118 56.7847 30.8115 57.5903 30.8115C58.2544 30.8115 58.811 31.0093 59.2603 31.4048C59.7095 31.8003 59.9341 32.3105 59.9341 32.9355C59.9341 33.7656 59.5679 34.3296 58.8354 34.6274C59.7925 35.0278 60.271 35.7285 60.271 36.7295C60.271 37.3643 60.0464 37.938 59.5972 38.4507C59.1528 38.9585 58.4863 39.2124 57.5977 39.2124C56.5088 39.2124 55.6323 38.8584 54.9683 38.1504L55.6128 37.418C56.106 37.9746 56.7383 38.2529 57.5098 38.2529C58.0273 38.2529 58.4326 38.1138 58.7256 37.8354C59.0234 37.5571 59.1724 37.1909 59.1724 36.7368C59.1724 36.2925 59.0234 35.936 58.7256 35.6675C58.4277 35.3989 58.0762 35.2646 57.6709 35.2646H57.041V34.3857ZM65.8228 30.8262C67.0483 30.8262 68.064 31.2705 68.8696 32.1592C69.6021 32.9697 69.9683 33.9292 69.9683 35.0376C69.9683 36.1509 69.5801 37.125 68.8037 37.96C68.0322 38.79 67.0386 39.2051 65.8228 39.2051C64.6021 39.2051 63.6035 38.79 62.8271 37.96C62.0557 37.125 61.6699 36.1509 61.6699 35.0376C61.6699 33.9341 62.0361 32.9771 62.7686 32.1665C63.5742 31.2729 64.5923 30.8262 65.8228 30.8262ZM65.8228 31.8296C64.9731 31.8296 64.2432 32.1445 63.6328 32.7744C63.0225 33.4043 62.7173 34.166 62.7173 35.0596C62.7173 35.6357 62.8564 36.1729 63.1348 36.6709C63.4131 37.1689 63.7891 37.5547 64.2627 37.8281C64.7363 38.0967 65.2563 38.231 65.8228 38.231C66.3892 38.231 66.9092 38.0967 67.3828 37.8281C67.8564 37.5547 68.2324 37.1689 68.5107 36.6709C68.7891 36.1729 68.9282 35.6357 68.9282 35.0596C68.9282 34.166 68.6206 33.4043 68.0054 32.7744C67.395 32.1445 66.6675 31.8296 65.8228 31.8296ZM74.1943 39H71.8799V31.0312H74.1577C75.0269 31.0312 75.6519 31.2314 76.0327 31.6318C76.4185 32.0322 76.6113 32.501 76.6113 33.0381C76.6113 33.8486 76.2549 34.3979 75.542 34.686C76.5771 35.0522 77.0947 35.7578 77.0947 36.8027C77.0947 38.2676 76.1279 39 74.1943 39ZM72.9126 31.9175V34.4077H73.5791C74.1846 34.4077 74.5801 34.3833 74.7656 34.3345C74.9512 34.2856 75.1245 34.166 75.2856 33.9756C75.4517 33.7803 75.5347 33.5239 75.5347 33.2065C75.5347 32.8745 75.4492 32.5962 75.2783 32.3716C75.1074 32.147 74.9268 32.0151 74.7363 31.9761C74.5508 31.937 74.165 31.9175 73.5791 31.9175H72.9126ZM72.9126 35.3452V38.1357H74.0112C74.5288 38.1357 74.8975 38.104 75.1172 38.0405C75.3418 37.9722 75.5322 37.8281 75.6885 37.6084C75.8496 37.3887 75.9302 37.1104 75.9302 36.7734C75.9302 36.3389 75.7935 35.9922 75.52 35.7334C75.2466 35.4746 74.8853 35.3452 74.436 35.3452H72.9126ZM86.8359 31.0312V39H85.8252V37.6304C85.3955 38.1528 84.9121 38.5459 84.375 38.8096C83.8428 39.0732 83.2593 39.2051 82.6245 39.2051C81.4966 39.2051 80.5322 38.7974 79.7314 37.9819C78.9355 37.1616 78.5376 36.1655 78.5376 34.9937C78.5376 33.8462 78.9404 32.8647 79.7461 32.0493C80.5518 31.2339 81.521 30.8262 82.6538 30.8262C83.3081 30.8262 83.8989 30.9653 84.4263 31.2437C84.9585 31.522 85.4248 31.9395 85.8252 32.4961V31.0312H86.8359ZM82.7344 31.8149C82.1631 31.8149 81.6357 31.9565 81.1523 32.2397C80.6689 32.5181 80.2832 32.9111 79.9951 33.4189C79.7119 33.9268 79.5703 34.4639 79.5703 35.0303C79.5703 35.5918 79.7144 36.1289 80.0024 36.6416C80.2905 37.1543 80.6763 37.5547 81.1597 37.8428C81.6479 38.126 82.1704 38.2676 82.7271 38.2676C83.2886 38.2676 83.8208 38.126 84.3237 37.8428C84.8267 37.5596 85.2124 37.1763 85.481 36.6929C85.7544 36.2095 85.8911 35.665 85.8911 35.0596C85.8911 34.1367 85.5859 33.3652 84.9756 32.7451C84.3701 32.125 83.623 31.8149 82.7344 31.8149ZM94.812 35.1621H90.1831V39H89.1504V31.0312H90.1831V34.1953H94.812V31.0312H95.8374V39H94.812V35.1621ZM103.792 35.1621H99.1626V39H98.1299V31.0312H99.1626V34.1953H103.792V31.0312H104.817V39H103.792V35.1621ZM108.127 34.188H109.102C109.878 34.188 110.486 34.249 110.925 34.3711C111.365 34.4932 111.743 34.7642 112.061 35.1841C112.378 35.5991 112.537 36.0776 112.537 36.6196C112.537 37.2739 112.307 37.8354 111.848 38.3042C111.389 38.7681 110.693 39 109.761 39H107.109V31.0312H108.127V34.188ZM108.164 35.1255V38.1357H109.343C110.73 38.1357 111.423 37.6475 111.423 36.6709C111.423 36.3926 111.348 36.1191 111.196 35.8506C111.05 35.582 110.833 35.394 110.544 35.2866C110.261 35.1792 109.758 35.1255 109.036 35.1255H108.164ZM113.95 31.0312H114.983V39H113.95V31.0312ZM118.198 31.0312V36.9272L124.05 31.0312H124.131V39H123.105V33.1553L117.297 39H117.173V31.0312H118.198ZM118.059 27.8306H119.026C119.192 28.0845 119.414 28.2749 119.692 28.4019C119.971 28.5288 120.303 28.5923 120.688 28.5923C121.079 28.5923 121.394 28.5361 121.633 28.4238C121.873 28.3115 122.1 28.1138 122.314 27.8306H123.252C123.145 28.27 122.869 28.6387 122.424 28.9365C121.985 29.2295 121.404 29.376 120.681 29.376C119.963 29.376 119.377 29.2319 118.923 28.9438C118.469 28.6509 118.181 28.2798 118.059 27.8306ZM130.576 31.0312H137.263V39H136.238V31.998H131.602V39H130.576V31.0312ZM147.495 31.0312V39H146.484V37.6304C146.055 38.1528 145.571 38.5459 145.034 38.8096C144.502 39.0732 143.918 39.2051 143.284 39.2051C142.156 39.2051 141.191 38.7974 140.391 37.9819C139.595 37.1616 139.197 36.1655 139.197 34.9937C139.197 33.8462 139.6 32.8647 140.405 32.0493C141.211 31.2339 142.18 30.8262 143.313 30.8262C143.967 30.8262 144.558 30.9653 145.085 31.2437C145.618 31.522 146.084 31.9395 146.484 32.4961V31.0312H147.495ZM143.394 31.8149C142.822 31.8149 142.295 31.9565 141.812 32.2397C141.328 32.5181 140.942 32.9111 140.654 33.4189C140.371 33.9268 140.229 34.4639 140.229 35.0303C140.229 35.5918 140.374 36.1289 140.662 36.6416C140.95 37.1543 141.335 37.5547 141.819 37.8428C142.307 38.126 142.83 38.2676 143.386 38.2676C143.948 38.2676 144.48 38.126 144.983 37.8428C145.486 37.5596 145.872 37.1763 146.14 36.6929C146.414 36.2095 146.55 35.665 146.55 35.0596C146.55 34.1367 146.245 33.3652 145.635 32.7451C145.029 32.125 144.282 31.8149 143.394 31.8149ZM149.824 31.0312H150.842V32.4961C151.248 31.9395 151.714 31.522 152.241 31.2437C152.769 30.9653 153.357 30.8262 154.006 30.8262C155.139 30.8262 156.108 31.2339 156.914 32.0493C157.72 32.8647 158.123 33.8462 158.123 34.9937C158.123 36.1655 157.722 37.1616 156.921 37.9819C156.125 38.7974 155.164 39.2051 154.036 39.2051C153.401 39.2051 152.817 39.0732 152.285 38.8096C151.753 38.5459 151.272 38.1528 150.842 37.6304V41.915H149.824V31.0312ZM153.926 31.8149C153.037 31.8149 152.288 32.125 151.677 32.7451C151.072 33.3652 150.769 34.1367 150.769 35.0596C150.769 35.665 150.903 36.2095 151.172 36.6929C151.445 37.1763 151.833 37.5596 152.336 37.8428C152.844 38.126 153.379 38.2676 153.94 38.2676C154.492 38.2676 155.01 38.126 155.493 37.8428C155.981 37.5547 156.37 37.1543 156.658 36.6416C156.946 36.1289 157.09 35.5918 157.09 35.0303C157.09 34.4639 156.946 33.9268 156.658 33.4189C156.375 32.9111 155.991 32.5181 155.508 32.2397C155.024 31.9565 154.497 31.8149 153.926 31.8149ZM159.155 31.0312H164.399V31.9175H162.29V39H161.257V31.9175H159.155V31.0312ZM171.453 35.1621H166.824V39H165.791V31.0312H166.824V34.1953H171.453V31.0312H172.478V39H171.453V35.1621ZM181.479 36.356L182.344 36.8101C182.061 37.3667 181.733 37.8159 181.362 38.1577C180.991 38.4995 180.574 38.7607 180.11 38.9414C179.646 39.1172 179.121 39.2051 178.535 39.2051C177.236 39.2051 176.221 38.7803 175.488 37.9307C174.756 37.0762 174.39 36.1118 174.39 35.0376C174.39 34.0269 174.7 33.126 175.32 32.335C176.106 31.3291 177.158 30.8262 178.477 30.8262C179.834 30.8262 180.918 31.3413 181.729 32.3716C182.305 33.0991 182.598 34.0073 182.607 35.0962H175.444C175.464 36.0239 175.759 36.7856 176.331 37.3813C176.902 37.9722 177.607 38.2676 178.447 38.2676C178.853 38.2676 179.246 38.1968 179.626 38.0552C180.012 37.9136 180.339 37.7256 180.608 37.4912C180.876 37.2568 181.167 36.8784 181.479 36.356ZM181.479 34.21C181.343 33.6631 181.143 33.2261 180.879 32.8989C180.62 32.5718 180.276 32.3081 179.846 32.1079C179.417 31.9077 178.965 31.8076 178.491 31.8076C177.71 31.8076 177.039 32.0591 176.477 32.562C176.067 32.9282 175.757 33.4775 175.547 34.21H181.479ZM177.012 27.8818C177.246 27.8818 177.446 27.9648 177.612 28.1309C177.778 28.2969 177.861 28.4971 177.861 28.7314C177.861 28.9658 177.778 29.166 177.612 29.332C177.446 29.498 177.246 29.5811 177.012 29.5811C176.777 29.5811 176.577 29.498 176.411 29.332C176.245 29.166 176.162 28.9658 176.162 28.7314C176.162 28.4971 176.245 28.2969 176.411 28.1309C176.577 27.9648 176.777 27.8818 177.012 27.8818ZM180 27.8818C180.234 27.8818 180.435 27.9648 180.601 28.1309C180.767 28.2969 180.85 28.4971 180.85 28.7314C180.85 28.9658 180.767 29.166 180.601 29.332C180.435 29.498 180.234 29.5811 180 29.5811C179.766 29.5811 179.565 29.498 179.399 29.332C179.233 29.166 179.15 28.9658 179.15 28.7314C179.15 28.4971 179.233 28.2969 179.399 28.1309C179.565 27.9648 179.766 27.8818 180 27.8818ZM184.526 31.0312H185.544V32.4961C185.95 31.9395 186.416 31.522 186.943 31.2437C187.471 30.9653 188.059 30.8262 188.708 30.8262C189.841 30.8262 190.811 31.2339 191.616 32.0493C192.422 32.8647 192.825 33.8462 192.825 34.9937C192.825 36.1655 192.424 37.1616 191.624 37.9819C190.828 38.7974 189.866 39.2051 188.738 39.2051C188.103 39.2051 187.52 39.0732 186.987 38.8096C186.455 38.5459 185.974 38.1528 185.544 37.6304V41.915H184.526V31.0312ZM188.628 31.8149C187.739 31.8149 186.99 32.125 186.379 32.7451C185.774 33.3652 185.471 34.1367 185.471 35.0596C185.471 35.665 185.605 36.2095 185.874 36.6929C186.147 37.1763 186.536 37.5596 187.039 37.8428C187.546 38.126 188.081 38.2676 188.643 38.2676C189.194 38.2676 189.712 38.126 190.195 37.8428C190.684 37.5547 191.072 37.1543 191.36 36.6416C191.648 36.1289 191.792 35.5918 191.792 35.0303C191.792 34.4639 191.648 33.9268 191.36 33.4189C191.077 32.9111 190.693 32.5181 190.21 32.2397C189.727 31.9565 189.199 31.8149 188.628 31.8149Z" fill="#474747"/>
<defs>
<clipPath id="clip0_112_772">
<rect width="195" height="21" fill="white"/>
</clipPath>
</defs>
</svg>
