<svg width="265" height="266" viewBox="0 0 265 266" fill="none" xmlns="http://www.w3.org/2000/svg">
<path opacity="0.1" fill-rule="evenodd" clip-rule="evenodd" d="M119.967 0.337432C107.945 1.57119 94.4239 4.94134 82.9767 9.55638C38.3728 27.5408 6.48988 69.5141 0.889195 117.622C-3.70965 157.13 9.68759 196.734 37.4246 225.626C54.5374 243.451 77.1417 256.535 100.861 262.344C112.704 265.245 119.223 266 132.428 266C154.054 266 171.224 262.057 190.337 252.704C197.789 249.056 212.588 239.843 214.275 237.801C214.806 237.158 214.358 236.846 211.749 236.037C207.837 234.824 202.568 231.99 198.524 228.921C195.733 226.803 195.361 226.668 194.268 227.366C186.214 232.514 177.844 236.758 171.077 239.124L167.361 240.424L165.35 238.485C164.245 237.419 161.02 233.667 158.183 230.147C134.642 200.937 117.197 163.063 109.479 124.412C108.103 117.518 105.845 103.024 105.845 101.082C105.845 100.23 106.611 99.973 110.729 99.4426C119.516 98.3102 119.409 98.2818 121.411 102.291C129.85 119.191 151.639 143.751 183.168 171.902L185.449 173.938L187.598 170.229C188.781 168.19 191.546 164.595 193.744 162.243L197.74 157.965L190.733 151.623C173.94 136.424 155.895 117.325 147.066 105.404C140.598 96.6707 140.325 97.4571 149.668 97.8984C180.338 99.3475 209.896 106.844 235.854 119.756C242.829 123.225 244.364 124.206 244.658 125.38C245.1 127.151 244.455 145.439 243.823 149.068L243.356 151.743L245.627 152.903C249.643 154.955 254.459 158.487 257.796 161.828C259.585 163.619 261.117 165.012 261.2 164.921C261.357 164.752 263.363 154.552 263.913 151.124C265.556 140.886 265.31 123.471 263.356 111.613C257.327 75.0424 236.442 42.7326 205.254 21.7304C198.553 17.2177 184.063 9.99713 176.381 7.34263C169.155 4.84618 158.631 2.24955 151.258 1.14435C144.192 0.0858842 126.793 -0.3632 119.967 0.337432ZM151.535 21.712C154.276 22.2134 156.905 22.7387 157.378 22.879C157.971 23.0554 154.687 26.7255 146.822 34.6795C131.21 50.4663 122.706 62.1366 118.809 73.1225C117.977 75.4687 117.124 77.5889 116.913 77.8349C116.641 78.1532 106.434 79.8172 104.322 79.8878C103.994 79.8984 104.237 74.2154 104.761 69.6199C106.712 52.5109 113.26 36.0563 123.217 23.2457L125.505 20.3013L136.028 20.5511C142.265 20.6992 148.58 21.1716 151.535 21.712ZM94.7607 31.616C88.3808 45.0465 84.9217 59.2712 84.4138 74.1698L84.0871 83.751L78.7672 85.4712C75.8414 86.4178 73.136 87.3232 72.755 87.484C72.3274 87.6643 71.6363 86.7751 70.9457 85.1568C67.9302 78.0881 58.0081 66.0627 50.2022 60.0164L48.0024 58.3118L53.2481 53.0974C61.9119 44.4862 70.8172 37.9896 81.4133 32.5504C86.8893 29.7395 95.6434 25.9792 96.812 25.9358C97.1797 25.9225 96.2742 28.4295 94.7607 31.616ZM190.578 36.3796C208.533 47.2636 224.101 64.2703 233.211 82.953C236.008 88.6878 239.314 96.8788 239.314 98.0731C239.314 98.4977 237.818 98.0659 235.298 96.9139C230.27 94.6145 218.969 90.399 212.124 88.2698C191.398 81.8228 171.132 78.3819 147.796 77.3474C142.999 77.1348 139.074 76.8282 139.074 76.6668C139.074 75.9295 142.347 70.8208 145.743 66.2581C152.94 56.5889 164.053 45.1072 176.61 34.3657L180.641 30.9176L183.533 32.3895C185.123 33.1993 188.294 34.9945 190.578 36.3796ZM40.9563 78.7765C46.0347 83.0883 53.2332 92.94 53.2332 95.5789C53.2332 96.063 50.7095 97.9568 47.3606 99.9858C40.6068 104.077 30.6848 111.419 25.0171 116.518C20.4254 120.649 20.4481 120.691 22.2259 111.436C24.2689 100.798 29.0012 87.6738 34.0935 78.5233C36.4089 74.3629 35.7272 74.3379 40.9563 78.7765ZM86.1866 107.022C92.8334 157.731 111.039 202.762 139.887 239.845C143.955 245.075 143.999 245.166 142.623 245.513C139.584 246.28 118.453 245.324 112.201 244.137C99.8153 241.786 87.9133 237.407 77.0132 231.191C71.0642 227.799 60.7711 220.404 58.352 217.786L57.1026 216.433L59.2819 207.012C67.2606 172.52 72.5362 139.367 74.4862 111.461C74.5881 110.001 74.8207 108.656 75.0029 108.473C75.3573 108.117 84.8203 104.428 85.4589 104.397C85.6687 104.387 85.9961 105.568 86.1866 107.022ZM52.6306 129.426C50.2016 150.163 41.7255 197.314 40.4268 197.314C39.7224 197.314 34.5315 188.563 31.3383 181.993C26.2803 171.585 20.3966 151.35 21.7014 148.849C22.7088 146.919 35.2709 134.288 40.5437 129.902C45.5823 125.712 53.3583 119.91 53.6075 120.154C53.6613 120.206 53.2215 124.379 52.6306 129.426ZM216.751 164.722C211.708 166.363 208.173 168.632 204.322 172.698C198.618 178.72 196.116 185.068 196.116 193.518C196.116 202.203 199.414 209.717 205.795 215.572C222.635 231.023 249.397 222.784 255.085 200.397C256.152 196.197 256.148 190.81 255.075 186.235C252.635 175.834 243.887 166.944 233.386 164.196C228.577 162.937 221.553 163.159 216.751 164.722Z" fill="#171717"/>
</svg>
