<svg width="216" height="72" viewBox="0 0 216 72" fill="none" xmlns="http://www.w3.org/2000/svg">
<path fill-rule="evenodd" clip-rule="evenodd" d="M41.9743 3.07832C40.2043 3.51708 38.9893 5.11557 39.0792 6.88728C39.1265 7.82019 39.3667 8.64123 39.9032 9.70445C40.1623 10.2179 40.3742 10.6817 40.3742 10.7353C40.3742 10.7889 40.4304 10.9936 40.4992 11.1901C40.6778 11.7005 40.6563 12.0658 40.3794 13.2323C39.9399 15.0839 39.9311 15.112 39.7415 15.2778C39.5939 15.4068 39.5103 15.6233 39.2199 16.6288C39.0298 17.2874 38.8742 17.9408 38.8742 18.0808C38.8742 18.2613 38.7793 18.53 38.5481 19.004C38.2286 19.6591 38.2215 19.686 38.1991 20.3182C38.1791 20.8851 38.1436 21.0572 37.9079 21.732C37.7603 22.1546 37.5208 22.9152 37.3757 23.4224L37.112 24.3444L36.6319 24.8054C36.3678 25.059 36.063 25.418 35.9544 25.6033L35.757 25.9402L35.6862 25.7572C35.6473 25.6566 35.5471 25.4861 35.4635 25.3784C35.363 25.2487 35.3116 25.1018 35.3116 24.9442C35.3116 24.6172 35.2185 24.5254 34.7621 24.4022C34.5241 24.3379 34.3443 24.2511 34.3069 24.1821C34.2727 24.1195 34.1403 24.015 34.0126 23.95C33.8848 23.885 33.6396 23.689 33.4678 23.5144C33.0861 23.1268 32.7055 22.928 32.1091 22.8046C31.2119 22.619 30.2831 22.9165 29.4679 23.6506C28.6374 24.3986 28.2832 25.1564 28.2813 26.1897C28.2802 26.7678 28.2933 26.8321 28.4943 27.2347C28.6545 27.5556 28.8556 27.8088 29.2928 28.2394C29.6828 28.6236 29.8586 28.8383 29.8214 28.8848C29.7906 28.9232 29.7154 29.1053 29.6543 29.2895C29.4892 29.7869 28.6857 30.5834 28.3489 30.5835C28.1223 30.5836 27.4775 30.9274 27.2387 31.1755C26.9605 31.4644 26.0608 32.9193 25.5206 33.9538C25.2825 34.4098 24.9982 34.8507 24.807 35.0603C24.4695 35.4303 23.973 36.3547 23.9018 36.7457C23.8718 36.9106 23.7436 37.1029 23.451 37.4218C22.3017 38.6746 21.0634 40.5878 20.3092 42.2758C20.0934 42.7587 19.8786 43.2091 19.8318 43.2767C19.785 43.3443 19.4273 43.7316 19.037 44.1373C18.6466 44.543 18.2562 44.9579 18.1693 45.0593C18.0773 45.1668 17.6891 45.4029 17.2394 45.625C16.5398 45.9705 16.3948 46.0181 15.6939 46.1321C15.2684 46.2014 14.8044 46.2583 14.6626 46.2588C14.2858 46.2601 14.1235 46.317 14.1235 46.4482C14.1235 46.6144 14.3459 46.7268 14.8423 46.8111C15.4816 46.9197 16.2646 46.8974 16.811 46.755C17.2825 46.6321 17.4658 46.6564 17.2772 46.8168C17.2212 46.8645 16.9479 47.014 16.6698 47.1493C16.113 47.4201 15.9892 47.5433 16.1192 47.6973C16.2683 47.874 16.7628 47.817 17.7036 47.5146C18.1828 47.3606 18.5921 47.2515 18.6131 47.2721C18.6342 47.2928 18.5748 47.4436 18.4813 47.6074C18.3053 47.9153 18.2619 48.1878 18.3777 48.2582C18.497 48.3307 18.8655 48.2237 19.065 48.0587C19.1722 47.97 19.3702 47.7506 19.5048 47.5713C20.0191 46.8867 20.2179 46.8355 20.6871 47.2671C21.0159 47.5696 21.2985 47.6709 21.8149 47.6714C22.1882 47.6717 22.3369 47.5982 22.4025 47.3808C22.4529 47.214 22.1997 46.9341 21.9985 46.9341C21.8152 46.9341 21.5231 46.7754 21.4656 46.6444C21.439 46.584 21.409 46.1935 21.399 45.7768C21.3818 45.0665 21.3926 44.9855 21.5704 44.4859C21.8027 43.8334 22.1655 43.1489 22.5518 42.6348C22.7772 42.3347 23.004 42.1401 23.5615 41.7683C25.1447 40.7125 25.7741 40.0276 26.5503 38.5154C27.0215 37.5975 27.0507 37.5565 27.2975 37.4667C27.6811 37.3271 27.9261 37.1233 28.0765 36.8187C28.2184 36.5315 28.2825 36.5065 28.6767 36.584C28.7876 36.6058 28.886 36.6711 28.9073 36.7368C28.9503 36.8703 29.6476 37.9323 29.811 38.1134C29.8797 38.1894 29.9326 38.3706 29.9499 38.588C29.9737 38.8893 30.0176 38.9905 30.2566 39.2949C30.4964 39.6004 30.5514 39.7275 30.6491 40.2033C30.7116 40.5076 30.8295 40.9363 30.9111 41.1561C31.0591 41.5548 31.0592 41.5559 30.9368 41.7093C30.8693 41.7938 30.6939 42.0196 30.5471 42.2111C30.3165 42.5119 30.2446 42.5646 30.0191 42.5984C29.5514 42.6684 29.1542 43.035 28.9922 43.5461C28.9535 43.6684 28.9094 44.2525 28.8943 44.8442C28.8792 45.4358 28.8364 45.9972 28.7991 46.0917C28.7619 46.1862 28.5743 46.4012 28.3821 46.5696C28.1193 46.8001 27.9301 46.9059 27.6177 46.9974C27.1305 47.1401 26.9203 47.288 26.684 47.6546C26.5848 47.8085 26.3286 48.0492 26.0831 48.2196C25.4123 48.685 24.3337 49.6246 23.5959 50.3865C22.9653 51.0376 21.9501 52.293 21.7574 52.6598C21.6883 52.7913 21.6006 52.8357 21.2915 52.8955C20.5696 53.0352 20.2634 53.1888 19.7549 53.6666C19.3531 54.0441 19.1765 54.1585 18.6231 54.3998C15.4959 55.7632 12.8854 57.5446 10.4863 59.9521C9.88941 60.5511 9.2964 61.1287 9.16846 61.2357C8.93401 61.4317 8.86633 61.6551 9.00114 61.7877C9.04645 61.8322 8.98408 61.9181 8.79695 62.0689L8.5275 62.286L8.31219 62.1093C7.96118 61.8211 7.8108 61.8848 7.48248 62.4603C7.3066 62.7686 7.24566 62.8266 7.08072 62.8426C6.90196 62.8599 6.8789 62.8401 6.79371 62.5967C6.74277 62.4511 6.66796 62.1937 6.62739 62.0247C6.4872 61.4399 6.24838 61.2824 6.06682 61.6549C5.98756 61.8176 5.99163 61.876 6.10557 62.2074C6.17569 62.4112 6.23694 62.6684 6.24176 62.7791C6.24657 62.8899 6.29601 63.0922 6.35157 63.2288C6.47401 63.5297 6.40895 63.6334 6.16619 63.5247C6.02188 63.46 5.97606 63.4713 5.77781 63.62C5.52849 63.807 5.42642 64.0045 5.47824 64.1995C5.5073 64.3087 5.45186 64.3566 5.11479 64.5134C4.89604 64.6152 4.64672 64.6987 4.56078 64.6991C4.47484 64.6994 4.08108 64.8147 3.68575 64.9554C3.29043 65.096 2.78417 65.2311 2.56073 65.2556C1.28007 65.396 0.95306 65.5063 0.423859 65.9765C-0.167531 66.5019 -0.148906 66.7876 0.535424 67.684C1.26876 68.6445 1.75302 68.9456 2.6346 68.9892C3.17512 69.0159 3.17974 69.0149 3.81651 68.7221C4.56359 68.3786 4.85503 68.3358 5.52224 68.4715C6.03263 68.5753 6.38032 68.5431 6.74377 68.3583C6.94896 68.2539 7.34497 67.8338 7.4006 67.6615C7.4226 67.5933 7.47891 67.523 7.52573 67.5053C7.5726 67.4877 7.71373 67.3209 7.83942 67.1346C8.02993 66.8524 8.11843 66.7796 8.37162 66.6968C8.73095 66.5795 8.9567 66.3736 9.16115 65.9768C9.35559 65.5995 9.64878 65.2743 9.83641 65.2279C9.91848 65.2077 10.0425 65.0962 10.1122 64.9801C10.1818 64.864 10.3183 64.7216 10.4155 64.6635C10.5127 64.6055 10.6684 64.5067 10.7616 64.4439C10.8547 64.3811 11.0042 64.3298 11.0938 64.3298C11.2909 64.3298 11.4266 64.2617 11.8688 63.9411C12.2004 63.7007 12.2138 63.6969 12.479 63.7666C12.8406 63.8617 12.9675 63.8566 13.0634 63.743C13.3409 63.4141 16.7761 60.9014 17.2008 60.7166C17.6833 60.5067 19.6543 59.4287 20.3957 58.9693C21.2645 58.4309 22.0708 57.8829 22.9987 57.2004C23.5278 56.8113 23.8742 56.6092 24.3113 56.4347C25.4916 55.9634 28.4986 54.5025 29.9052 53.717C31.9299 52.5863 33.8015 51.6601 34.1369 51.623C34.3742 51.5966 34.4967 51.6362 35.0946 51.9321C35.4718 52.1188 36.1178 52.372 36.5303 52.4949C36.9429 52.6179 37.5194 52.7901 37.8116 52.8776C38.1038 52.9652 38.8351 53.2361 39.4367 53.4796C40.0382 53.7232 40.7695 54.0136 41.0617 54.125C41.3539 54.2365 41.7816 54.4203 42.0122 54.5336C43.0948 55.0655 44.1277 55.3955 45.3431 55.5979C45.7556 55.6666 46.1915 55.7518 46.3118 55.7872C46.4322 55.8227 46.835 55.9173 47.2071 55.9976C47.5792 56.0779 47.9308 56.1845 47.9884 56.2345C48.046 56.2845 48.3885 56.4702 48.7494 56.6472C49.1104 56.8241 49.5601 57.0691 49.7489 57.1916C50.1583 57.4576 52.4751 59.1551 53.5308 59.9629C54.2624 60.5226 55.02 60.949 55.2831 60.949C55.355 60.949 55.9411 61.3431 56.5855 61.8249C58.4027 63.1832 58.6957 63.3477 59.1433 63.2596C59.366 63.2158 59.6671 63.4429 60.5622 64.3294C60.8888 64.6529 61.2404 64.9882 61.3435 65.0745C61.4466 65.1609 61.6013 65.3505 61.6872 65.4959C61.7732 65.6414 62.0613 65.9848 62.3276 66.2591C62.6077 66.5477 62.8409 66.8484 62.8811 66.9729C62.96 67.2173 63.5145 68.2697 63.6988 68.525C63.7758 68.6317 63.878 68.694 63.9758 68.694C64.1901 68.694 64.6834 68.3708 65.3498 67.7936C66.0488 67.1884 66.8061 66.6531 67.4999 66.2742C68.5892 65.6792 69.5326 64.9339 71.1094 63.4228C71.6907 62.8657 72 62.525 72 62.4417C72 62.2925 71.6303 61.954 71.3347 61.8326C70.8325 61.6262 70.3295 61.7707 69.328 62.4089C68.7694 62.7649 68.4715 62.8193 67.2186 62.7941C66.6342 62.7823 65.8807 62.7742 65.5442 62.776L64.9323 62.7791L65.0373 62.6171C65.6101 61.7333 66.006 61.3165 66.4134 61.1682C66.845 61.0111 67.0023 60.9037 66.9599 60.7952C66.9127 60.6743 66.5554 60.6753 66.1376 60.7973C65.9093 60.864 65.7058 60.991 65.4408 61.2323C65.16 61.488 65.0354 61.5635 64.9428 61.5346C64.8541 61.507 64.7529 61.5576 64.5845 61.7138C64.3417 61.9391 64.0451 62.0359 63.8165 61.9645C63.744 61.9419 63.5594 61.8292 63.406 61.7141C63.1842 61.5476 63.0895 61.5122 62.9428 61.541C62.7983 61.5695 62.6964 61.5337 62.4728 61.3757C62.3158 61.2647 62.1873 61.1672 62.1873 61.1588C62.1873 61.1504 62.2436 61.0143 62.3124 60.8563C62.3813 60.6983 62.4226 60.545 62.4041 60.5156C62.3856 60.4862 62.1676 60.3301 61.9195 60.1687C61.6714 60.0072 61.1169 59.5734 60.6872 59.2046C58.1229 57.0035 54.7192 54.4745 52.0375 52.7775C50.7325 51.9518 50.6102 51.8908 50.0461 51.7834C49.6638 51.7108 49.6393 51.6937 48.872 50.966C47.1412 49.3246 46.0762 48.6215 43.4555 47.3905L42.3178 46.8561L42.4513 46.6031C42.85 45.8479 42.4321 45.1068 41.234 44.4442L40.7835 44.1951L40.5098 43.5534L40.2361 42.9118L40.3997 42.1722C40.6761 40.9229 40.7565 40.2548 40.7935 38.9019C40.8321 37.4882 40.7353 35.6653 40.5874 35.0185C40.4924 34.603 40.4129 34.428 39.8572 33.4105C39.5696 32.8841 39.4607 32.5943 39.2682 31.8431C39.0535 31.0048 39.032 30.8465 39.0313 30.0917L39.0304 29.2619L39.3837 28.4013C39.9561 27.0073 40.1223 26.2749 40.1237 25.1413C40.124 24.8718 40.1699 24.5809 40.2457 24.369C40.3125 24.1819 40.3968 23.7457 40.4329 23.3995C40.469 23.0533 40.5285 22.715 40.5651 22.6477C40.7674 22.276 41.0868 21.2342 41.2771 20.3259C41.4808 19.3532 41.5068 19.2781 41.7092 19.079C41.9895 18.8033 42.0949 18.4437 42.2604 17.1972C42.3754 16.3318 42.3821 16.1636 42.3107 15.9507C42.2396 15.739 42.2477 15.5003 42.3686 14.2464C42.4458 13.4445 42.5631 12.5746 42.6291 12.3135C42.7846 11.6988 42.7833 11.2816 42.6249 10.9762C42.5122 10.759 42.5097 10.7275 42.5981 10.6406C42.6618 10.5779 42.8099 10.5447 43.025 10.5447C43.4452 10.5447 44.204 10.3544 44.6339 10.1411C45.5258 9.69874 46.2333 8.88483 46.5741 7.9092C46.6895 7.57875 46.7165 7.36871 46.7172 6.79508C46.7182 5.97656 46.6464 5.6707 46.2944 4.99442C45.8561 4.1523 45.0563 3.48198 44.1035 3.15829C43.5994 2.98704 42.508 2.94604 41.9743 3.07832Z" fill="white"/>
<path d="M115.709 26.8444L118.026 29.1609L110.856 36.3309L118.632 44.1077L116.095 46.6448L108.318 38.868L101.093 46.0932L98.7768 43.7768L106.002 36.5515L98.2252 28.7748L100.762 26.2377L108.539 34.0144L115.709 26.8444Z" fill="#FF6A00"/>
<path fill-rule="evenodd" clip-rule="evenodd" d="M153.679 23.757C151.972 25.6688 151.414 26.3136 150.516 27.4109C148.101 30.3623 146.523 32.7965 145.468 35.2008C143.795 39.0101 143.545 42.373 144.753 44.8104C145.384 46.0838 146.489 47.2371 147.753 47.9412C148.61 48.419 149.85 48.7956 151.07 48.9493C151.722 49.0314 153.564 49.0102 154.369 48.9114C156.79 48.614 159.298 47.9308 162.146 46.7925C163.292 46.3348 163.711 46.1535 183.801 37.4363C208.886 26.5519 216.129 23.4009 215.998 23.4292C215.872 23.4565 215.392 23.5858 190.455 30.3079C173.841 34.786 167.393 36.5224 164.358 37.3356C162.912 37.723 161.95 37.9096 160.561 38.0726C160.313 38.1016 159.719 38.1193 159.032 38.1179C157.792 38.1156 157.296 38.063 156.444 37.8439C155.262 37.5402 154.434 37.0815 153.602 36.2708C152.441 35.1389 151.839 33.7931 151.696 32.0087C151.587 30.6596 151.869 28.8532 152.453 27.1492C152.882 25.8995 153.65 24.2417 154.321 23.1215C154.361 23.0547 154.385 23 154.374 23C154.364 23 154.051 23.3406 153.679 23.757Z" fill="white"/>
</svg>
