<svg width="216" height="72" viewBox="0 0 216 72" fill="none" xmlns="http://www.w3.org/2000/svg">
<path fill-rule="evenodd" clip-rule="evenodd" d="M37.852 14.9762C34.9911 16.6198 32.6308 17.984 32.6068 18.0079C32.5823 18.0322 35.7937 23.6343 39.9238 30.772L47.2844 43.4929H54.3563H61.4282L61.3077 43.2793C61.2415 43.1618 59.8994 40.8496 58.3254 38.1409C46.5475 17.8728 43.1321 12.0105 43.0955 12C43.0725 11.9934 40.7129 13.3327 37.852 14.9762ZM25.5466 26.0826C22.6705 27.7246 20.3195 29.0968 20.3222 29.1319C20.325 29.1671 22.1837 32.4064 24.4527 36.3302L28.5782 43.4645V44.9863V46.508H30.0939H31.6097V45.0006V43.4933L37.167 43.4805L42.7244 43.4677L42.331 42.7893C35.5518 31.0987 30.8767 23.0909 30.8324 23.0937C30.8014 23.0957 28.4228 24.4407 25.5466 26.0826ZM13.1556 36.8999C10.2726 38.5498 7.91373 39.9185 7.91358 39.9414C7.91343 39.9643 8.36239 40.7719 8.9112 41.7361L9.90907 43.4891L16.9712 43.491L24.0333 43.4929L23.9437 43.3235C23.7217 42.9038 18.4451 33.8955 18.4226 33.8977C18.4087 33.899 16.0385 35.25 13.1556 36.8999ZM24.0814 46.0851V48.6269L23.8161 48.4704C22.7636 47.849 21.9189 47.5858 20.793 47.5284C17.6756 47.3695 14.9552 49.4672 14.2959 52.5384C14.1699 53.1258 14.1705 54.4022 14.2972 55.0008C14.6747 56.7841 15.7605 58.2803 17.3363 59.1884C18.3766 59.788 19.796 60.0893 21.0502 59.9768C22.0172 59.89 23.0222 59.5525 23.8371 59.0409C23.9426 58.9747 24.0407 58.9205 24.0551 58.9205C24.0696 58.9205 24.0814 59.1127 24.0814 59.3476V59.7748H25.5719H27.0624V51.659V43.5431H25.5719H24.0814V46.0851ZM42.7757 46.0837V48.6243L42.561 48.4934C41.2697 47.706 39.8286 47.383 38.4011 47.561C34.1141 48.0956 31.6272 52.6602 33.5249 56.5109C34.5097 58.5093 36.3818 59.7774 38.638 59.974C39.8237 60.0775 40.911 59.8701 41.9926 59.3343C42.2427 59.2104 42.5077 59.0666 42.5814 59.0148C42.6552 58.9629 42.7291 58.9205 42.7456 58.9205C42.7622 58.9205 42.7757 59.1127 42.7757 59.3476V59.7748H44.2662H45.7567V51.659V43.5431H44.2662H42.7757V46.0837ZM5.39409 47.5724C4.90434 47.6334 3.95356 47.9229 3.50505 48.1475C2.11348 48.8446 1.02557 50.0042 0.464134 51.3891C-0.163288 52.9366 -0.154194 54.6883 0.488993 56.1924C1.33479 58.1701 3.00323 59.4943 5.16607 59.9045C5.46421 59.961 5.85988 59.9888 6.34704 59.9872C7.09411 59.9847 7.46491 59.9306 8.19121 59.7179C8.54888 59.6131 9.42246 59.2046 9.68231 59.0205C9.76002 58.9655 9.83718 58.9205 9.8537 58.9205C9.87027 58.9205 9.88381 59.1127 9.88381 59.3476V59.7748H11.3996H12.9153V53.7193V47.6638H11.4014H9.88745L9.873 48.1362L9.85855 48.6086L9.45435 48.3715C8.2428 47.6608 6.86346 47.3893 5.39409 47.5724ZM52.3756 47.5882C52.1393 47.6234 51.7187 47.7251 51.4408 47.8142C49.3021 48.4998 47.7724 50.1568 47.2187 52.3876C47.0609 53.0233 47.0453 54.3395 47.1876 55.0008C47.5723 56.7878 48.6257 58.2505 50.189 59.1684C51.9578 60.2069 54.3133 60.2758 56.1649 59.3433C56.4011 59.2243 56.6626 59.0806 56.746 59.0241C56.8294 58.9675 56.9146 58.921 56.9355 58.9208C56.9563 58.9206 56.9734 59.1127 56.9734 59.3476V59.7748H58.4638H59.9543V53.7193V47.6638H58.4638H56.9734V48.1413C56.9734 48.4038 56.9656 48.6187 56.9562 48.6187C56.9467 48.6187 56.7515 48.5066 56.5224 48.3696C55.3308 47.6573 53.8203 47.3727 52.3756 47.5882ZM65.3353 47.5917C63.0705 47.9348 61.6292 49.2125 61.4276 51.0559C61.2894 52.319 61.6968 53.411 62.5196 53.9828C63.1953 54.4524 63.8892 54.6965 65.3353 54.9732C65.8633 55.0743 66.5837 55.212 66.9362 55.2792C67.7785 55.4397 68.1944 55.58 68.4348 55.7847C68.924 56.2012 68.9194 56.8672 68.4244 57.2994C67.7708 57.8703 65.9419 57.8769 65.0562 57.3116C64.6043 57.0232 64.3453 56.6504 64.2356 56.1304L64.1776 55.8551H62.6453H61.1129L61.1451 56.1189C61.2029 56.5943 61.3201 56.9786 61.5475 57.438C62.1606 58.6773 63.4561 59.5309 65.2162 59.8554C65.7955 59.9623 67.192 60.003 67.8142 59.9313C69.2485 59.7659 70.4393 59.2376 71.1431 58.4543C71.4719 58.0885 71.7887 57.4828 71.9113 56.9858C72.0189 56.5497 72.0312 55.5463 71.9338 55.1515C71.7592 54.4437 71.3795 53.8819 70.7991 53.4727C70.0795 52.9653 69.539 52.7878 67.4074 52.3587C65.2379 51.922 64.8355 51.7843 64.566 51.3865C64.4391 51.1992 64.4113 50.8407 64.5047 50.5943C64.5708 50.4199 64.8317 50.1431 65.0247 50.0426C65.8384 49.6189 67.2699 49.723 67.9739 50.257C68.1892 50.4204 68.4256 50.8334 68.4957 51.169L68.5508 51.4328H70.0653H71.5797L71.5489 51.2444C71.47 50.762 71.4109 50.5387 71.2692 50.1866C70.5767 48.4665 68.7911 47.4988 66.3458 47.5184C66.0401 47.5208 65.5854 47.5538 65.3353 47.5917ZM28.5782 53.7193V59.7748H30.0939H31.6097V53.7193V47.6638H30.0939H28.5782V53.7193ZM7.43334 50.4293C8.58794 50.7814 9.49446 51.7195 9.81136 52.8901C9.92837 53.3223 9.93085 54.158 9.81646 54.5987C9.76988 54.7784 9.6377 55.1176 9.52281 55.3525C9.11658 56.183 8.19834 56.9086 7.2565 57.1432C6.81647 57.2529 5.96947 57.2503 5.53864 57.1381C4.37934 56.8359 3.41602 55.9095 3.05487 54.7495C2.88318 54.198 2.89152 53.2787 3.07326 52.731C3.49363 51.464 4.52217 50.5629 5.81653 50.3278C6.21537 50.2553 7.0307 50.3065 7.43334 50.4293ZM21.292 50.3545C21.5124 50.3984 21.8882 50.5302 22.1578 50.6582C22.5637 50.8509 22.6986 50.9491 23.0698 51.3219C23.7729 52.0282 24.0844 52.769 24.0884 53.7444C24.0925 54.722 23.7703 55.5149 23.0977 56.1824C22.4623 56.8129 21.846 57.1137 20.9867 57.2127C19.5388 57.3794 18.1271 56.6255 17.4922 55.3465C17.1866 54.7309 17.0917 54.2804 17.1231 53.5937C17.1663 52.6488 17.4692 51.9696 18.1467 51.2989C18.487 50.9619 18.6458 50.8479 19.035 50.6609C19.7999 50.2934 20.5045 50.1978 21.292 50.3545ZM40.3564 50.4435C40.8822 50.6074 41.2716 50.838 41.6826 51.2287C42.4438 51.9525 42.7975 52.7725 42.7893 53.7947C42.7818 54.7288 42.4486 55.5282 41.792 56.1866C41.3244 56.6557 40.8789 56.9243 40.2754 57.1013C39.5312 57.3195 38.4294 57.2422 37.8069 56.9281C36.8321 56.4361 36.0845 55.4969 35.8731 54.4982C35.7568 53.9488 35.8002 53.188 35.9777 52.6645C36.3893 51.4506 37.4346 50.5596 38.7218 50.3254C39.126 50.2519 39.9274 50.3098 40.3564 50.4435ZM54.184 50.3545C54.405 50.3986 54.7805 50.5304 55.0524 50.6595C55.9616 51.0911 56.6904 52.011 56.897 52.9878C56.9899 53.4275 56.993 54.1161 56.9037 54.5234C56.6486 55.6874 55.7135 56.7187 54.5987 57.0655C52.796 57.6261 50.941 56.7694 50.2369 55.051C50.0485 54.591 50.0034 54.3444 50.0028 53.7696C50.0022 53.1462 50.0939 52.7486 50.3665 52.1921C50.535 51.8479 50.6667 51.6703 51.0106 51.3232C51.3801 50.9502 51.5124 50.8538 51.9218 50.6592C52.6924 50.2928 53.3973 50.1979 54.184 50.3545Z" fill="white"/>
<path d="M115.709 26.8444L118.026 29.1609L110.856 36.3309L118.632 44.1077L116.095 46.6448L108.318 38.868L101.093 46.0932L98.7768 43.7768L106.002 36.5515L98.2252 28.7748L100.762 26.2377L108.539 34.0144L115.709 26.8444Z" fill="#FF6A00"/>
<path fill-rule="evenodd" clip-rule="evenodd" d="M176.817 0.0686574C168.234 0.576461 159.441 2.41155 154.06 4.81763C152.678 5.43557 152.028 5.82359 151.922 6.09354C151.772 6.47714 150.892 10.007 150.593 11.4224C148.647 20.6472 148.486 28.8509 150.1 36.6014C151.669 44.1362 154.997 50.956 160.072 57.0342C161.21 58.3983 163.97 61.217 165.415 62.4912C169.107 65.7486 173.696 68.8748 178.444 71.3678L179.648 72L180.309 71.6681C184.124 69.7502 189.008 66.571 192.249 63.8941C194.656 61.9067 197.408 59.209 199.161 57.1196C205.2 49.9188 208.775 41.6927 209.912 32.3781C210.208 29.9497 210.296 28.4324 210.297 25.7083C210.299 21.1762 209.88 17.125 208.908 12.2873C208.564 10.5777 207.594 6.59341 207.4 6.09462C207.189 5.55184 203.945 4.12757 200.645 3.12918C193.548 0.981785 183.404 -0.321074 176.817 0.0686574ZM183.319 2.13917C188.592 2.42156 193.201 3.22301 198.407 4.76238C199.255 5.01321 199.997 5.2481 200.056 5.28433C200.114 5.32065 200.362 6.21963 200.606 7.2822C202.293 14.6247 203.141 21.3787 203.141 27.4748C203.141 28.5456 203.115 29.7319 203.082 30.1112L203.024 30.8008H194.903H186.783L187.671 31.6796C189.6 33.5864 190.56 35.3356 191.091 37.9094C191.207 38.4729 191.314 38.944 191.329 38.9561C191.376 38.9946 193.278 38.6525 194.324 38.4176C194.877 38.2934 195.553 38.0802 195.826 37.9439C196.241 37.7368 196.363 37.6174 196.565 37.2197C196.697 36.9579 196.822 36.6961 196.842 36.638C196.876 36.5357 200.088 36.3204 201.807 36.3051L202.504 36.2989L202.46 36.5467C201.546 41.7176 200.365 45.4758 198.414 49.4189C195.165 55.9842 190.429 61.4883 183.781 66.423C182.18 67.6113 179.831 69.1971 179.672 69.1971C179.507 69.1971 176.644 67.2399 175.081 66.0589C170.17 62.3462 166.196 58.1329 163.166 53.424C162.473 52.3477 161.561 50.7289 161.617 50.6737C161.64 50.6507 162.225 50.4716 162.916 50.2756C164.555 49.8114 165.896 49.3095 167.281 48.6423C168.269 48.1665 169.908 47.2349 169.908 47.1493C169.908 47.1322 169.761 46.8874 169.58 46.6053C169.048 45.7756 168.53 44.5237 168.195 43.2561L168.092 42.8674L167.297 43.6225C166.269 44.5998 165.241 45.4207 163.945 46.2999C162.813 47.0681 160.691 48.2864 160.485 48.2864C160.202 48.2864 158.519 43.7132 157.864 41.166C155.816 33.1947 155.68 24.2299 157.447 13.8109C158.049 10.2633 159.07 5.54499 159.285 5.32056C159.532 5.06188 164.367 3.76272 167.084 3.2249C172.006 2.25075 177.963 1.85237 183.319 2.13917ZM157.808 5.86875C157.808 5.88767 157.647 6.56709 157.452 7.37846C156.169 12.6933 155.306 18.2986 155.001 23.2959C154.864 25.5462 154.941 30.9744 155.138 32.8738C155.717 38.4692 157.053 43.568 159.081 47.9249C159.315 48.4265 159.43 48.7761 159.379 48.8272C159.269 48.9373 157.373 49.7285 157.22 49.7285C157.08 49.7285 156.719 49.1016 155.792 47.2478C153.302 42.2677 151.803 36.8699 151.199 30.7107C151.041 29.0966 151.04 22.5392 151.197 20.9313C151.632 16.5042 152.409 12.2117 153.487 8.29312L153.765 7.28193L155.041 6.78575C157.458 5.84603 157.808 5.73021 157.808 5.86875ZM203.277 6.40882C205.01 7.05777 205.579 7.28373 205.579 7.32303C205.579 7.3379 205.761 8.05346 205.983 8.91305C207.045 13.0208 207.697 16.647 208.078 20.5708C208.251 22.3498 208.311 28.7717 208.167 30.1041L208.092 30.8044L206.253 30.7801L204.414 30.7557L204.377 26.7449C204.347 23.4997 204.302 22.3554 204.143 20.7511C203.718 16.4668 202.935 11.8178 201.918 7.54674C201.747 6.82793 201.585 6.14852 201.559 6.03702C201.529 5.90822 201.554 5.83423 201.627 5.83423C201.69 5.83423 202.432 6.09281 203.277 6.40882ZM162.187 12.461C161.393 12.5753 160.736 12.6723 160.729 12.6765C160.721 12.6807 160.686 12.9378 160.651 13.2476C160.615 13.5575 160.492 14.1357 160.377 14.5329C160.004 15.8258 158.485 19.9999 157.745 21.7651C157.709 21.8511 157.925 21.8777 158.659 21.8777C159.348 21.8777 159.629 21.8459 159.654 21.7651C159.674 21.7031 159.796 21.2684 159.927 20.7992C160.058 20.33 160.177 19.9333 160.193 19.9176C160.208 19.902 160.89 19.8641 161.707 19.8334L163.192 19.7777L163.351 20.67C163.439 21.1607 163.518 21.6231 163.527 21.6975C163.541 21.8095 163.774 21.8369 164.886 21.8576C166.142 21.8811 166.223 21.8725 166.158 21.7224C165.902 21.1295 165.299 18.7977 164.618 15.7666C164.167 13.7568 163.783 12.2378 163.728 12.2434C163.675 12.2488 162.982 12.3467 162.187 12.461ZM197.852 12.5556C198.042 13.3112 198.69 18.9919 198.792 20.7962L198.851 21.8327L199.912 21.8581C200.571 21.8739 200.973 21.8495 200.973 21.7941C200.973 21.7449 200.914 21.3076 200.841 20.8223C200.768 20.337 200.522 18.3581 200.293 16.4247C200.065 14.4914 199.847 12.8502 199.808 12.7776C199.765 12.6961 199.414 12.5867 198.889 12.4913C197.746 12.2837 197.783 12.2815 197.852 12.5556ZM179.707 14.7031C177.992 15.2443 177.07 16.8324 177.32 18.8151C177.482 20.1066 178.167 21.0745 179.281 21.5873C179.95 21.8956 181.266 21.9753 182.029 21.7538C182.462 21.6281 183.545 20.9488 183.544 20.8035C183.544 20.7747 183.445 20.6294 183.325 20.4807C183.107 20.2106 183.106 20.2105 182.851 20.373C182.335 20.7022 181.952 20.8287 181.468 20.8303C180.67 20.833 180.132 20.4593 179.695 19.6005L179.476 19.171L179.682 19.0966C179.795 19.0556 180.715 18.7218 181.726 18.3547L183.564 17.6873L183.516 17.2804C183.374 16.0824 182.581 14.9971 181.645 14.7197C181.076 14.551 180.212 14.5436 179.707 14.7031ZM162.552 16.6149C162.774 17.6496 162.955 18.527 162.955 18.5646C162.955 18.6022 162.447 18.633 161.826 18.633C161.205 18.633 160.697 18.6043 160.697 18.5693C160.697 18.5099 161.751 15.446 161.961 14.8941C162.014 14.7556 162.078 14.6628 162.103 14.6879C162.128 14.713 162.33 15.5802 162.552 16.6149ZM173.611 14.7952C172.905 14.9966 172.712 15.1048 172.264 15.5528C171.774 16.0418 171.599 16.5573 171.712 17.1766C171.82 17.7686 172.079 18.0132 173.341 18.7169C173.996 19.082 174.609 19.4635 174.704 19.5647C174.947 19.8258 174.927 20.3024 174.66 20.5687C174.541 20.6869 174.269 20.8308 174.054 20.8884C173.547 21.0249 172.74 20.8187 172.077 20.383C171.819 20.2136 171.57 20.0751 171.522 20.0751C171.473 20.0751 171.447 20.3685 171.462 20.7648L171.489 21.4546L171.85 21.5801C172.896 21.9437 174.43 21.92 175.351 21.526C175.868 21.3049 176.49 20.7515 176.65 20.3709C176.832 19.9368 176.804 19.1395 176.592 18.7247C176.35 18.252 176.008 18.0091 174.758 17.4228C173.635 16.8964 173.441 16.7068 173.557 16.2484C173.651 15.8736 174.102 15.6587 174.785 15.6629C175.108 15.6649 175.533 15.7238 175.73 15.7937C175.926 15.8637 176.102 15.9068 176.119 15.8894C176.136 15.8721 176.173 15.6366 176.201 15.3661L176.252 14.8745L175.84 14.7708C175.302 14.6356 174.126 14.6485 173.611 14.7952ZM170.776 14.9888C170.34 15.1484 169.688 15.673 169.428 16.0747C169.32 16.2412 169.201 16.378 169.163 16.3786C169.126 16.3791 169.096 16.1802 169.096 15.9364C169.096 15.2687 169.051 15.208 168.557 15.208C168.322 15.208 167.878 15.2341 167.572 15.2661C167.067 15.3187 167.02 15.341 167.072 15.5051C167.204 15.9187 167.057 20.3683 166.874 21.5096L166.814 21.8835L167.932 21.8581L169.051 21.8327L169.023 21.2919C168.977 20.4159 169.164 18.171 169.318 17.7379C169.613 16.909 170.195 16.3911 170.931 16.3014L171.398 16.2445L171.425 15.546C171.455 14.7591 171.439 14.746 170.776 14.9888ZM184.301 15.2305C184.416 16.0007 184.543 19.8779 184.485 20.8637L184.426 21.8777H185.505C186.099 21.8777 186.604 21.8585 186.627 21.8352C186.651 21.8118 186.641 21.5582 186.605 21.2719C186.569 20.9854 186.513 19.8791 186.481 18.8132C186.434 17.29 186.447 16.8291 186.541 16.6587C186.874 16.0533 187.682 15.8717 188.116 16.3047C188.426 16.6137 188.5 17.3015 188.506 19.9174L188.511 21.8777H189.535C190.098 21.8777 190.578 21.8584 190.601 21.8347C190.625 21.8109 190.613 21.4966 190.575 21.1361C190.537 20.7756 190.466 19.5637 190.418 18.4428C190.326 16.2982 190.256 15.9432 189.839 15.4903C189.129 14.7194 187.6 14.7613 186.672 15.577L186.267 15.9324L186.166 15.4477L186.066 14.9629L185.46 14.9058C185.127 14.8744 184.717 14.8484 184.549 14.8481L184.243 14.8474L184.301 15.2305ZM192.891 15.1567C192.841 15.1773 192.562 15.2211 192.269 15.2541L191.738 15.3141L191.793 15.9048C191.823 16.2297 191.861 16.508 191.876 16.5234C191.892 16.5389 192.126 16.4421 192.396 16.3086C192.755 16.1315 193.062 16.0568 193.531 16.0332C194.485 15.9852 194.927 16.2721 195.103 17.0542C195.17 17.3504 195.159 17.3755 194.936 17.4171C193.102 17.76 191.954 18.3742 191.57 19.218C191.24 19.9422 191.427 20.9091 192.001 21.4461C192.756 22.1534 194.345 22.1448 195.258 21.4287C195.566 21.1868 195.605 21.1965 195.703 21.5397L195.787 21.8327L196.721 21.8584C197.653 21.8842 197.654 21.8839 197.607 21.6782C197.4 20.7898 197.271 19.9449 197.183 18.9034C197.067 17.53 196.902 16.7595 196.629 16.3182C196.384 15.923 195.806 15.5334 195.191 15.349C194.729 15.2105 193.092 15.0735 192.891 15.1567ZM181.087 15.6191C181.386 15.8285 181.578 16.2673 181.586 16.7596C181.591 17.1111 181.549 17.239 181.372 17.4087C181.185 17.5884 179.589 18.2735 179.359 18.2727C179.211 18.2722 179.338 16.5348 179.514 16.1802C179.816 15.567 180.608 15.2845 181.087 15.6191ZM195.232 18.4752C195.257 18.6363 195.303 19.1589 195.334 19.6365C195.388 20.4746 195.382 20.51 195.179 20.6527C194.313 21.2601 193.207 20.7744 193.207 19.7868C193.207 19.1235 193.626 18.6196 194.401 18.3528C195.083 18.1173 195.178 18.1313 195.232 18.4752ZM177.63 29.0536C172.847 29.9098 169.132 33.7022 168.413 38.4617C167.988 41.2769 168.662 44.1882 170.286 46.5494C171.372 48.1276 173.292 49.7002 175.065 50.4631C181.609 53.2791 189.132 49.3874 190.596 42.4278C190.854 41.2031 190.877 39.2448 190.647 38.0767C189.985 34.7154 187.835 31.8076 184.809 30.1825C183.96 29.7268 182.481 29.2294 181.433 29.0474C180.443 28.8753 178.608 28.8783 177.63 29.0536ZM161.59 30.9252C160.904 31.1699 160.293 31.8182 160.029 32.5821C159.921 32.8933 159.88 32.9226 159.493 32.9679C159.045 33.0205 158.699 33.2296 158.4 33.6296C158.131 33.9899 158.132 35.0941 158.403 35.4586C158.713 35.8768 159.145 36.1186 159.58 36.1186C159.946 36.1186 159.983 36.1419 160.158 36.4832C160.426 37.0093 160.958 37.5636 161.375 37.7531C161.702 37.9017 162.033 37.9175 164.86 37.9193L167.984 37.9212L168.182 37.1988C168.767 35.0669 169.996 33.128 171.704 31.6409C172.132 31.2685 172.496 30.9271 172.512 30.8823C172.53 30.8343 170.358 30.8024 167.229 30.8048C163.124 30.8078 161.842 30.8351 161.59 30.9252ZM178.668 34.2304V37.0291L178.329 37.17C178.143 37.2475 177.884 37.3865 177.754 37.4787L177.517 37.6465L175.226 36.1494C173.965 35.3261 172.9 34.6224 172.859 34.5858C172.738 34.4768 173.911 33.3769 174.725 32.836C175.819 32.1096 177.532 31.4616 178.42 31.4382L178.668 31.4317V34.2304ZM181.349 31.5624C182.63 31.8344 183.878 32.4051 184.886 33.1796C185.419 33.5889 186.525 34.7152 186.525 34.849C186.525 34.8906 185.486 35.5993 184.217 36.4238L181.91 37.9228L181.576 37.6557C181.392 37.5088 181.049 37.3038 180.813 37.2001L180.384 37.0115V34.2216C180.384 31.0235 180.271 31.3337 181.349 31.5624ZM180.835 34.2348C180.835 35.6179 180.868 36.7495 180.908 36.7495C180.949 36.7495 181.217 36.8911 181.505 37.0641L182.028 37.3787L184.05 36.0629L186.071 34.7472L185.891 34.4943C185.612 34.1037 184.831 33.4303 184.105 32.9548C183.377 32.478 182.377 32.0649 181.445 31.8563L180.835 31.72V34.2348ZM177.043 32.0959C176.193 32.3514 175.261 32.8231 174.559 33.3519C173.844 33.8908 173.371 34.386 173.48 34.4823C173.527 34.5241 174.448 35.1319 175.525 35.8331L177.485 37.1079L177.891 36.9062L178.298 36.7045L178.302 34.2934L178.307 31.8824L178.013 31.8873C177.852 31.8899 177.415 31.9838 177.043 32.0959ZM174.208 37.5337C176.403 38.9682 176.508 39.0496 176.446 39.2687C176.409 39.3951 176.371 39.8027 176.361 40.1745L176.342 40.8505L174.025 42.3152C172.751 43.1208 171.672 43.7798 171.628 43.7798C171.536 43.7798 171.23 43.0031 171.007 42.2025C170.894 41.7954 170.857 41.2831 170.857 40.1295C170.857 38.8063 170.884 38.5015 171.061 37.8952C171.273 37.1644 171.753 36.0285 171.849 36.0285C171.88 36.0285 172.941 36.7058 174.208 37.5337ZM207.252 36.4514C207.034 37.9034 205.873 41.7857 204.994 44.0052C204.346 45.6398 202.825 48.7012 201.882 50.2693C197.484 57.5789 191.044 63.5902 182.551 68.3149C181.334 68.992 179.935 69.7139 180.025 69.6184C180.051 69.5907 180.744 69.1261 181.565 68.586C187.253 64.8426 191.99 60.5224 195.497 55.8792C199.521 50.5515 202.317 44.1546 203.536 37.4864C203.657 36.826 203.777 36.2644 203.803 36.2387C203.849 36.1931 205.73 36.069 206.786 36.042L207.315 36.0285L207.252 36.4514ZM187.693 36.8464C188.264 38.1722 188.478 40.1878 188.202 41.646C188.067 42.3576 187.557 43.9601 187.465 43.9601C187.445 43.9601 186.382 43.2766 185.103 42.4413L182.777 40.9225V40.169V39.4156L185.08 37.9079C186.346 37.0787 187.408 36.3977 187.439 36.3947C187.47 36.3915 187.584 36.5949 187.693 36.8464ZM171.639 37.2327C171.261 38.2747 171.082 39.2146 171.084 40.1482C171.085 41.2871 171.543 43.3167 171.787 43.2644C171.915 43.2367 175.613 40.9073 175.775 40.7523C175.856 40.6746 175.897 40.4942 175.882 40.2865C175.869 40.1001 175.897 39.7716 175.946 39.5565L176.034 39.1654L174.077 37.8833C173.001 37.1782 172.074 36.5738 172.017 36.5401C171.948 36.5 171.819 36.7369 171.639 37.2327ZM185.351 38.1996C183.378 39.4852 183.11 39.6806 183.199 39.7695C183.226 39.7969 184.301 39.7264 185.587 39.6128L187.924 39.4063L187.909 38.8215C187.893 38.2288 187.548 37.0128 187.381 36.9615C187.332 36.9466 186.419 37.5037 185.351 38.1996ZM180.076 39.0969C181.277 39.6774 180.743 41.4711 179.414 41.3216C178.727 41.2442 178.272 40.6274 178.376 39.9154C178.427 39.5732 178.914 39.0371 179.229 38.9768C179.619 38.9022 179.695 38.9131 180.076 39.0969ZM178.285 43.095L178.668 43.2664V46.0593V48.852L178.175 48.7941C177.106 48.6689 175.661 48.0952 174.559 47.359C173.971 46.966 172.526 45.5543 172.53 45.3766C172.531 45.3163 173.574 44.6133 174.847 43.8142L177.162 42.3614L177.532 42.6425C177.736 42.7971 178.074 43.0007 178.285 43.095ZM184.217 43.9017C185.456 44.7107 186.483 45.413 186.5 45.4622C186.555 45.6292 185.153 46.9494 184.399 47.4399C183.987 47.7082 183.364 48.0491 183.014 48.1977C182.34 48.484 181.046 48.8255 180.632 48.8266L180.384 48.8272V46.0454V43.2635L180.784 43.1109C181.005 43.0269 181.335 42.8388 181.519 42.693C181.703 42.5472 181.879 42.4285 181.909 42.4293C181.939 42.4301 182.978 43.0927 184.217 43.9017ZM161.062 51.7266C163.633 56.1713 167.456 60.563 172.166 64.4816C173.45 65.55 175.914 67.3606 177.63 68.4977C178.524 69.09 179.275 69.5978 179.3 69.6262C179.398 69.7381 176.773 68.3322 175.523 67.6035C169.351 64.0046 164.012 59.379 160.145 54.2802C159.185 53.0148 158.169 51.5241 158.169 51.3812C158.169 51.3113 158.273 51.2585 158.417 51.2554C158.554 51.2524 159.031 51.1759 159.478 51.0853C159.925 50.9947 160.357 50.916 160.438 50.9104C160.533 50.9039 160.753 51.1925 161.062 51.7266Z" fill="white"/>
</svg>
